<?xml version="1.0" encoding="utf-8"?>
<COLLADA xmlns="http://www.collada.org/2005/11/COLLADASchema" version="1.4.1" xmlns:xsi="http://www.w3.org/2001/XMLSchema-instance">
  <asset>
    <contributor>
      <author>Blender User</author>
      <authoring_tool>Blender 3.0.1</authoring_tool>
    </contributor>
    <created>2023-05-14T16:33:19</created>
    <modified>2023-05-14T16:33:19</modified>
    <unit name="meter" meter="1"/>
    <up_axis>Z_UP</up_axis>
  </asset>
  <library_effects>
    <effect id="Material_001-effect">
      <profile_COMMON>
        <newparam sid="_023_torpedo2_png_001-surface">
          <surface type="2D">
            <init_from>_023_torpedo2_png_001</init_from>
          </surface>
        </newparam>
        <newparam sid="_023_torpedo2_png_001-sampler">
          <sampler2D>
            <source>_023_torpedo2_png_001-surface</source>
          </sampler2D>
        </newparam>
        <technique sid="common">
          <lambert>
            <emission>
              <color sid="emission">0 0 0 1</color>
            </emission>
            <diffuse>
              <texture texture="_023_torpedo2_png_001-sampler" texcoord="UVMap"/>
            </diffuse>
            <index_of_refraction>
              <float sid="ior">1.45</float>
            </index_of_refraction>
          </lambert>
        </technique>
      </profile_COMMON>
    </effect>
  </library_effects>
  <library_images>
    <image id="_023_torpedo2_png_001" name="_023_torpedo2_png_001">
      <init_from>2023_torpedo2.png</init_from>
    </image>
  </library_images>
  <library_materials>
    <material id="Material_001-material" name="Material.001">
      <instance_effect url="#Material_001-effect"/>
    </material>
  </library_materials>
  <library_geometries>
    <geometry id="Cube-mesh" name="Cube">
      <mesh>
        <source id="Cube-mesh-positions">
          <float_array id="Cube-mesh-positions-array" count="408">-1 -1 -1 -1 -1 1 -1 1 -1 -1 1 1 1 -1 -1 1 -1 1 1 1 -1 1 1 1 -0.1093455 -0.3759312 1 -0.1093455 -0.3759312 -1.000046 -0.09972083 -0.3579247 1 -0.09972083 -0.3579247 -1.000046 0.02673572 -0.3195645 1 0.02673572 -0.3195645 -1.000046 0.007197499 -0.3136376 1 0.007197499 -0.3136376 -1.000046 -0.1152724 -0.3954694 1 -0.1152724 -0.3954694 -1.000046 0.06052511 -0.3421418 1 0.06052511 -0.3421418 -1.000046 0.04474228 -0.5023879 1 0.04474228 -0.5023879 -1.000046 0.02673572 -0.5120126 1 0.02673572 -0.5120126 -1.000046 0.0734778 -0.3579246 1 0.0734778 -0.3579247 -1.000046 0.007197499 -0.5179394 1 0.007197499 -0.5179395 -1.000046 -0.05297881 -0.5120126 1 -0.05297881 -0.5120126 -1.000046 -0.1172736 -0.4157885 1 -0.1172736 -0.4157885 -1.000046 -0.05297881 -0.3195645 1 -0.05297881 -0.3195645 -1.000046 -0.07098537 -0.5023878 1 -0.07098537 -0.5023878 -1.000046 0.08902931 -0.4361076 1 0.08902931 -0.4361076 -1.000046 0.06052511 -0.4894352 1 0.06052511 -0.4894352 -1.000046 0.08310246 -0.4556458 1 0.08310246 -0.4556458 -1.000046 0.09103059 -0.4157885 1 0.09103059 -0.4157885 -1.000046 -0.0867682 -0.3421418 1 -0.0867682 -0.3421419 -1.000046 -0.07098537 -0.3291891 1 -0.07098537 -0.3291892 -1.000046 -0.01312148 -0.5199406 1 -0.01312148 -0.5199406 -1.000046 -0.01312148 -0.3116363 1 -0.01312148 -0.3116364 -1.000046 0.08902931 -0.3954694 1 0.08902931 -0.3954694 -1.000046 0.04474228 -0.3291891 1 0.04474228 -0.3291892 -1.000046 0.08310246 -0.3759312 1 0.08310246 -0.3759312 -1.000046 -0.1093456 -0.4556458 1 -0.1093456 -0.4556458 -1.000046 -0.09972083 -0.4736524 1 -0.09972083 -0.4736524 -1.000046 -0.1152724 -0.4361076 1 -0.1152724 -0.4361076 -1.000046 -0.0867682 -0.4894352 1 -0.0867682 -0.4894352 -1.000046 -0.03344058 -0.5179394 1 -0.03344058 -0.5179395 -1.000046 0.0734778 -0.4736523 1 0.0734778 -0.4736524 -1.000046 -0.03344058 -0.3136376 1 -0.03344058 -0.3136376 -1.000046 -0.1151657 0.6160295 1 -0.1151657 0.6160295 -1.000046 -0.1036465 0.6375806 1 -0.1036465 0.6375806 -1.000046 0.0477032 0.683492 1 0.0477032 0.683492 -1.000046 0.02431887 0.6905856 1 0.02431887 0.6905856 -1.000046 -0.1222593 0.5926451 1 -0.1222593 0.5926452 -1.000046 0.08814406 0.6564703 1 0.08814406 0.6564703 -1.000046 0.06925433 0.4646798 1 0.06925433 0.4646798 -1.000046 0.0477032 0.4531605 1 0.0477032 0.4531605 -1.000046 0.1036464 0.6375806 1 0.1036464 0.6375806 -1.000046 0.02431887 0.4460669 1 0.02431887 0.4460669 -1.000046 -0.0477032 0.4531605 1 -0.0477032 0.4531605 -1.000046 -0.1246545 0.5683262 1 -0.1246545 0.5683262 -1.000046 -0.0477032 0.683492 1 -0.0477032 0.683492 -1.000046 -0.06925433 0.4646798 1 -0.06925433 0.4646798 -1.000046 0.1222593 0.5440074 1 0.1222593 0.5440074 -1.000046 0.08814406 0.4801822 1 0.08814406 0.4801822 -1.000046 0.1151657 0.520623 1 0.1151657 0.520623 -1.000046 0.1246545 0.5683262 1 0.1246545 0.5683262 -1.000046 -0.08814406 0.6564703 1 -0.08814406 0.6564703 -1.000046 -0.06925433 0.6719727 1 -0.06925433 0.6719728 -1.000046 0 0.4436717 1 0 0.4436717 -1.000046 0 0.6929808 1 0 0.6929808 -1.000046 0.1222593 0.5926451 1 0.1222593 0.5926452 -1.000046 0.06925433 0.6719727 1 0.06925433 0.6719728 -1.000046 0.1151657 0.6160295 1 0.1151657 0.6160295 -1.000046 -0.1151657 0.520623 1 -0.1151657 0.520623 -1.000046 -0.1036464 0.4990718 1 -0.1036464 0.4990718 -1.000046 -0.1222593 0.5440074 1 -0.1222593 0.5440074 -1.000046 -0.088144 0.4801822 1 -0.088144 0.4801822 -1.000046 -0.02431887 0.4460669 1 -0.02431887 0.4460669 -1.000046 0.1036464 0.4990719 1 0.1036464 0.4990719 -1.000046 -0.02431887 0.6905856 1 -0.02431887 0.6905856 -1.000046</float_array>
          <technique_common>
            <accessor source="#Cube-mesh-positions-array" count="136" stride="3">
              <param name="X" type="float"/>
              <param name="Y" type="float"/>
              <param name="Z" type="float"/>
            </accessor>
          </technique_common>
        </source>
        <source id="Cube-mesh-normals">
          <float_array id="Cube-mesh-normals-array" count="594">-1 0 0 0 1 0 1 0 0 0 -1 0 -1.20884e-5 1.12887e-4 -1 0 0 1 -0.9951847 0.09801787 0 -0.7730096 0.6343944 0 -0.8819216 0.4713961 0 0.9951847 -0.09801715 0 -0.9569405 -0.2902843 0 -0.9951847 -0.09801715 0 -0.7730109 -0.6343929 0 0.09801578 -0.995185 0 0.09801292 0.9951852 0 0.8819209 -0.4713973 0 -0.0980128 0.9951852 0 0.2902842 -0.9569405 0 -0.6343924 -0.7730113 0 0.4713973 0.881921 0 -0.4713978 -0.8819207 0 -0.6343941 0.7730098 0 0.6343948 -0.7730092 0 0.9569405 -0.2902845 0 1.01182e-5 -7.89473e-5 -1 -0.4713957 0.8819218 0 0.6343927 0.773011 0 0.881921 0.4713972 0 -0.09801578 -0.995185 0 -0.8819214 -0.4713968 0 0.9951847 0.09801715 0 -0.9569405 0.2902843 0 0.2902868 0.9569397 0 0.4713975 -0.8819209 0 -0.2902842 -0.9569405 0 -0.290287 0.9569398 0 0.9569405 0.2902843 0 0.7730104 -0.6343935 0 0.77301 0.6343939 0 -0.9951847 0.09801745 0 -0.7730106 0.6343933 0 -0.8819214 0.4713967 0 0.9951848 -0.09801697 0 -0.9569403 -0.290285 0 -0.9951848 -0.09801757 0 -0.7730098 -0.6343941 0 0.09801763 -0.9951847 0 0.09801763 0.9951847 0 0.8819218 -0.4713957 0 -0.09801751 0.9951847 0 0.2902842 -0.9569405 0 -0.6343947 -0.7730094 0 0.4713965 0.8819215 0 -0.4713948 -0.8819224 0 -0.6343932 0.7730106 0 0.6343947 -0.7730094 0 0.9569403 -0.2902849 0 -6.20493e-5 -1.878e-5 -1 -0.4713969 0.8819212 0 0.6343938 0.7730101 0 0.8819205 0.4713981 0 -0.09801757 -0.9951848 0 -0.881922 -0.4713957 0 0.9951847 0.09801805 0 -0.9569407 0.2902836 0 0.2902842 0.9569405 0 0.4713947 -0.8819224 0 -0.2902842 -0.9569405 0 -0.2902842 0.9569405 0 0.9569409 0.290283 0 0.7730095 -0.6343945 0 0.7730103 0.6343935 0 4.90667e-5 4.91195e-6 -1 4.56614e-5 1.38682e-5 -1 -4.80654e-5 4.91195e-6 -1 -4.58204e-5 1.38682e-5 -1 4.09124e-5 2.2446e-5 -1 3.96479e-5 3.14696e-5 -1 -4.05951e-5 2.24459e-5 -1 -3.96479e-5 3.14696e-5 -1 3.41368e-5 4.19244e-5 -1 2.91058e-5 5.54519e-5 -1 -3.46787e-5 4.19244e-5 -1 -3.01528e-5 5.54518e-5 -1 2.48018e-5 7.56149e-5 -1 1.01523e-5 1.12887e-4 -1 -2.52623e-5 7.5615e-5 -1 0 1.49099e-4 -1 -1.54013e-7 0 1 9.37502e-6 0 1 6.47888e-6 0 1 -8.34906e-6 0 1 7.93524e-6 0 1 3.55487e-6 0 1 -0.9951847 0.09801715 0 -0.7730106 0.6343932 0 -0.8819216 0.4713962 0 0.9951847 -0.09801715 0 -0.9569405 -0.2902843 0 -0.9951847 -0.09801787 0 -0.7730106 -0.6343932 0 0.09801727 -0.9951847 0 0.09801584 0.9951849 0 0.8819209 -0.4713974 0 -0.09801572 0.995185 0 0.2902841 -0.9569406 0 -0.6343934 -0.7730104 0 0.4713976 0.8819208 0 -0.4713968 -0.8819214 0 -0.6343939 0.77301 0 0.6343938 -0.7730101 0 -5.6741e-5 -4.79507e-6 -1 -4.04529e-5 -1.31523e-5 -1 5.46315e-5 -4.66489e-6 -1 3.94718e-5 -1.28334e-5 -1 -3.83439e-5 -2.07074e-5 -1 -3.47256e-5 -2.8199e-5 -1 3.83671e-5 -2.02569e-5 -1 3.33597e-5 -2.76543e-5 -1 -2.9691e-5 -3.63297e-5 -1 -2.59078e-5 -4.60438e-5 -1 2.94679e-5 -3.57187e-5 -1 2.6266e-5 -4.54042e-5 -1 0 -9.53556e-5 -1 -1.61703e-5 -5.90459e-5 -1 -1.05208e-5 -7.93008e-5 -1 1.558e-5 -5.84458e-5 -1 -0.4713959 0.8819218 0 0.634393 0.7730106 0 0.8819216 0.4713962 0 -0.09801721 -0.9951847 0 -0.8819213 -0.4713968 0 0.9951847 0.09801715 0 0.2902842 0.9569405 0 0.4713964 -0.8819215 0 -0.2902843 -0.9569405 0 -0.2902842 0.9569406 0 0.9569405 0.2902843 0 0.7730106 -0.6343932 0 3.03509e-6 0 1 -2.74051e-6 0 1 2.77997e-6 0 1 0.7730104 0.6343935 0 -0.9951847 0.09801781 0 -0.7730108 0.6343929 0 0.9951847 -0.09801781 0 -0.9569405 -0.2902843 0 -0.9951847 -0.09801721 0 -0.7730106 -0.6343933 0 0.09801763 -0.9951847 0 0.09801763 0.9951848 0 0.8819214 -0.4713968 0 -0.09801751 0.9951847 0 0.2902842 -0.9569405 0 -0.6343935 -0.7730104 0 0.4713966 0.8819215 0 -0.4713968 -0.8819212 0 -0.6343932 0.7730106 0 0.6343932 -0.7730106 0 0.9569405 -0.2902842 0 5.59156e-5 -5.41344e-6 -1 4.99903e-5 0 -1 4.88799e-5 5.29535e-6 -1 5.87e-5 1.90851e-5 -1 6.20493e-5 -1.878e-5 -1 7.4797e-5 -3.89241e-5 -1 5.15943e-5 -1.215e-6 -1 0 0 -1 9.37503e-6 0 -1 1.344e-6 0 -1 -4.3496e-7 0 -1 -8.44504e-6 0 -1 6.46676e-6 0 -1 -7.73171e-6 0 -1 6.68592e-6 0 -1 -7.91226e-6 0 -1 8.34905e-6 0 -1 -1.39616e-6 0 -1 -9.02325e-6 0 -1 9.40391e-6 0 -1 -7.03971e-5 -3.89243e-5 -1 -5.1187e-5 3.31425e-7 -1 -4.97682e-5 5.46379e-6 -1 -5.21966e-5 1.97989e-5 -1 -5.13963e-5 0 -1 -5.70193e-5 -5.41346e-6 -1 -0.4713968 0.8819212 0 0.8819214 0.4713967 0 -0.09801757 -0.9951848 0 -0.8819214 -0.4713967 0 0.9951847 0.09801721 0 -0.9569405 0.2902843 0 0.2902842 0.9569405 0 0.4713965 -0.8819215 0 -0.2902842 0.9569405 0 0.9569407 0.2902837 0 0.7730108 -0.6343929 0 0.7730095 0.6343945 0</float_array>
          <technique_common>
            <accessor source="#Cube-mesh-normals-array" count="198" stride="3">
              <param name="X" type="float"/>
              <param name="Y" type="float"/>
              <param name="Z" type="float"/>
            </accessor>
          </technique_common>
        </source>
        <source id="Cube-mesh-map-0">
          <float_array id="Cube-mesh-map-0-array" count="1656">0.5297081 0.6798085 0.5015419 0.6951915 0.5015419 0.6798085 0.5050671 0.6882313 0.4949329 0.7180187 0.4949329 0.6882313 0.512697 0.6925687 0.487303 0.7136813 0.487303 0.6925687 0.5121068 0.7203834 0.4878931 0.7483666 0.4878931 0.7203834 0.5000001 0.1535096 0.5121594 0.1547071 1 0 1 0 1 1 0.5546727 0.6879655 0.71875 0.7505 0.75 0.7495 0.71875 0.7495 0.625 0.7505 0.65625 0.7495 0.625 0.7495 0.65625 0.7505 0.6875 0.7495 0.65625 0.7495 0.21875 0.7505 0.25 0.7495 0.21875 0.7495 0.78125 0.7505 0.8125 0.7495 0.78125 0.7495 0.75 0.7505 0.78125 0.7495 0.75 0.7495 0.84375 0.7505 0.875 0.7495 0.84375 0.7495 0 0.7505 0.03125 0.7495 0 0.7495 0.46875 0.7505 0.5 0.7495 0.46875 0.7495 0.15625 0.7505 0.1875 0.7495 0.15625 0.7495 0.5 0.7505 0.53125 0.7495 0.5 0.7495 0.03125 0.7505 0.0625 0.7495 0.03125 0.7495 0.875 0.7505 0.90625 0.7495 0.875 0.7495 0.40625 0.7505 0.4375 0.7495 0.40625 0.7495 0.90625 0.7505 0.9375 0.7495 0.90625 0.7495 0.59375 0.7505 0.625 0.7495 0.59375 0.7495 0.09375 0.7505 0.125 0.7495 0.09375 0.7495 0.1875 0.7505 0.21875 0.7495 0.1875 0.7495 0.5065608 0.7599703 0.4964012 0.7589697 0 1 0.5625 0.7505 0.59375 0.7495 0.5625 0.7495 0.375 0.7505 0.40625 0.7495 0.375 0.7495 0.3125 0.7505 0.34375 0.7495 0.3125 0.7495 0.96875 0.7505 1 0.7495 0.96875 0.7495 0.8125 0.7505 0.84375 0.7495 0.8125 0.7495 0.25 0.7505 0.28125 0.7495 0.25 0.7495 0.6875 0.7505 0.71875 0.7495 0.6875 0.7495 0.4375 0.7505 0.46875 0.7495 0.4375 0.7495 0.0625 0.7505 0.09375 0.7495 0.0625 0.7495 0.9375 0.7505 0.96875 0.7495 0.9375 0.7495 0.53125 0.7505 0.5625 0.7495 0.53125 0.7495 0.28125 0.7505 0.3125 0.7495 0.28125 0.7495 0.125 0.7505 0.15625 0.7495 0.125 0.7495 0.5065608 0.7599703 0.5167202 0.7589697 1 1 0.34375 0.7505 0.375 0.7495 0.34375 0.7495 0.71875 0.7505 0.75 0.7495 0.71875 0.7495 0.625 0.7505 0.65625 0.7495 0.625 0.7495 0.65625 0.7505 0.6875 0.7495 0.65625 0.7495 0.21875 0.7505 0.25 0.7495 0.21875 0.7495 0.78125 0.7505 0.8125 0.7495 0.78125 0.7495 0.75 0.7505 0.78125 0.7495 0.75 0.7495 0.84375 0.7505 0.875 0.7495 0.84375 0.7495 0 0.7505 0.03125 0.7495 0 0.7495 0.46875 0.7505 0.5 0.7495 0.46875 0.7495 0.15625 0.7505 0.1875 0.7495 0.15625 0.7495 0.5 0.7505 0.53125 0.7495 0.5 0.7495 0.03125 0.7505 0.0625 0.7495 0.03125 0.7495 0.875 0.7505 0.90625 0.7495 0.875 0.7495 0.40625 0.7505 0.4375 0.7495 0.40625 0.7495 0.90625 0.7505 0.9375 0.7495 0.90625 0.7495 0.59375 0.7505 0.625 0.7495 0.59375 0.7495 0.09375 0.7505 0.125 0.7495 0.09375 0.7495 0.1875 0.7505 0.21875 0.7495 0.1875 0.7495 0.5611296 0.2279962 0.5575829 0.2396885 1 0 0.5625 0.7505 0.59375 0.7495 0.5625 0.7495 0.375 0.7505 0.40625 0.7495 0.375 0.7495 0.3125 0.7505 0.34375 0.7495 0.3125 0.7495 0.96875 0.7505 1 0.7495 0.96875 0.7495 0.8125 0.7505 0.84375 0.7495 0.8125 0.7495 0.25 0.7505 0.28125 0.7495 0.25 0.7495 0.6875 0.7505 0.71875 0.7495 0.6875 0.7495 0.4375 0.7505 0.46875 0.7495 0.4375 0.7495 0.0625 0.7505 0.09375 0.7495 0.0625 0.7495 0.9375 0.7505 0.96875 0.7495 0.9375 0.7495 0.53125 0.7505 0.5625 0.7495 0.53125 0.7495 0.28125 0.7505 0.3125 0.7495 0.28125 0.7495 0.125 0.7505 0.15625 0.7495 0.125 0.7495 0.5000001 0.1535096 0.4878405 0.1547072 0 0 0.34375 0.7505 0.375 0.7495 0.34375 0.7495 0.5297081 0.6798085 0.5297081 0.6951915 0.5015419 0.6951915 0.5050671 0.6882313 0.5050671 0.7180187 0.4949329 0.7180187 0.512697 0.6925687 0.512697 0.7136813 0.487303 0.7136813 0.5121068 0.7203834 0.5121068 0.7483666 0.4878931 0.7483666 0 0 0.4376727 0.2158368 0.4388704 0.2036774 0 0 0.4388704 0.2036774 0.442417 0.1919853 0.5611297 0.2036774 0.5623274 0.2158369 1 0 0.5575828 0.1919852 0.5611297 0.2036774 1 0 0 0 0.442417 0.1919853 0.4481768 0.1812096 0 0 0.4481768 0.1812096 0.4559279 0.1717648 0.5518232 0.1812096 0.5575828 0.1919852 1 0 0.5440721 0.1717649 0.5518232 0.1812096 1 0 0 0 0.4559279 0.1717648 0.4653728 0.1640136 0 0 0.4653728 0.1640136 0.4761485 0.158254 0.5346271 0.1640136 0.5440721 0.1717649 1 0 0.5238517 0.158254 0.5346271 0.1640136 1 0 0 0 0.4761485 0.158254 0.4878406 0.1547072 0 0 0.4878406 0.1547072 0.5000001 0.1535096 0.5121594 0.1547071 0.5238517 0.158254 1 0 0 0 0.5000001 0.1535096 1 0 0 1 0 0 0.4584488 0.6879656 0 0 0.4376727 0.2158368 0.4388703 0.2279962 0 0 0.4388703 0.2279962 0.4424172 0.2396885 0.4554854 0.6977347 0.4544847 0.7078943 0 1 0.4584488 0.6879656 0.4554854 0.6977347 0 1 0 0 0.4424172 0.2396885 0.4481767 0.250464 0 0 0.4481767 0.250464 0.4584488 0.6879656 0.4632611 0.6789624 0.4584488 0.6879656 0.4481767 0.250464 0.4697374 0.6710709 0.4632611 0.6789624 0.455928 0.2599089 0.455928 0.2599089 0.4632611 0.6789624 0.4481767 0.250464 0.455928 0.2599089 0.4653728 0.2676602 0.4697374 0.6710709 0.4776288 0.6645946 0.4697374 0.6710709 0.4653728 0.2676602 0.4776288 0.6645946 0.4653728 0.2676602 0.4761483 0.2734197 0.4866321 0.6597822 0.4776288 0.6645946 0.4761483 0.2734197 0.4866321 0.6597822 0.4761483 0.2734197 0.4878405 0.2769665 0.4964012 0.6568188 0.4866321 0.6597822 0.4878405 0.2769665 0.4964012 0.6568188 0.4878405 0.2769665 0.5 0.2781641 0.5065608 0.6558182 0.4964012 0.6568188 0.5 0.2781641 0.5065608 0.6558182 0.5 0.2781641 0.5121594 0.2769665 0.5167203 0.6568188 0.5065608 0.6558182 0.5121594 0.2769665 0.5167203 0.6568188 0.5121594 0.2769665 0.5238516 0.2734197 0.5264894 0.6597822 0.5167203 0.6568188 0.5238516 0.2734197 0.5264894 0.6597822 0.5238516 0.2734197 0.5346273 0.2676602 0.5354927 0.6645946 0.5264894 0.6597822 0.5346273 0.2676602 0.5354927 0.6645946 0.5346273 0.2676602 0.544072 0.2599089 0.5433841 0.6710709 0.5354927 0.6645946 0.544072 0.2599089 0.5433841 0.6710709 0.544072 0.2599089 0.5498604 0.6789624 0.544072 0.2599089 0.5518233 0.2504641 0.5498604 0.6789624 0.5498604 0.6789624 0.5518233 0.2504641 0.5546727 0.6879655 0.5518233 0.2504641 0.5575829 0.2396885 1 0 0.5546727 0.6879655 0.5518233 0.2504641 1 0 0.5611297 0.2279963 0.5623272 0.2158369 1 0 0.5575829 0.2396885 0.5611297 0.2279963 1 0 1 1 0.5586368 0.7078943 0.5576362 0.6977347 0.5576362 0.6977347 0.5546727 0.6879655 1 1 0.71875 0.7505 0.75 0.7505 0.75 0.7495 0.625 0.7505 0.65625 0.7505 0.65625 0.7495 0.65625 0.7505 0.6875 0.7505 0.6875 0.7495 0.21875 0.7505 0.25 0.7505 0.25 0.7495 0.78125 0.7505 0.8125 0.7505 0.8125 0.7495 0.75 0.7505 0.78125 0.7505 0.78125 0.7495 0.84375 0.7505 0.875 0.7505 0.875 0.7495 0 0.7505 0.03125 0.7505 0.03125 0.7495 0.46875 0.7505 0.5 0.7505 0.5 0.7495 0.15625 0.7505 0.1875 0.7505 0.1875 0.7495 0.5 0.7505 0.53125 0.7505 0.53125 0.7495 0.03125 0.7505 0.0625 0.7505 0.0625 0.7495 0.875 0.7505 0.90625 0.7505 0.90625 0.7495 0.40625 0.7505 0.4375 0.7505 0.4375 0.7495 0.90625 0.7505 0.9375 0.7505 0.9375 0.7495 0.59375 0.7505 0.625 0.7505 0.625 0.7495 0.09375 0.7505 0.125 0.7505 0.125 0.7495 0.1875 0.7505 0.21875 0.7505 0.21875 0.7495 1 1 0.5586369 0.7078943 0.5576362 0.7180538 1 1 0.5576362 0.7180538 0.5546728 0.7278229 0.4554854 0.7180538 0.4544847 0.7078942 0 1 0.4584487 0.7278229 0.4554854 0.7180538 0 1 1 1 0.5546728 0.7278229 0.5498604 0.7368262 1 1 0.5498604 0.7368262 0.5433841 0.7447176 0.4632611 0.7368262 0.4584487 0.7278229 0 1 0.4697374 0.7447176 0.4632611 0.7368262 0 1 1 1 0.5433841 0.7447176 0.5354927 0.751194 1 1 0.5354927 0.751194 0.5264894 0.7560063 0.4776288 0.7511939 0.4697374 0.7447176 0 1 0.4866321 0.7560063 0.4776288 0.7511939 0 1 0 1 1 1 0.5065608 0.7599703 1 1 0.5264894 0.7560063 0.5167203 0.7589697 1 1 0.5167203 0.7589697 0.5065608 0.7599703 0.4964012 0.7589697 0.4866321 0.7560063 0 1 0.5625 0.7505 0.59375 0.7505 0.59375 0.7495 0.375 0.7505 0.40625 0.7505 0.40625 0.7495 0.3125 0.7505 0.34375 0.7505 0.34375 0.7495 0.96875 0.7505 1 0.7505 1 0.7495 0.8125 0.7505 0.84375 0.7505 0.84375 0.7495 0.25 0.7505 0.28125 0.7505 0.28125 0.7495 0.6875 0.7505 0.71875 0.7505 0.71875 0.7495 0.4375 0.7505 0.46875 0.7505 0.46875 0.7495 0.0625 0.7505 0.09375 0.7505 0.09375 0.7495 0.9375 0.7505 0.96875 0.7505 0.96875 0.7495 0.53125 0.7505 0.5625 0.7505 0.5625 0.7495 0.28125 0.7505 0.3125 0.7505 0.3125 0.7495 0.125 0.7505 0.15625 0.7505 0.15625 0.7495 0 1 0.4544847 0.7078943 0.4554854 0.7180538 0 1 0.4554854 0.7180538 0.4584487 0.7278229 0.5576362 0.7180538 0.5586368 0.7078943 1 1 0.5546727 0.7278229 0.5576362 0.7180538 1 1 0 1 0.4584487 0.7278229 0.4632611 0.7368262 0 1 0.4632611 0.7368262 0.4697374 0.7447176 0.5498604 0.7368262 0.5546727 0.7278229 1 1 0.5433841 0.7447176 0.5498604 0.7368262 1 1 0 1 0.4697374 0.7447176 0.4776288 0.751194 0 1 0.4776288 0.751194 0.4866321 0.7560063 0.5354927 0.751194 0.5433841 0.7447176 1 1 0.5264894 0.7560063 0.5354927 0.751194 1 1 1 1 0 1 0.5065608 0.7599703 0 1 0.4866321 0.7560063 0.4964012 0.7589697 0 1 0.4964012 0.7589697 0.5065608 0.7599703 0.5167202 0.7589697 0.5264894 0.7560063 1 1 0.34375 0.7505 0.375 0.7505 0.375 0.7495 0.71875 0.7505 0.75 0.7505 0.75 0.7495 0.625 0.7505 0.65625 0.7505 0.65625 0.7495 0.65625 0.7505 0.6875 0.7505 0.6875 0.7495 0.21875 0.7505 0.25 0.7505 0.25 0.7495 0.78125 0.7505 0.8125 0.7505 0.8125 0.7495 0.75 0.7505 0.78125 0.7505 0.78125 0.7495 0.84375 0.7505 0.875 0.7505 0.875 0.7495 0 0.7505 0.03125 0.7505 0.03125 0.7495 0.46875 0.7505 0.5 0.7505 0.5 0.7495 0.15625 0.7505 0.1875 0.7505 0.1875 0.7495 0.5 0.7505 0.53125 0.7505 0.53125 0.7495 0.03125 0.7505 0.0625 0.7505 0.0625 0.7495 0.875 0.7505 0.90625 0.7505 0.90625 0.7495 0.40625 0.7505 0.4375 0.7505 0.4375 0.7495 0.90625 0.7505 0.9375 0.7505 0.9375 0.7495 0.59375 0.7505 0.625 0.7505 0.625 0.7495 0.09375 0.7505 0.125 0.7505 0.125 0.7495 0.1875 0.7505 0.21875 0.7505 0.21875 0.7495 0.4388703 0.2279962 0.4376727 0.2158368 0 0 0 0 0 1 0.4584487 0.6879656 0 1 0.4544847 0.7078942 0.4554854 0.6977347 0 1 0.4554854 0.6977347 0.4584487 0.6879656 0.4424171 0.2396885 0.4388703 0.2279962 0 0 0.4481768 0.250464 0.4424171 0.2396885 0 0 0 0 0.4584487 0.6879656 0.4481768 0.250464 0.4584487 0.6879656 0.4632611 0.6789624 0.4481768 0.250464 0.455928 0.259909 0.4481768 0.250464 0.4632611 0.6789624 0.455928 0.259909 0.4632611 0.6789624 0.4697374 0.6710709 0.4653728 0.2676601 0.455928 0.259909 0.4697374 0.6710709 0.4653728 0.2676601 0.4697374 0.6710709 0.4776288 0.6645945 0.4653728 0.2676601 0.4776288 0.6645945 0.4761483 0.2734197 0.4776288 0.6645945 0.4866321 0.6597822 0.4761483 0.2734197 0.4761483 0.2734197 0.4866321 0.6597822 0.4878405 0.2769665 0.4866321 0.6597822 0.4964012 0.6568188 0.4878405 0.2769665 0.4878405 0.2769665 0.4964012 0.6568188 0.5 0.2781641 0.4964012 0.6568188 0.5065608 0.6558181 0.5 0.2781641 0.5 0.2781641 0.5065608 0.6558181 0.5121594 0.2769666 0.5065608 0.6558181 0.5167203 0.6568188 0.5121594 0.2769666 0.5121594 0.2769666 0.5167203 0.6568188 0.5238515 0.2734197 0.5167203 0.6568188 0.5264894 0.6597822 0.5238515 0.2734197 0.5238515 0.2734197 0.5264894 0.6597822 0.5346272 0.2676602 0.5264894 0.6597822 0.5354927 0.6645946 0.5346272 0.2676602 0.5346272 0.2676602 0.5354927 0.6645946 0.544072 0.2599089 0.5354927 0.6645946 0.5433841 0.6710709 0.544072 0.2599089 0.544072 0.2599089 0.5433841 0.6710709 0.5498605 0.6789624 0.5518231 0.250464 0.544072 0.2599089 0.5498605 0.6789624 0.5518231 0.250464 0.5498605 0.6789624 0.5546728 0.6879656 0.5575829 0.2396885 0.5518231 0.250464 1 0 0.5518231 0.250464 0.5546728 0.6879656 1 0 0.5576362 0.6977347 0.5586369 0.7078943 1 1 0.5546728 0.6879656 0.5576362 0.6977347 1 1 1 0 0.5546728 0.6879656 1 1 1 0 0.5623274 0.2158369 0.5611296 0.2279962 0.5625 0.7505 0.59375 0.7505 0.59375 0.7495 0.375 0.7505 0.40625 0.7505 0.40625 0.7495 0.3125 0.7505 0.34375 0.7505 0.34375 0.7495 0.96875 0.7505 1 0.7505 1 0.7495 0.8125 0.7505 0.84375 0.7505 0.84375 0.7495 0.25 0.7505 0.28125 0.7505 0.28125 0.7495 0.6875 0.7505 0.71875 0.7505 0.71875 0.7495 0.4375 0.7505 0.46875 0.7505 0.46875 0.7495 0.0625 0.7505 0.09375 0.7505 0.09375 0.7495 0.9375 0.7505 0.96875 0.7505 0.96875 0.7495 0.53125 0.7505 0.5625 0.7505 0.5625 0.7495 0.28125 0.7505 0.3125 0.7505 0.3125 0.7495 0.125 0.7505 0.15625 0.7505 0.15625 0.7495 1 0 0.5623272 0.2158369 0.5611297 0.2036774 1 0 0.5611297 0.2036774 0.5575829 0.1919853 0.4388703 0.2036774 0.4376727 0.2158368 0 0 0.4424171 0.1919853 0.4388703 0.2036774 0 0 1 0 0.5575829 0.1919853 0.551823 0.1812096 1 0 0.551823 0.1812096 0.5440722 0.1717649 0.4481768 0.1812097 0.4424171 0.1919853 0 0 0.4559279 0.1717648 0.4481768 0.1812097 0 0 1 0 0.5440722 0.1717649 0.534627 0.1640136 1 0 0.534627 0.1640136 0.5238516 0.158254 0.4653728 0.1640136 0.4559279 0.1717648 0 0 0.4761485 0.158254 0.4653728 0.1640136 0 0 1 0 0.5238516 0.158254 0.5121594 0.1547071 1 0 0.5121594 0.1547071 0.5000001 0.1535096 0.4878405 0.1547072 0.4761485 0.158254 0 0 1 0 0.5000001 0.1535096 0 0 0.34375 0.7505 0.375 0.7505 0.375 0.7495</float_array>
          <technique_common>
            <accessor source="#Cube-mesh-map-0-array" count="828" stride="2">
              <param name="S" type="float"/>
              <param name="T" type="float"/>
            </accessor>
          </technique_common>
        </source>
        <vertices id="Cube-mesh-vertices">
          <input semantic="POSITION" source="#Cube-mesh-positions"/>
        </vertices>
        <triangles material="Material_001-material" count="276">
          <input semantic="VERTEX" source="#Cube-mesh-vertices" offset="0"/>
          <input semantic="NORMAL" source="#Cube-mesh-normals" offset="1"/>
          <input semantic="TEXCOORD" source="#Cube-mesh-map-0" offset="2" set="0"/>
          <p>1 0 0 2 0 1 0 0 2 3 1 3 6 1 4 2 1 5 7 2 6 4 2 7 6 2 8 5 3 9 0 3 10 4 3 11 115 4 12 135 4 13 2 4 14 3 5 15 1 5 16 8 5 17 36 6 18 43 6 19 37 6 20 38 7 21 69 7 22 39 7 23 68 8 24 41 8 25 69 8 26 16 9 27 31 9 28 17 9 29 52 10 30 57 10 31 53 10 32 42 11 33 53 11 34 43 11 35 24 12 36 19 12 37 25 12 38 50 13 39 71 13 40 51 13 41 66 14 42 49 14 43 67 14 44 10 15 45 9 15 46 11 15 47 48 16 48 27 16 49 49 16 50 70 17 51 33 17 52 71 17 53 18 18 54 55 18 55 19 18 56 34 19 57 29 19 58 35 19 59 54 20 60 13 20 61 55 20 62 20 21 63 39 21 64 21 21 65 46 22 66 45 22 67 47 22 68 8 23 69 17 23 70 9 23 71 49 24 72 27 24 73 4 24 74 22 25 75 21 25 76 23 25 77 64 26 78 35 26 79 65 26 80 58 27 81 61 27 82 59 27 83 14 28 84 51 28 85 15 28 86 56 29 87 25 29 88 57 29 89 30 30 90 63 30 91 31 30 92 40 31 93 37 31 94 41 31 95 28 32 96 67 32 97 29 32 98 32 33 99 47 33 100 33 33 101 12 34 102 15 34 103 13 34 104 26 35 105 23 35 106 27 35 107 62 36 108 59 36 109 63 36 110 44 37 111 11 37 112 45 37 113 48 5 114 66 5 115 1 5 116 60 38 117 65 38 118 61 38 119 100 39 120 107 39 121 101 39 122 102 40 123 133 40 124 103 40 125 132 41 126 105 41 127 133 41 128 80 42 129 95 42 130 81 42 131 116 43 132 121 43 133 117 43 134 106 44 135 117 44 136 107 44 137 88 45 138 83 45 139 89 45 140 114 46 141 135 46 142 115 46 143 130 47 144 113 47 145 131 47 146 74 48 147 73 48 148 75 48 149 112 49 150 91 49 151 113 49 152 134 50 153 97 50 154 135 50 155 82 51 156 119 51 157 83 51 158 98 52 159 93 52 160 99 52 161 118 53 162 77 53 163 119 53 164 84 54 165 103 54 166 85 54 167 110 55 168 109 55 169 111 55 170 72 56 171 81 56 172 73 56 173 127 57 174 123 57 175 2 57 176 86 58 177 85 58 178 87 58 179 128 59 180 99 59 181 129 59 182 122 60 183 125 60 184 123 60 185 78 61 186 115 61 187 79 61 188 120 62 189 89 62 190 121 62 191 94 63 192 127 63 193 95 63 194 104 64 195 101 64 196 105 64 197 92 65 198 131 65 199 93 65 200 96 66 201 111 66 202 97 66 203 76 67 204 79 67 205 77 67 206 90 68 207 87 68 208 91 68 209 126 69 210 123 69 211 127 69 212 108 70 213 75 70 214 109 70 215 114 5 216 78 5 217 7 5 218 124 71 219 129 71 220 125 71 221 1 0 222 3 0 223 2 0 224 3 1 225 7 1 226 6 1 227 7 2 228 5 2 229 4 2 230 5 3 231 1 3 232 0 3 233 6 72 234 107 72 235 117 72 236 6 73 237 117 73 238 121 73 239 81 74 240 95 74 241 2 74 242 73 75 243 81 75 244 2 75 245 6 76 246 121 76 247 89 76 248 6 77 249 89 77 250 83 77 251 75 78 252 73 78 253 2 78 254 109 79 255 75 79 256 2 79 257 6 80 258 83 80 259 119 80 260 6 81 261 119 81 262 77 81 263 111 82 264 109 82 265 2 82 266 97 83 267 111 83 268 2 83 269 6 84 270 77 84 271 79 84 272 6 85 273 79 85 274 115 85 275 135 86 276 97 86 277 2 86 278 6 87 279 115 87 280 2 87 281 5 5 282 7 5 283 56 5 284 7 5 285 106 5 286 100 5 287 7 5 288 100 5 289 104 5 290 52 5 291 42 5 292 5 5 293 56 5 294 52 5 295 5 5 296 7 5 297 104 5 298 132 5 299 7 88 300 132 88 301 56 88 302 24 5 303 56 5 304 132 5 305 18 5 306 24 5 307 102 5 308 102 89 309 24 89 310 132 89 311 102 5 312 84 5 313 18 5 314 54 5 315 18 5 316 84 5 317 54 5 318 84 5 319 86 5 320 12 5 321 54 5 322 86 5 323 12 5 324 86 5 325 90 5 326 14 5 327 12 5 328 90 5 329 14 5 330 90 5 331 112 5 332 50 5 333 14 5 334 112 5 335 50 90 336 112 90 337 130 90 338 70 5 339 50 5 340 130 5 341 70 5 342 130 5 343 92 5 344 32 5 345 70 5 346 92 5 347 32 5 348 92 5 349 98 5 350 46 91 351 32 91 352 98 91 353 46 92 354 98 92 355 128 92 356 44 5 357 46 5 358 128 5 359 44 5 360 128 5 361 10 5 362 128 5 363 124 5 364 10 5 365 10 5 366 124 5 367 8 5 368 124 5 369 122 5 370 3 5 371 8 5 372 124 5 373 3 5 374 126 5 375 94 5 376 3 5 377 122 5 378 126 5 379 3 5 380 1 93 381 30 93 382 16 93 383 16 5 384 8 5 385 1 5 386 36 94 387 42 94 388 43 94 389 38 95 390 68 95 391 69 95 392 68 96 393 40 96 394 41 96 395 16 97 396 30 97 397 31 97 398 52 98 399 56 98 400 57 98 401 42 99 402 52 99 403 53 99 404 24 100 405 18 100 406 19 100 407 50 101 408 70 101 409 71 101 410 66 102 411 48 102 412 49 102 413 10 103 414 8 103 415 9 103 416 48 104 417 26 104 418 27 104 419 70 105 420 32 105 421 33 105 422 18 106 423 54 106 424 55 106 425 34 107 426 28 107 427 29 107 428 54 108 429 12 108 430 13 108 431 20 109 432 38 109 433 39 109 434 46 110 435 44 110 436 45 110 437 8 23 438 16 23 439 17 23 440 0 111 441 31 111 442 63 111 443 0 112 444 63 112 445 59 112 446 37 113 447 43 113 448 4 113 449 41 114 450 37 114 451 4 114 452 0 115 453 59 115 454 61 115 455 0 116 456 61 116 457 65 116 458 69 117 459 41 117 460 4 117 461 39 118 462 69 118 463 4 118 464 0 119 465 65 119 466 35 119 467 0 120 468 35 120 469 29 120 470 21 121 471 39 121 472 4 121 473 23 122 474 21 122 475 4 122 476 4 123 477 0 123 478 49 123 479 0 124 480 29 124 481 67 124 482 0 125 483 67 125 484 49 125 485 27 126 486 23 126 487 4 126 488 22 127 489 20 127 490 21 127 491 64 128 492 34 128 493 35 128 494 58 129 495 60 129 496 61 129 497 14 130 498 50 130 499 51 130 500 56 131 501 24 131 502 25 131 503 30 132 504 62 132 505 63 132 506 40 31 507 36 31 508 37 31 509 28 133 510 66 133 511 67 133 512 32 134 513 46 134 514 47 134 515 12 135 516 14 135 517 15 135 518 26 136 519 22 136 520 23 136 521 62 137 522 58 137 523 59 137 524 44 138 525 10 138 526 11 138 527 5 139 528 42 139 529 36 139 530 5 5 531 36 5 532 40 5 533 62 5 534 30 5 535 1 5 536 58 5 537 62 5 538 1 5 539 5 140 540 40 140 541 68 140 542 5 141 543 68 141 544 38 141 545 60 5 546 58 5 547 1 5 548 64 5 549 60 5 550 1 5 551 5 5 552 38 5 553 20 5 554 5 5 555 20 5 556 22 5 557 34 5 558 64 5 559 1 5 560 28 5 561 34 5 562 1 5 563 1 5 564 5 5 565 48 5 566 5 5 567 22 5 568 26 5 569 5 5 570 26 5 571 48 5 572 66 5 573 28 5 574 1 5 575 60 142 576 64 142 577 65 142 578 100 143 579 106 143 580 107 143 581 102 144 582 132 144 583 133 144 584 132 41 585 104 41 586 105 41 587 80 145 588 94 145 589 95 145 590 116 146 591 120 146 592 121 146 593 106 147 594 116 147 595 117 147 596 88 148 597 82 148 598 83 148 599 114 149 600 134 149 601 135 149 602 130 150 603 112 150 604 113 150 605 74 151 606 72 151 607 73 151 608 112 152 609 90 152 610 91 152 611 134 153 612 96 153 613 97 153 614 82 154 615 118 154 616 119 154 617 98 155 618 92 155 619 93 155 620 118 156 621 76 156 622 77 156 623 84 157 624 102 157 625 103 157 626 110 158 627 108 158 628 109 158 629 72 159 630 80 159 631 81 159 632 101 160 633 107 160 634 6 160 635 6 161 636 4 161 637 57 161 638 4 162 639 43 162 640 53 162 641 4 163 642 53 163 643 57 163 644 105 164 645 101 164 646 6 164 647 133 165 648 105 165 649 6 165 650 6 166 651 57 166 652 133 166 653 57 167 654 25 167 655 133 167 656 103 168 657 133 168 658 25 168 659 103 169 660 25 169 661 19 169 662 85 167 663 103 167 664 19 167 665 85 170 666 19 170 667 55 170 668 85 167 669 55 167 670 87 167 671 55 171 672 13 171 673 87 171 674 87 167 675 13 167 676 91 167 677 13 167 678 15 167 679 91 167 680 91 172 681 15 172 682 113 172 683 15 167 684 51 167 685 113 167 686 113 167 687 51 167 688 131 167 689 51 173 690 71 173 691 131 173 692 131 174 693 71 174 694 93 174 695 71 175 696 33 175 697 93 175 698 93 167 699 33 167 700 99 167 701 33 176 702 47 176 703 99 176 704 99 167 705 47 167 706 129 167 707 47 167 708 45 167 709 129 167 710 129 177 711 45 177 712 11 177 713 125 178 714 129 178 715 11 178 716 125 179 717 11 179 718 9 179 719 123 180 720 125 180 721 2 180 722 125 181 723 9 181 724 2 181 725 17 182 726 31 182 727 0 182 728 9 183 729 17 183 730 0 183 731 2 184 732 9 184 733 0 184 734 2 185 735 95 185 736 127 185 737 86 186 738 84 186 739 85 186 740 128 59 741 98 59 742 99 59 743 122 187 744 124 187 745 125 187 746 78 188 747 114 188 748 115 188 749 120 189 750 88 189 751 89 189 752 94 190 753 126 190 754 127 190 755 104 191 756 100 191 757 101 191 758 92 192 759 130 192 760 131 192 761 96 193 762 110 193 763 111 193 764 76 34 765 78 34 766 79 34 767 90 194 768 86 194 769 87 194 770 126 195 771 122 195 772 123 195 773 108 196 774 74 196 775 75 196 776 3 5 777 94 5 778 80 5 779 3 5 780 80 5 781 72 5 782 116 5 783 106 5 784 7 5 785 120 5 786 116 5 787 7 5 788 3 5 789 72 5 790 74 5 791 3 5 792 74 5 793 108 5 794 88 5 795 120 5 796 7 5 797 82 5 798 88 5 799 7 5 800 3 5 801 108 5 802 110 5 803 3 5 804 110 5 805 96 5 806 118 5 807 82 5 808 7 5 809 76 5 810 118 5 811 7 5 812 3 5 813 96 5 814 134 5 815 3 5 816 134 5 817 114 5 818 78 5 819 76 5 820 7 5 821 3 5 822 114 5 823 7 5 824 124 197 825 128 197 826 129 197 827</p>
        </triangles>
      </mesh>
    </geometry>
  </library_geometries>
  <library_visual_scenes>
    <visual_scene id="Scene" name="Scene">
      <node id="Cube" name="Cube" type="NODE">
        <matrix sid="transform">0.609685 1.16492e-15 -8.74228e-11 0 2.66502e-8 -2.66502e-8 0.002 0 0 -0.609685 -8.74228e-11 0 0 0 0 1</matrix>
        <instance_geometry url="#Cube-mesh" name="Cube">
          <bind_material>
            <technique_common>
              <instance_material symbol="Material_001-material" target="#Material_001-material">
                <bind_vertex_input semantic="UVMap" input_semantic="TEXCOORD" input_set="0"/>
              </instance_material>
            </technique_common>
          </bind_material>
        </instance_geometry>
      </node>
    </visual_scene>
  </library_visual_scenes>
  <scene>
    <instance_visual_scene url="#Scene"/>
  </scene>
</COLLADA>