<?xml version="1.0" encoding="utf-8"?>
<COLLADA xmlns="http://www.collada.org/2005/11/COLLADASchema" version="1.4.1" xmlns:xsi="http://www.w3.org/2001/XMLSchema-instance">
  <asset>
    <contributor>
      <author>Blender User</author>
      <authoring_tool>Blender 4.2.1 LTS commit date:2024-08-19, commit time:11:21, hash:396f546c9d82</authoring_tool>
    </contributor>
    <created>2025-05-08T18:30:07</created>
    <modified>2025-05-08T18:30:07</modified>
    <unit name="meter" meter="1"/>
    <up_axis>Z_UP</up_axis>
  </asset>
  <library_effects>
    <effect id="Material_002-effect">
      <profile_COMMON>
        <newparam sid="Task04_Tagging_01_png-surface">
          <surface type="2D">
            <init_from>Task04_Tagging_01_png</init_from>
          </surface>
        </newparam>
        <newparam sid="Task04_Tagging_01_png-sampler">
          <sampler2D>
            <source>Task04_Tagging_01_png-surface</source>
          </sampler2D>
        </newparam>
        <technique sid="common">
          <lambert>
            <emission>
              <color sid="emission">0 0 0 1</color>
            </emission>
            <diffuse>
              <texture texture="Task04_Tagging_01_png-sampler" texcoord="UVMap"/>
            </diffuse>
            <index_of_refraction>
              <float sid="ior">1.5</float>
            </index_of_refraction>
          </lambert>
        </technique>
      </profile_COMMON>
    </effect>
  </library_effects>
  <library_images>
    <image id="Task04_Tagging_01_png" name="Task04_Tagging_01_png">
      <init_from>Task04_Tagging_01.png</init_from>
    </image>
  </library_images>
  <library_materials>
    <material id="Material_002-material" name="Material.002">
      <instance_effect url="#Material_002-effect"/>
    </material>
  </library_materials>
  <library_geometries>
    <geometry id="Cube_002-mesh" name="Cube.002">
      <mesh>
        <source id="Cube_002-mesh-positions">
          <float_array id="Cube_002-mesh-positions-array" count="408">-1 -1 -1 -1 -1 1 -1 1 -1 -1 1 1 1 -1 -1 1 -1 1 1 1 -1 1 1 1 -0.2717287 1 0.702773 -0.2685262 1 0.6702579 -0.2685262 1 0.735288 -0.2590419 1 0.6389924 -0.2436403 1 0.795368 -0.2436403 1 0.6101779 -0.2590419 1 0.7665535 -0.2229131 1 0.5849218 -0.197657 1 0.8413513 -0.137577 1 0.5393088 -0.1688426 1 0.5487931 -0.137577 1 0.8662372 -0.197657 1 0.5641947 -0.1688426 1 0.8567529 -0.2229131 1 0.8206241 -0.07254695 1 0.5393088 -0.07254695 1 0.8662372 -0.01246696 1 0.5641947 -0.01246696 1 0.8413513 -0.0412814 1 0.5487931 -0.0412814 1 0.8567529 0.03351622 1 0.6101779 0.03351622 1 0.795368 0.06160461 1 0.702773 0.05840218 1 0.735288 0.05840218 1 0.6702579 0.04891788 1 0.7665535 0.04891788 1 0.6389924 0.01278907 1 0.8206241 0.01278907 1 0.5849218 -0.105062 1 0.8694397 -0.105062 1 0.5361063 -0.2717287 -1 0.702773 -0.2685262 -1 0.6702579 -0.2685262 -1 0.735288 -0.2436403 -1 0.6101779 -0.2436403 -1 0.795368 -0.2590419 -1 0.6389924 -0.2590419 -1 0.7665535 -0.197657 -1 0.5641947 -0.197657 -1 0.8413513 -0.137577 -1 0.5393088 -0.137577 -1 0.8662372 -0.1688426 -1 0.5487931 -0.1688426 -1 0.8567529 -0.2229131 -1 0.5849218 -0.2229131 -1 0.8206241 -0.07254695 -1 0.5393088 -0.07254695 -1 0.8662372 -0.01246696 -1 0.5641947 -0.01246696 -1 0.8413513 -0.0412814 -1 0.5487931 -0.0412814 -1 0.8567529 0.03351622 -1 0.6101779 0.03351622 -1 0.795368 0.06160461 -1 0.702773 0.05840218 -1 0.6702579 0.05840218 -1 0.735288 0.04891788 -1 0.6389924 0.04891788 -1 0.7665535 0.01278907 -1 0.5849218 0.01278907 -1 0.8206241 -0.105062 -1 0.8694397 -0.105062 -1 0.5361063 0.1936426 1 -0.3027014 0.196845 1 -0.3352164 0.196845 1 -0.2701863 0.221731 1 -0.3952964 0.221731 1 -0.2101063 0.2063293 1 -0.3664819 0.2063293 1 -0.2389208 0.2677142 1 -0.4412796 0.2677142 1 -0.1641231 0.3277942 1 -0.4661656 0.3277942 1 -0.1392371 0.2965286 1 -0.4566813 0.2965286 1 -0.1487214 0.2424581 1 -0.4205525 0.2424581 1 -0.1848502 0.3928243 1 -0.4661656 0.3928243 1 -0.1392371 0.4529043 1 -0.4412796 0.4529043 1 -0.1641231 0.4240898 1 -0.4566813 0.4240898 1 -0.1487214 0.4988875 1 -0.3952964 0.4988875 1 -0.2101063 0.5269759 1 -0.3027014 0.5237734 1 -0.3352164 0.5237734 1 -0.2701863 0.5142892 1 -0.3664819 0.5142892 1 -0.2389208 0.4781604 1 -0.4205525 0.4781604 1 -0.1848502 0.3603093 1 -0.1360347 0.3603093 1 -0.4693681 0.1936426 -1 -0.3027014 0.196845 -1 -0.3352164 0.196845 -1 -0.2701863 0.221731 -1 -0.3952964 0.221731 -1 -0.2101063 0.2063293 -1 -0.3664819 0.2063293 -1 -0.2389208 0.2677142 -1 -0.4412796 0.2677142 -1 -0.1641231 0.3277942 -1 -0.4661656 0.3277942 -1 -0.1392371 0.2965286 -1 -0.4566813 0.2965286 -1 -0.1487214 0.2424581 -1 -0.4205525 0.2424581 -1 -0.1848502 0.3928243 -1 -0.4661656 0.3928243 -1 -0.1392371 0.4529043 -1 -0.4412796 0.4529043 -1 -0.1641231 0.4240898 -1 -0.4566813 0.4240898 -1 -0.1487214 0.4988875 -1 -0.3952964 0.4988875 -1 -0.2101063 0.5269759 -1 -0.3027014 0.5237734 -1 -0.3352164 0.5237734 -1 -0.2701863 0.5142892 -1 -0.3664819 0.5142892 -1 -0.2389208 0.4781604 -1 -0.4205525 0.4781604 -1 -0.1848502 0.3603093 -1 -0.1360347 0.3603093 -1 -0.4693681</float_array>
          <technique_common>
            <accessor source="#Cube_002-mesh-positions-array" count="136" stride="3">
              <param name="X" type="float"/>
              <param name="Y" type="float"/>
              <param name="Z" type="float"/>
            </accessor>
          </technique_common>
        </source>
        <source id="Cube_002-mesh-normals">
          <float_array id="Cube_002-mesh-normals-array" count="828">-1 0 0 0 1 0 0 1 0 0 1 0 1 0 0 0 -1 0 0 -1 0 0 -1 0 0 0 -1 0 0 1 -0.09801846 0 -0.9951846 -0.2902846 0 -0.9569403 -0.4713956 0 -0.881922 -0.6343937 0 -0.7730102 -0.7730106 0 -0.6343932 -0.8819214 0 -0.4713966 -0.9569402 0 -0.2902848 -0.9951847 0 -0.09801715 -0.9951847 0 0.09801715 -0.9569402 0 0.2902848 -0.8819214 0 0.4713966 -0.7730106 0 0.6343932 -0.6343937 0 0.7730102 -0.4713956 0 0.881922 -0.2902846 0 0.9569403 -0.09801846 0 0.9951846 0.09801846 0 0.9951846 0.2902846 0 0.9569404 0.4713956 0 0.881922 0.6343935 0 0.7730102 0.7730107 0 0.634393 0.8819214 0 0.4713966 0.9569402 0 0.2902848 0.9951846 0 0.09801757 0.9951846 0 -0.09801757 0.9569402 0 -0.2902848 0.8819214 0 -0.4713966 0.7730107 0 -0.634393 0.6343935 0 -0.7730102 0.4713956 0 -0.881922 0.2902846 0 -0.9569404 0.09801846 0 -0.9951846 -0.09801715 0 -0.9951847 -0.2902846 0 -0.9569404 -0.4713969 0 -0.8819211 -0.634393 0 -0.7730107 -0.7730107 0 -0.634393 -0.8819215 0 -0.4713962 -0.9569404 0 -0.2902846 -0.9951846 0 -0.09801846 -0.9951846 0 0.09801846 -0.9569404 0 0.2902846 -0.8819215 0 0.4713962 -0.7730107 0 0.634393 -0.634393 0 0.7730107 -0.4713969 0 0.8819211 -0.2902846 0 0.9569404 -0.09801757 0 0.9951846 0.09801757 0 0.9951846 0.2902846 0 0.9569404 0.4713969 0 0.8819211 0.634393 0 0.7730107 0.7730107 0 0.634393 0.8819211 0 0.4713969 0.9569404 0 0.2902846 0.9951847 0 0.09801715 0.9951847 0 -0.09801715 0.9569404 0 -0.2902846 0.8819211 0 -0.4713969 0.7730107 0 -0.634393 0.634393 0 -0.7730107 0.4713969 0 -0.8819211 0.2902846 0 -0.9569404 0.09801715 0 -0.9951847 -1 0 0 0 1 0 0 1 0 0 1 0 0 1 0 0 1 0 0 1 0 0 1 0 0 1 0 0 1 0 0 1 0 0 1 0 0 1 0 0 1 0 0 1 0 0 1 0 0 1 0 0 1 0 0 1 0 0 1 0 0 1 0 0 1 0 0 1 0 0 1 0 0 1 0 0 1 0 0 1 0 0 1 0 0 1 0 0 1 0 0 1 0 0 1 0 0 1 0 0 1 0 0 1 0 0 1 0 0 1 0 0 1 0 0 1 0 0 1 0 0 1 0 0 1 0 0 1 0 0 1 0 0 1 0 0 1 0 0 1 0 0 1 0 0 1 0 0 1 0 0 1 0 0 1 0 0 1 0 0 1 0 0 1 0 0 1 0 0 1 0 0 1 0 0 1 0 0 1 0 0 1 0 0 1 0 0 1 0 0 1 0 0 1 0 0 1 0 0 1 0 0 1 0 1 0 0 0 -1 0 0 -1 0 0 -1 0 0 -1 0 0 -1 0 0 -1 0 0 -1 0 0 -1 0 0 -1 0 0 -1 0 0 -1 0 0 -1 0 0 -1 0 0 -1 0 0 -1 0 0 -1 0 0 -1 0 0 -1 0 0 -1 0 0 -1 0 0 -1 0 0 -1 0 0 -1 0 0 -1 0 0 -1 0 0 -1 0 0 -1 0 0 -1 0 0 -1 0 0 -1 0 0 -1 0 0 -1 0 0 -1 0 0 -1 0 0 -1 0 0 -1 0 0 -1 0 0 -1 0 0 -1 0 0 -1 0 0 -1 0 0 -1 0 0 -1 0 0 -1 0 0 -1 0 0 -1 0 0 -1 0 0 -1 0 0 -1 0 0 -1 0 0 -1 0 0 -1 0 0 -1 0 0 -1 0 0 -1 0 0 -1 0 0 -1 0 0 -1 0 0 -1 0 0 -1 0 0 -1 0 0 -1 0 0 -1 0 0 -1 0 0 -1 0 0 -1 0 0 -1 0 0 0 -1 0 0 1 -0.09801846 0 -0.9951846 -0.2902846 0 -0.9569403 -0.4713956 0 -0.881922 -0.6343937 0 -0.7730102 -0.7730106 0 -0.6343932 -0.8819214 0 -0.4713966 -0.9569402 0 -0.2902848 -0.9951847 0 -0.09801715 -0.9951847 0 0.09801715 -0.9569402 0 0.2902848 -0.8819214 0 0.4713966 -0.7730106 0 0.6343932 -0.6343937 0 0.7730102 -0.4713956 0 0.881922 -0.2902846 0 0.9569403 -0.09801846 0 0.9951846 0.09801846 0 0.9951846 0.2902846 0 0.9569404 0.4713956 0 0.881922 0.6343935 0 0.7730102 0.7730107 0 0.634393 0.8819214 0 0.4713966 0.9569402 0 0.2902848 0.9951846 0 0.09801757 0.9951846 0 -0.09801757 0.9569402 0 -0.2902848 0.8819214 0 -0.4713966 0.7730107 0 -0.634393 0.6343935 0 -0.7730102 0.4713956 0 -0.881922 0.2902846 0 -0.9569404 0.09801846 0 -0.9951846 -0.09801715 0 -0.9951847 -0.2902846 0 -0.9569404 -0.4713969 0 -0.8819211 -0.634393 0 -0.7730107 -0.7730107 0 -0.634393 -0.8819215 0 -0.4713962 -0.9569404 0 -0.2902846 -0.9951846 0 -0.09801846 -0.9951846 0 0.09801846 -0.9569404 0 0.2902846 -0.8819215 0 0.4713962 -0.7730107 0 0.634393 -0.634393 0 0.7730107 -0.4713969 0 0.8819211 -0.2902846 0 0.9569404 -0.09801757 0 0.9951846 0.09801757 0 0.9951846 0.2902846 0 0.9569404 0.4713969 0 0.8819211 0.634393 0 0.7730107 0.7730107 0 0.634393 0.8819211 0 0.4713969 0.9569404 0 0.2902846 0.9951847 0 0.09801715 0.9951847 0 -0.09801715 0.9569404 0 -0.2902846 0.8819211 0 -0.4713969 0.7730107 0 -0.634393 0.634393 0 -0.7730107 0.4713969 0 -0.8819211 0.2902846 0 -0.9569404 0.09801715 0 -0.9951847</float_array>
          <technique_common>
            <accessor source="#Cube_002-mesh-normals-array" count="276" stride="3">
              <param name="X" type="float"/>
              <param name="Y" type="float"/>
              <param name="Z" type="float"/>
            </accessor>
          </technique_common>
        </source>
        <source id="Cube_002-mesh-map-0">
          <float_array id="Cube_002-mesh-map-0-array" count="1656">0.625 0 0.375 0.25 0.375 0 0.9990454 0.9987892 0.4634541 0.9315966 0.4472144 0.933184 0.9990454 0.9987892 0.7118486 0.4248974 0.5241977 0.8181526 0.9997736 -2.95937e-5 0.7632872 0.3480358 0.7616758 0.3642724 0.625 0.5 0.375 0.75 0.375 0.5 1.000061 0.9999082 0.7576487 0.3818597 0.7623786 0.3662599 0.002126753 0.0022794 0.6346207 0.2809232 0.6220221 0.2912653 0.4487456 0.9348573 0.4649663 0.9332569 1.000061 0.9999082 0.375 0.5 0.125 0.75 0.125 0.5 0.875 0.5 0.625 0.75 0.625 0.5 0.96875 0.725 1 0.775 1 0.725 0.9375 0.725 0.96875 0.775 0.96875 0.725 0.90625 0.725 0.9375 0.775 0.9375 0.725 0.875 0.725 0.90625 0.775 0.90625 0.725 0.875 0.725 0.84375 0.775 0.875 0.775 0.84375 0.725 0.8125 0.775 0.84375 0.775 0.8125 0.725 0.78125 0.775 0.8125 0.775 0.78125 0.725 0.75 0.775 0.78125 0.775 0.75 0.725 0.71875 0.775 0.75 0.775 0.71875 0.725 0.6875 0.775 0.71875 0.775 0.6875 0.725 0.65625 0.775 0.6875 0.775 0.65625 0.725 0.625 0.775 0.65625 0.775 0.625 0.725 0.59375 0.775 0.625 0.775 0.59375 0.725 0.5625 0.775 0.59375 0.775 0.5625 0.725 0.53125 0.775 0.5625 0.775 0.53125 0.725 0.5 0.775 0.53125 0.775 0.5 0.725 0.46875 0.775 0.5 0.775 0.46875 0.725 0.4375 0.775 0.46875 0.775 0.4375 0.725 0.40625 0.775 0.4375 0.775 0.40625 0.725 0.375 0.775 0.40625 0.775 0.34375 0.725 0.375 0.775 0.375 0.725 0.3125 0.725 0.34375 0.775 0.34375 0.725 0.28125 0.725 0.3125 0.775 0.3125 0.725 0.25 0.725 0.28125 0.775 0.28125 0.725 0.21875 0.725 0.25 0.775 0.25 0.725 0.1875 0.725 0.21875 0.775 0.21875 0.725 0.15625 0.725 0.1875 0.775 0.1875 0.725 0.125 0.725 0.15625 0.775 0.15625 0.725 0.09375 0.725 0.125 0.775 0.125 0.725 0.0625 0.725 0.09375 0.775 0.09375 0.725 0.03125 0.725 0.0625 0.775 0.0625 0.725 0 0.725 0.03125 0.775 0.03125 0.725 0.96875 0.725 1 0.775 1 0.725 0.9375 0.725 0.96875 0.775 0.96875 0.725 0.90625 0.725 0.9375 0.775 0.9375 0.725 0.875 0.725 0.90625 0.775 0.90625 0.725 0.875 0.725 0.84375 0.775 0.875 0.775 0.84375 0.725 0.8125 0.775 0.84375 0.775 0.8125 0.725 0.78125 0.775 0.8125 0.775 0.78125 0.725 0.75 0.775 0.78125 0.775 0.75 0.725 0.71875 0.775 0.75 0.775 0.71875 0.725 0.6875 0.775 0.71875 0.775 0.6875 0.725 0.65625 0.775 0.6875 0.775 0.65625 0.725 0.625 0.775 0.65625 0.775 0.625 0.725 0.59375 0.775 0.625 0.775 0.59375 0.725 0.5625 0.775 0.59375 0.775 0.5625 0.725 0.53125 0.775 0.5625 0.775 0.53125 0.725 0.5 0.775 0.53125 0.775 0.5 0.725 0.46875 0.775 0.5 0.775 0.46875 0.725 0.4375 0.775 0.46875 0.775 0.4375 0.725 0.40625 0.775 0.4375 0.775 0.40625 0.725 0.375 0.775 0.40625 0.775 0.34375 0.725 0.375 0.775 0.375 0.725 0.3125 0.725 0.34375 0.775 0.34375 0.725 0.28125 0.725 0.3125 0.775 0.3125 0.725 0.25 0.725 0.28125 0.775 0.28125 0.725 0.21875 0.725 0.25 0.775 0.25 0.725 0.1875 0.725 0.21875 0.775 0.21875 0.725 0.15625 0.725 0.1875 0.775 0.1875 0.725 0.125 0.725 0.15625 0.775 0.15625 0.725 0.09375 0.725 0.125 0.775 0.125 0.725 0.0625 0.725 0.09375 0.775 0.09375 0.725 0.03125 0.725 0.0625 0.775 0.0625 0.725 0 0.725 0.03125 0.775 0.03125 0.725 0.625 0 0.625 0.25 0.375 0.25 0.3780342 0.8961412 0.3703531 0.8817455 2.26498e-4 0.998061 0.9990454 0.9987892 0.5288991 0.8662468 0.5241512 0.8818575 0.9990454 0.9987892 0.5241512 0.8818575 0.5164487 0.8962424 0.3883763 0.9087622 0.3780342 0.8961412 2.26498e-4 0.998061 0.4009819 0.9191223 0.3883763 0.9087622 2.26498e-4 0.998061 0.9990454 0.9987892 0.5164487 0.8962424 0.5060883 0.9088477 0.9990454 0.9987892 0.5060883 0.9088477 0.4934676 0.9191901 0.4153664 0.9268248 0.4009819 0.9191223 2.26498e-4 0.998061 0.4309774 0.9315727 0.4153664 0.9268248 2.26498e-4 0.998061 0.9990454 0.9987892 0.4934676 0.9191901 0.4790717 0.926871 0.9990454 0.9987892 0.4790717 0.926871 0.4634541 0.9315966 0.4309774 0.9315727 2.26498e-4 0.998061 0.4472144 0.933184 2.26498e-4 0.998061 0.9990454 0.9987892 0.4472144 0.933184 0.726345 0.2788016 0.7389512 0.2891622 0.9997736 -2.95937e-5 9.54866e-4 -7.57873e-4 2.26498e-4 0.998061 0.3781017 0.8036556 2.26498e-4 0.998061 0.3703531 0.8817455 0.3656278 0.8661275 2.26498e-4 0.998061 0.3656278 0.8661275 0.3640403 0.849888 0.7119607 0.2710993 0.726345 0.2788016 0.9997736 -2.95937e-5 0.6963499 0.2663514 0.7119607 0.2710993 0.9997736 -2.95937e-5 2.26498e-4 0.998061 0.3640403 0.849888 0.3656516 0.8336512 2.26498e-4 0.998061 0.3656516 0.8336512 0.3703994 0.8180401 0.6963499 0.2663514 0.9997736 -2.95937e-5 0.6801132 0.2647402 0.9997736 -2.95937e-5 9.54866e-4 -7.57873e-4 0.6638736 0.2663278 0.6801132 0.2647402 0.9997736 -2.95937e-5 0.6638736 0.2663278 2.26498e-4 0.998061 0.3703994 0.8180401 0.3781017 0.8036556 0.6482555 0.2710529 0.6638736 0.2663278 9.54866e-4 -7.57873e-4 9.54866e-4 -7.57873e-4 0.3781017 0.8036556 0.3884621 0.7910498 9.54866e-4 -7.57873e-4 0.3884621 0.7910498 0.4010829 0.7807077 0.6338597 0.2787342 0.6482555 0.2710529 9.54866e-4 -7.57873e-4 0.621239 0.289076 0.6338597 0.2787342 9.54866e-4 -7.57873e-4 9.54866e-4 -7.57873e-4 0.4010829 0.7807077 0.5984045 0.3641537 0.4010829 0.7807077 0.4154786 0.7730268 0.5984045 0.3641537 0.4154786 0.7730268 0.4310965 0.7683016 0.6031301 0.3797715 0.6108785 0.3016818 0.621239 0.289076 9.54866e-4 -7.57873e-4 0.6031764 0.3160661 0.6108785 0.3016818 9.54866e-4 -7.57873e-4 0.4154786 0.7730268 0.6031301 0.3797715 0.5984045 0.3641537 0.4310965 0.7683016 0.4473358 0.766714 0.6108112 0.3941676 0.4310965 0.7683016 0.6108112 0.3941676 0.6031301 0.3797715 0.4473358 0.766714 0.463573 0.7683251 0.621153 0.4067879 0.6108112 0.3941676 0.4473358 0.766714 0.621153 0.4067879 0.5984283 0.3316767 0.6031764 0.3160661 9.54866e-4 -7.57873e-4 0.5968173 0.3479142 0.5984283 0.3316767 9.54866e-4 -7.57873e-4 0.463573 0.7683251 0.4791839 0.773073 0.6337589 0.4171487 0.621153 0.4067879 0.463573 0.7683251 0.6337589 0.4171487 0.4791839 0.773073 0.4935687 0.7807756 0.6481437 0.4248512 0.5984045 0.3641537 0.5968173 0.3479142 9.54866e-4 -7.57873e-4 0.4935687 0.7807756 0.5061742 0.7911358 0.6637544 0.4295987 0.6337589 0.4171487 0.4791839 0.773073 0.6481437 0.4248512 0.5061742 0.7911358 0.5165161 0.8037564 0.6799914 0.4312101 0.6481437 0.4248512 0.4935687 0.7807756 0.6637544 0.4295987 0.5165161 0.8037564 0.5241977 0.8181526 0.6962307 0.4296222 0.6637544 0.4295987 0.5061742 0.7911358 0.6799914 0.4312101 0.5241977 0.8181526 0.5289226 0.8337699 0.9990454 0.9987892 0.6799914 0.4312101 0.5165161 0.8037564 0.6962307 0.4296222 0.5305101 0.8500094 0.5288991 0.8662468 0.9990454 0.9987892 0.5289226 0.8337699 0.5305101 0.8500094 0.9990454 0.9987892 0.6962307 0.4296222 0.5241977 0.8181526 0.7118486 0.4248974 0.7262448 0.4172159 0.7118486 0.4248974 0.9990454 0.9987892 0.9997736 -2.95937e-5 0.7389512 0.2891622 0.7492936 0.3017827 0.9997736 -2.95937e-5 0.7492936 0.3017827 0.7569746 0.3161786 0.7388657 0.4068741 0.7262448 0.4172159 0.9990454 0.9987892 0.749226 0.3942682 0.7388657 0.4068741 0.9990454 0.9987892 0.9990454 0.9987892 0.9997736 -2.95937e-5 0.7616758 0.3642724 0.9997736 -2.95937e-5 0.7569746 0.3161786 0.7616998 0.3317965 0.9997736 -2.95937e-5 0.7616998 0.3317965 0.7632872 0.3480358 0.7569285 0.3798841 0.749226 0.3942682 0.9990454 0.9987892 0.7616758 0.3642724 0.7569285 0.3798841 0.9990454 0.9987892 0.625 0.5 0.625 0.75 0.375 0.75 1.000061 0.9999082 0.7126563 0.4268658 0.7270306 0.4191801 1.000061 0.9999082 0.7270306 0.4191801 0.7396291 0.4088373 0.7499534 0.3038462 0.7396111 0.2912478 0.999908 0.002126812 0.7576394 0.3182202 0.7499534 0.3038462 0.999908 0.002126812 1.000061 0.9999082 0.7396291 0.4088373 0.7499675 0.3962356 1.000061 0.9999082 0.7499675 0.3962356 0.7576487 0.3818597 0.7576394 0.3182202 0.999908 0.002126812 0.7623732 0.3338177 0.999908 0.002126812 1.000061 0.9999082 0.7623786 0.3662599 0.7623732 0.3338177 0.999908 0.002126812 0.7639735 0.350039 0.7639735 0.350039 0.999908 0.002126812 0.7623786 0.3662599 0.6970594 0.4315997 0.7126563 0.4268658 0.5255476 0.819877 0.7126563 0.4268658 1.000061 0.9999082 0.5255476 0.819877 1.000061 0.9999082 0.530286 0.8679176 0.5318815 0.8516957 1.000061 0.9999082 0.5318815 0.8516957 0.5302811 0.8354748 0.6808387 0.4331999 0.6970594 0.4315997 0.5178613 0.805503 0.5178613 0.805503 0.6970594 0.4315997 0.5255476 0.819877 0.6646174 0.4316045 0.6808387 0.4331999 0.507519 0.7929046 0.507519 0.7929046 0.6808387 0.4331999 0.5178613 0.805503 1.000061 0.9999082 0.5302811 0.8354748 0.5255476 0.819877 0.6490175 0.4268755 0.6646174 0.4316045 0.4949171 0.7825661 0.6346412 0.4191939 0.6490175 0.4268755 0.4805405 0.7748845 0.6646174 0.4316045 0.507519 0.7929046 0.4949171 0.7825661 0.62204 0.408855 0.6346412 0.4191939 0.4649418 0.7701553 0.6490175 0.4268755 0.4949171 0.7825661 0.4805405 0.7748845 0.6116973 0.396257 0.62204 0.408855 0.4487199 0.7685601 0.6346412 0.4191939 0.4805405 0.7748845 0.4649418 0.7701553 0.6040115 0.3818827 0.6116973 0.396257 0.4324989 0.7701601 0.62204 0.408855 0.4649418 0.7701553 0.4487199 0.7685601 0.5992767 0.3662853 0.6040115 0.3818827 0.4169017 0.7748942 0.6116973 0.396257 0.4487199 0.7685601 0.4324989 0.7701601 0.5976773 0.3500638 0.5992767 0.3662853 0.002126753 0.0022794 0.6040115 0.3818827 0.4324989 0.7701601 0.4169017 0.7748942 0.5992733 0.3338423 0.5976773 0.3500638 0.002126753 0.0022794 0.5992767 0.3662853 0.4169017 0.7748942 0.4025272 0.7825803 0.5992767 0.3662853 0.4025272 0.7825803 0.002126753 0.0022794 0.604002 0.3182433 0.5992733 0.3338423 0.002126753 0.0022794 0.4025272 0.7825803 0.389929 0.7929229 0.002126753 0.0022794 0.389929 0.7929229 0.3795903 0.8055244 0.002126753 0.0022794 0.3795903 0.8055244 0.3719089 0.8199008 0.002279341 1.000061 0.002126753 0.0022794 0.3795903 0.8055244 0.002279341 1.000061 0.999908 0.002126812 0.7396111 0.2912478 0.7270102 0.2809091 0.3719187 0.8835401 0.002279341 1.000061 0.3671846 0.8679426 0.3671846 0.8679426 0.002279341 1.000061 0.3655844 0.8517214 0.3655844 0.8517214 0.002279341 1.000061 0.3671797 0.8354997 0.999908 0.002126812 0.7270102 0.2809091 0.7126333 0.2732275 0.999908 0.002126812 0.7126333 0.2732275 0.6970346 0.2684983 0.3671797 0.8354997 0.002279341 1.000061 0.3719089 0.8199008 0.002126753 0.0022794 0.999908 0.002126812 0.6645918 0.2685029 0.999908 0.002126812 0.6970346 0.2684983 0.6808125 0.2669031 0.999908 0.002126812 0.6808125 0.2669031 0.6645918 0.2685029 0.002126753 0.0022794 0.6645918 0.2685029 0.6489936 0.2732372 0.6116832 0.3038673 0.604002 0.3182433 0.002126753 0.0022794 0.6220221 0.2912653 0.6116832 0.3038673 0.002126753 0.0022794 0.002126753 0.0022794 0.6489936 0.2732372 0.6346207 0.2809232 0.5255571 0.8835163 0.530286 0.8679176 1.000061 0.9999082 0.002279341 1.000061 0.3719187 0.8835401 0.3796047 0.8979139 0.002279341 1.000061 0.3796047 0.8979139 0.3899472 0.9105126 0.5178754 0.897893 0.5255571 0.8835163 1.000061 0.9999082 0.5075368 0.910494 0.5178754 0.897893 1.000061 0.9999082 0.002279341 1.000061 0.3899472 0.9105126 0.4025488 0.9208509 0.002279341 1.000061 0.4025488 0.9208509 0.4169252 0.9285324 0.494938 0.9208371 0.5075368 0.910494 1.000061 0.9999082 0.4805638 0.9285229 0.494938 0.9208371 1.000061 0.9999082 0.002279341 1.000061 0.4169252 0.9285324 0.4325241 0.9332618 0.002279341 1.000061 0.4325241 0.9332618 0.4487456 0.9348573 0.4649663 0.9332569 0.4805638 0.9285229 1.000061 0.9999082 0.002279341 1.000061 0.4487456 0.9348573 1.000061 0.9999082 0.375 0.5 0.375 0.75 0.125 0.75 0.875 0.5 0.875 0.75 0.625 0.75 0.96875 0.725 0.96875 0.775 1 0.775 0.9375 0.725 0.9375 0.775 0.96875 0.775 0.90625 0.725 0.90625 0.775 0.9375 0.775 0.875 0.725 0.875 0.775 0.90625 0.775 0.875 0.725 0.84375 0.725 0.84375 0.775 0.84375 0.725 0.8125 0.725 0.8125 0.775 0.8125 0.725 0.78125 0.725 0.78125 0.775 0.78125 0.725 0.75 0.725 0.75 0.775 0.75 0.725 0.71875 0.725 0.71875 0.775 0.71875 0.725 0.6875 0.725 0.6875 0.775 0.6875 0.725 0.65625 0.725 0.65625 0.775 0.65625 0.725 0.625 0.725 0.625 0.775 0.625 0.725 0.59375 0.725 0.59375 0.775 0.59375 0.725 0.5625 0.725 0.5625 0.775 0.5625 0.725 0.53125 0.725 0.53125 0.775 0.53125 0.725 0.5 0.725 0.5 0.775 0.5 0.725 0.46875 0.725 0.46875 0.775 0.46875 0.725 0.4375 0.725 0.4375 0.775 0.4375 0.725 0.40625 0.725 0.40625 0.775 0.40625 0.725 0.375 0.725 0.375 0.775 0.34375 0.725 0.34375 0.775 0.375 0.775 0.3125 0.725 0.3125 0.775 0.34375 0.775 0.28125 0.725 0.28125 0.775 0.3125 0.775 0.25 0.725 0.25 0.775 0.28125 0.775 0.21875 0.725 0.21875 0.775 0.25 0.775 0.1875 0.725 0.1875 0.775 0.21875 0.775 0.15625 0.725 0.15625 0.775 0.1875 0.775 0.125 0.725 0.125 0.775 0.15625 0.775 0.09375 0.725 0.09375 0.775 0.125 0.775 0.0625 0.725 0.0625 0.775 0.09375 0.775 0.03125 0.725 0.03125 0.775 0.0625 0.775 0 0.725 0 0.775 0.03125 0.775 0.96875 0.725 0.96875 0.775 1 0.775 0.9375 0.725 0.9375 0.775 0.96875 0.775 0.90625 0.725 0.90625 0.775 0.9375 0.775 0.875 0.725 0.875 0.775 0.90625 0.775 0.875 0.725 0.84375 0.725 0.84375 0.775 0.84375 0.725 0.8125 0.725 0.8125 0.775 0.8125 0.725 0.78125 0.725 0.78125 0.775 0.78125 0.725 0.75 0.725 0.75 0.775 0.75 0.725 0.71875 0.725 0.71875 0.775 0.71875 0.725 0.6875 0.725 0.6875 0.775 0.6875 0.725 0.65625 0.725 0.65625 0.775 0.65625 0.725 0.625 0.725 0.625 0.775 0.625 0.725 0.59375 0.725 0.59375 0.775 0.59375 0.725 0.5625 0.725 0.5625 0.775 0.5625 0.725 0.53125 0.725 0.53125 0.775 0.53125 0.725 0.5 0.725 0.5 0.775 0.5 0.725 0.46875 0.725 0.46875 0.775 0.46875 0.725 0.4375 0.725 0.4375 0.775 0.4375 0.725 0.40625 0.725 0.40625 0.775 0.40625 0.725 0.375 0.725 0.375 0.775 0.34375 0.725 0.34375 0.775 0.375 0.775 0.3125 0.725 0.3125 0.775 0.34375 0.775 0.28125 0.725 0.28125 0.775 0.3125 0.775 0.25 0.725 0.25 0.775 0.28125 0.775 0.21875 0.725 0.21875 0.775 0.25 0.775 0.1875 0.725 0.1875 0.775 0.21875 0.775 0.15625 0.725 0.15625 0.775 0.1875 0.775 0.125 0.725 0.125 0.775 0.15625 0.775 0.09375 0.725 0.09375 0.775 0.125 0.775 0.0625 0.725 0.0625 0.775 0.09375 0.775 0.03125 0.725 0.03125 0.775 0.0625 0.775 0 0.725 0 0.775 0.03125 0.775</float_array>
          <technique_common>
            <accessor source="#Cube_002-mesh-map-0-array" count="828" stride="2">
              <param name="S" type="float"/>
              <param name="T" type="float"/>
            </accessor>
          </technique_common>
        </source>
        <vertices id="Cube_002-mesh-vertices">
          <input semantic="POSITION" source="#Cube_002-mesh-positions"/>
        </vertices>
        <triangles material="Material_002-material" count="276">
          <input semantic="VERTEX" source="#Cube_002-mesh-vertices" offset="0"/>
          <input semantic="NORMAL" source="#Cube_002-mesh-normals" offset="1"/>
          <input semantic="TEXCOORD" source="#Cube_002-mesh-map-0" offset="2" set="0"/>
          <p>1 0 0 2 0 1 0 0 2 7 1 3 24 1 4 38 1 5 7 2 6 92 2 7 35 2 8 6 3 9 95 3 10 97 3 11 7 4 12 4 4 13 6 4 14 5 5 15 131 5 16 129 5 17 0 6 18 111 6 19 117 6 20 70 7 21 56 7 22 5 7 23 6 8 24 0 8 25 2 8 26 3 9 27 5 9 28 7 9 29 24 10 30 70 10 31 38 10 32 28 11 33 56 11 34 24 11 35 26 12 36 60 12 37 28 12 38 36 13 39 58 13 40 26 13 41 36 14 42 62 14 43 69 14 44 30 15 45 67 15 46 62 15 47 34 16 48 65 16 49 67 16 50 32 17 51 63 17 52 65 17 53 31 18 54 64 18 55 63 18 56 33 19 57 66 19 58 64 19 59 35 20 60 61 20 61 66 20 62 29 21 63 68 21 64 61 21 65 37 22 66 57 22 67 68 22 68 25 23 69 59 23 70 57 23 71 27 24 72 55 24 73 59 24 74 23 25 75 71 25 76 55 25 77 39 26 78 49 26 79 71 26 80 17 27 81 51 27 82 49 27 83 18 28 84 47 28 85 51 28 86 20 29 87 53 29 88 47 29 89 13 30 90 53 30 91 15 30 92 11 31 93 43 31 94 13 31 95 9 32 96 45 32 97 11 32 98 8 33 99 41 33 100 9 33 101 10 34 102 40 34 103 8 34 104 14 35 105 42 35 106 10 35 107 12 36 108 46 36 109 14 36 110 22 37 111 44 37 112 12 37 113 16 38 114 54 38 115 22 38 116 21 39 117 48 39 118 16 39 119 19 40 120 52 40 121 21 40 122 38 41 123 50 41 124 19 41 125 88 42 126 134 42 127 102 42 128 92 43 129 120 43 130 88 43 131 90 44 132 124 44 133 92 44 134 101 45 135 122 45 136 90 45 137 101 46 138 126 46 139 133 46 140 94 47 141 131 47 142 126 47 143 99 48 144 129 48 145 131 48 146 97 49 147 127 49 148 129 49 149 95 50 150 128 50 151 127 50 152 96 51 153 130 51 154 128 51 155 98 52 156 125 52 157 130 52 158 93 53 159 132 53 160 125 53 161 100 54 162 121 54 163 132 54 164 89 55 165 123 55 166 121 55 167 91 56 168 119 56 169 123 56 170 87 57 171 135 57 172 119 57 173 103 58 174 113 58 175 135 58 176 81 59 177 115 59 178 113 59 179 83 60 180 111 60 181 115 60 182 79 61 183 117 61 184 111 61 185 75 62 186 117 62 187 85 62 188 77 63 189 107 63 190 75 63 191 73 64 192 109 64 193 77 64 194 72 65 195 105 65 196 73 65 197 74 66 198 104 66 199 72 66 200 78 67 201 106 67 202 74 67 203 76 68 204 110 68 205 78 68 206 86 69 207 108 69 208 76 69 209 80 70 210 118 70 211 86 70 212 84 71 213 112 71 214 80 71 215 82 72 216 116 72 217 84 72 218 102 73 219 114 73 220 82 73 221 1 74 222 3 74 223 2 74 224 12 75 225 14 75 226 3 75 227 7 76 228 32 76 229 34 76 230 7 77 231 34 77 232 30 77 233 22 78 234 12 78 235 3 78 236 16 79 237 22 79 238 3 79 239 7 80 240 30 80 241 36 80 242 7 81 243 36 81 244 26 81 245 21 82 246 16 82 247 3 82 248 19 83 249 21 83 250 3 83 251 7 84 252 26 84 253 28 84 254 7 85 255 28 85 256 24 85 257 19 86 258 3 86 259 38 86 260 3 87 261 7 87 262 38 87 263 89 88 264 100 88 265 6 88 266 2 89 267 3 89 268 13 89 269 3 90 270 14 90 271 10 90 272 3 91 273 10 91 274 8 91 275 91 92 276 89 92 277 6 92 278 87 93 279 91 93 280 6 93 281 3 94 282 8 94 283 9 94 284 3 95 285 9 95 286 11 95 287 87 96 288 6 96 289 103 96 290 6 97 291 2 97 292 81 97 293 103 98 294 6 98 295 81 98 296 3 99 297 11 99 298 13 99 299 83 100 300 81 100 301 2 100 302 2 101 303 13 101 304 15 101 305 2 102 306 15 102 307 20 102 308 79 103 309 83 103 310 2 103 311 85 104 312 79 104 313 2 104 314 2 105 315 20 105 316 74 105 317 20 106 318 18 106 319 74 106 320 18 107 321 17 107 322 78 107 323 75 108 324 85 108 325 2 108 326 77 109 327 75 109 328 2 109 329 18 110 330 78 110 331 74 110 332 17 111 333 39 111 334 76 111 335 17 112 336 76 112 337 78 112 338 39 113 339 23 113 340 86 113 341 76 114 342 39 114 343 86 114 344 73 115 345 77 115 346 2 115 347 72 116 348 73 116 349 2 116 350 23 117 351 27 117 352 80 117 353 86 118 354 23 118 355 80 118 356 27 119 357 25 119 358 84 119 359 74 120 360 72 120 361 2 120 362 25 121 363 37 121 364 82 121 365 80 122 366 27 122 367 84 122 368 37 123 369 29 123 370 102 123 371 84 124 372 25 124 373 82 124 374 29 125 375 35 125 376 88 125 377 82 126 378 37 126 379 102 126 380 35 127 381 33 127 382 7 127 383 102 128 384 29 128 385 88 128 386 31 129 387 32 129 388 7 129 389 33 130 390 31 130 391 7 130 392 88 131 393 35 131 394 92 131 395 90 132 396 92 132 397 7 132 398 6 133 399 100 133 400 93 133 401 6 134 402 93 134 403 98 134 404 101 135 405 90 135 406 7 135 407 94 136 408 101 136 409 7 136 410 7 137 411 6 137 412 97 137 413 6 138 414 98 138 415 96 138 416 6 139 417 96 139 418 95 139 419 99 140 420 94 140 421 7 140 422 97 141 423 99 141 424 7 141 425 7 142 426 5 142 427 4 142 428 5 143 429 124 143 430 122 143 431 5 144 432 122 144 433 133 144 434 125 145 435 132 145 436 4 145 437 130 146 438 125 146 439 4 146 440 5 147 441 133 147 442 126 147 443 5 148 444 126 148 445 131 148 446 130 149 447 4 149 448 128 149 449 4 150 450 5 150 451 129 150 452 128 151 453 4 151 454 127 151 455 127 152 456 4 152 457 129 152 458 120 153 459 124 153 460 66 153 461 124 154 462 5 154 463 66 154 464 5 155 465 65 155 466 63 155 467 5 156 468 63 156 469 64 156 470 134 157 471 120 157 472 61 157 473 61 158 474 120 158 475 66 158 476 114 159 477 134 159 478 68 159 479 68 160 480 134 160 481 61 160 482 5 161 483 64 161 484 66 161 485 116 162 486 114 162 487 57 162 488 112 163 489 116 163 490 59 163 491 114 164 492 68 164 493 57 164 494 118 165 495 112 165 496 55 165 497 116 166 498 57 166 499 59 166 500 108 167 501 118 167 502 71 167 503 112 168 504 59 168 505 55 168 506 110 169 507 108 169 508 49 169 509 118 170 510 55 170 511 71 170 512 106 171 513 110 171 514 51 171 515 108 172 516 71 172 517 49 172 518 104 173 519 106 173 520 0 173 521 110 174 522 49 174 523 51 174 524 105 175 525 104 175 526 0 175 527 106 176 528 51 176 529 47 176 530 106 177 531 47 177 532 0 177 533 109 178 534 105 178 535 0 178 536 47 179 537 53 179 538 0 179 539 53 180 540 43 180 541 0 180 542 43 181 543 45 181 544 1 181 545 0 182 546 43 182 547 1 182 548 4 183 549 132 183 550 121 183 551 46 184 552 1 184 553 42 184 554 42 185 555 1 185 556 40 185 557 40 186 558 1 186 559 41 186 560 4 187 561 121 187 562 123 187 563 4 188 564 123 188 565 119 188 566 41 189 567 1 189 568 45 189 569 0 190 570 4 190 571 113 190 572 4 191 573 119 191 574 135 191 575 4 192 576 135 192 577 113 192 578 0 193 579 113 193 580 115 193 581 107 194 582 109 194 583 0 194 584 117 195 585 107 195 586 0 195 587 0 196 588 115 196 589 111 196 590 67 197 591 65 197 592 5 197 593 1 198 594 46 198 595 44 198 596 1 199 597 44 199 598 54 199 599 62 200 600 67 200 601 5 200 602 69 201 603 62 201 604 5 201 605 1 202 606 54 202 607 48 202 608 1 203 609 48 203 610 52 203 611 58 204 612 69 204 613 5 204 614 60 205 615 58 205 616 5 205 617 1 206 618 52 206 619 50 206 620 1 207 621 50 207 622 70 207 623 56 208 624 60 208 625 5 208 626 1 209 627 70 209 628 5 209 629 6 210 630 4 210 631 0 210 632 3 211 633 1 211 634 5 211 635 24 212 636 56 212 637 70 212 638 28 213 639 60 213 640 56 213 641 26 214 642 58 214 643 60 214 644 36 215 645 69 215 646 58 215 647 36 216 648 30 216 649 62 216 650 30 217 651 34 217 652 67 217 653 34 218 654 32 218 655 65 218 656 32 219 657 31 219 658 63 219 659 31 220 660 33 220 661 64 220 662 33 221 663 35 221 664 66 221 665 35 222 666 29 222 667 61 222 668 29 223 669 37 223 670 68 223 671 37 224 672 25 224 673 57 224 674 25 225 675 27 225 676 59 225 677 27 226 678 23 226 679 55 226 680 23 227 681 39 227 682 71 227 683 39 228 684 17 228 685 49 228 686 17 229 687 18 229 688 51 229 689 18 230 690 20 230 691 47 230 692 20 231 693 15 231 694 53 231 695 13 232 696 43 232 697 53 232 698 11 233 699 45 233 700 43 233 701 9 234 702 41 234 703 45 234 704 8 235 705 40 235 706 41 235 707 10 236 708 42 236 709 40 236 710 14 237 711 46 237 712 42 237 713 12 238 714 44 238 715 46 238 716 22 239 717 54 239 718 44 239 719 16 240 720 48 240 721 54 240 722 21 241 723 52 241 724 48 241 725 19 242 726 50 242 727 52 242 728 38 243 729 70 243 730 50 243 731 88 244 732 120 244 733 134 244 734 92 245 735 124 245 736 120 245 737 90 246 738 122 246 739 124 246 740 101 247 741 133 247 742 122 247 743 101 248 744 94 248 745 126 248 746 94 249 747 99 249 748 131 249 749 99 250 750 97 250 751 129 250 752 97 251 753 95 251 754 127 251 755 95 252 756 96 252 757 128 252 758 96 253 759 98 253 760 130 253 761 98 254 762 93 254 763 125 254 764 93 255 765 100 255 766 132 255 767 100 256 768 89 256 769 121 256 770 89 257 771 91 257 772 123 257 773 91 258 774 87 258 775 119 258 776 87 259 777 103 259 778 135 259 779 103 260 780 81 260 781 113 260 782 81 261 783 83 261 784 115 261 785 83 262 786 79 262 787 111 262 788 79 263 789 85 263 790 117 263 791 75 264 792 107 264 793 117 264 794 77 265 795 109 265 796 107 265 797 73 266 798 105 266 799 109 266 800 72 267 801 104 267 802 105 267 803 74 268 804 106 268 805 104 268 806 78 269 807 110 269 808 106 269 809 76 270 810 108 270 811 110 270 812 86 271 813 118 271 814 108 271 815 80 272 816 112 272 817 118 272 818 84 273 819 116 273 820 112 273 821 82 274 822 114 274 823 116 274 824 102 275 825 134 275 826 114 275 827</p>
        </triangles>
      </mesh>
    </geometry>
  </library_geometries>
  <library_visual_scenes>
    <visual_scene id="Scene" name="Scene">
      <node id="Cube_001" name="Cube.001" type="NODE">
        <matrix sid="transform">0.3 0 0 0.3 0 0.005 0 0 0 0 0.3 0.3 0 0 0 1</matrix>
        <instance_geometry url="#Cube_002-mesh" name="Cube.001">
          <bind_material>
            <technique_common>
              <instance_material symbol="Material_002-material" target="#Material_002-material">
                <bind_vertex_input semantic="UVMap" input_semantic="TEXCOORD" input_set="0"/>
              </instance_material>
            </technique_common>
          </bind_material>
        </instance_geometry>
      </node>
    </visual_scene>
  </library_visual_scenes>
  <scene>
    <instance_visual_scene url="#Scene"/>
  </scene>
</COLLADA>