<?xml version="1.0" encoding="utf-8"?>
<COLLADA xmlns="http://www.collada.org/2005/11/COLLADASchema" version="1.4.1" xmlns:xsi="http://www.w3.org/2001/XMLSchema-instance">
  <asset>
    <contributor>
      <author>Blender User</author>
      <authoring_tool>Blender 2.93.1 commit date:2021-06-22, commit time:05:57, hash:1b8d33b18c2f</authoring_tool>
    </contributor>
    <created>2021-07-05T13:46:29</created>
    <modified>2021-07-05T13:46:29</modified>
    <unit name="meter" meter="1"/>
    <up_axis>Z_UP</up_axis>
  </asset>
  <library_cameras>
    <camera id="Camera-camera" name="Camera">
      <optics>
        <technique_common>
          <perspective>
            <xfov sid="xfov">39.59775</xfov>
            <aspect_ratio>1.777778</aspect_ratio>
            <znear sid="znear">0.1</znear>
            <zfar sid="zfar">100</zfar>
          </perspective>
        </technique_common>
      </optics>
      <extra>
        <technique profile="blender">
          <shiftx sid="shiftx" type="float">0</shiftx>
          <shifty sid="shifty" type="float">0</shifty>
          <dof_distance sid="dof_distance" type="float">10</dof_distance>
        </technique>
      </extra>
    </camera>
  </library_cameras>
  <library_lights>
    <light id="Light-light" name="Light">
      <technique_common>
        <point>
          <color sid="color">1000 1000 1000</color>
          <constant_attenuation>1</constant_attenuation>
          <linear_attenuation>0</linear_attenuation>
          <quadratic_attenuation>0.00111109</quadratic_attenuation>
        </point>
      </technique_common>
      <extra>
        <technique profile="blender">
          <type sid="type" type="int">0</type>
          <flag sid="flag" type="int">0</flag>
          <mode sid="mode" type="int">1</mode>
          <gamma sid="blender_gamma" type="float">1</gamma>
          <red sid="red" type="float">1</red>
          <green sid="green" type="float">1</green>
          <blue sid="blue" type="float">1</blue>
          <shadow_r sid="blender_shadow_r" type="float">0</shadow_r>
          <shadow_g sid="blender_shadow_g" type="float">0</shadow_g>
          <shadow_b sid="blender_shadow_b" type="float">0</shadow_b>
          <energy sid="blender_energy" type="float">1000</energy>
          <dist sid="blender_dist" type="float">29.99998</dist>
          <spotsize sid="spotsize" type="float">75</spotsize>
          <spotblend sid="spotblend" type="float">0.15</spotblend>
          <att1 sid="att1" type="float">0</att1>
          <att2 sid="att2" type="float">1</att2>
          <falloff_type sid="falloff_type" type="int">2</falloff_type>
          <clipsta sid="clipsta" type="float">0.04999995</clipsta>
          <clipend sid="clipend" type="float">30.002</clipend>
          <bias sid="bias" type="float">1</bias>
          <soft sid="soft" type="float">3</soft>
          <bufsize sid="bufsize" type="int">2880</bufsize>
          <samp sid="samp" type="int">3</samp>
          <buffers sid="buffers" type="int">1</buffers>
          <area_shape sid="area_shape" type="int">1</area_shape>
          <area_size sid="area_size" type="float">0.1</area_size>
          <area_sizey sid="area_sizey" type="float">0.1</area_sizey>
          <area_sizez sid="area_sizez" type="float">1</area_sizez>
        </technique>
      </extra>
    </light>
  </library_lights>
  <library_effects>
    <effect id="Material-effect">
      <profile_COMMON>
        <newparam sid="star_guy_jpg-surface">
          <surface type="2D">
            <init_from>star_guy_jpg</init_from>
          </surface>
        </newparam>
        <newparam sid="star_guy_jpg-sampler">
          <sampler2D>
            <source>star_guy_jpg-surface</source>
          </sampler2D>
        </newparam>
        <technique sid="common">
          <lambert>
            <emission>
              <color sid="emission">0 0 0 1</color>
            </emission>
            <diffuse>
              <texture texture="star_guy_jpg-sampler" texcoord="UVMap"/>
            </diffuse>
            <index_of_refraction>
              <float sid="ior">1.45</float>
            </index_of_refraction>
          </lambert>
        </technique>
      </profile_COMMON>
    </effect>
  </library_effects>
  <library_images>
    <image id="star_guy_jpg" name="star_guy_jpg">
      <init_from>../../media/materials/textures/torpedo_gman.jpg</init_from>
    </image>
  </library_images>
  <library_materials>
    <material id="Material-material" name="Material">
      <instance_effect url="#Material-effect"/>
    </material>
  </library_materials>
  <library_geometries>
    <geometry id="Cube-mesh" name="Cube">
      <mesh>
        <source id="Cube-mesh-positions">
          <float_array id="Cube-mesh-positions-array" count="264">1 1 1 1 1 -1 1 -1 1 1 -1 -1 -1 1 1 -1 1 -1 -1 -1 1 -1 -1 -1 0.1978272 0.3933827 1 0.2781135 0.49145 1 0.3113636 0.6986015 1 0.3843856 0.5843114 1 0.5000426 0.5832571 1 0.4667882 0.4125513 1 0.5035569 0.2062752 1 0.400303 0.2126207 1 0.3134274 0.0775606 1 0.2899066 0.2682251 1 -0.7075516 0.03904372 1 -0.672384 0.0421921 1 -0.6291444 0.02477836 1 -0.5808565 -0.02701485 1 -0.5494652 -0.07707107 1 -0.5125561 -0.1666785 1 -0.4959047 -0.2512665 1 -0.4886856 -0.3202797 1 -0.4870016 -0.4193789 1 -0.4909084 -0.4926546 1 -0.506752 -0.5829007 1 -0.5353803 -0.6693972 1 -0.5794748 -0.7450367 1 -0.6152746 -0.7853325 1 -0.658022 -0.8085907 1 -0.7117817 -0.8146922 1 -0.7473299 -0.8007089 1 -0.7871129 -0.7785277 1 -0.8291327 -0.7283657 1 -0.8604221 -0.6653027 1 -0.8837782 -0.6069978 1 -0.9034825 -0.534587 1 -0.9138981 -0.452013 1 -0.9136003 -0.3456524 1 -0.9059702 -0.2622796 1 -0.8884498 -0.1734812 1 -0.8511206 -0.08146739 1 -0.8203129 -0.02543014 1 -0.7896701 0.00727272 1 -0.7445577 0.03395402 1 -0.9089571 -0.3491306 -1 -0.9096835 -0.4240816 -1 -0.9026394 -0.512914 -1 -0.8881326 -0.589661 -1 -0.860985 -0.6619361 -1 -0.830245 -0.7279145 -1 -0.794076 -0.7734966 -1 -0.751151 -0.8034798 -1 -0.7064525 -0.8159899 -1 -0.6648424 -0.8092182 -1 -0.6179285 -0.7903569 -1 -0.5827861 -0.7432634 -1 -0.5454661 -0.6826952 -1 -0.5129591 -0.5986998 -1 -0.4955298 -0.5044029 -1 -0.4860727 -0.3988538 -1 -0.4931275 -0.2919051 -1 -0.5080165 -0.2004149 -1 -0.5287827 -0.1269396 -1 -0.5592818 -0.07165992 -1 -0.5935121 -0.01195669 -1 -0.6348712 0.02119112 -1 -0.6781088 0.03509026 -1 -0.7194882 0.03748893 -1 -0.7632519 0.02154827 -1 -0.8008754 -0.01051223 -1 -0.834103 -0.06168973 -1 -0.8630743 -0.1152514 -1 -0.8843409 -0.1920758 -1 -0.9007907 -0.2735543 -1 0.1981144 0.3966412 -1 0.2884706 0.2751781 -1 0.3160488 0.08732563 -1 0.3948655 0.221866 -1 0.4982738 0.2085351 -1 0.4609352 0.402296 -1 0.5008879 0.5868244 -1 0.3865281 0.5781936 -1 0.3078421 0.7063212 -1 0.2833581 0.4932292 -1</float_array>
          <technique_common>
            <accessor source="#Cube-mesh-positions-array" count="88" stride="3">
              <param name="X" type="float"/>
              <param name="Y" type="float"/>
              <param name="Z" type="float"/>
            </accessor>
          </technique_common>
        </source>
        <source id="Cube-mesh-normals">
          <float_array id="Cube-mesh-normals-array" count="57">0 0 1 0 -1 0 -1 0 0 0 0 -1 1 0 0 0 1 0 2.03951e-6 0 1 6.89871e-7 0 1 -1.20063e-7 0 1 7.11399e-7 0 1 7.43583e-7 0 1 -6.82332e-6 0 1 -2.86146e-6 0 1 3.19611e-6 0 1 5.35872e-7 0 1 -4.18024e-7 0 1 0 0 -1 -8.48346e-7 0 -1 -6.96379e-6 0 -1</float_array>
          <technique_common>
            <accessor source="#Cube-mesh-normals-array" count="19" stride="3">
              <param name="X" type="float"/>
              <param name="Y" type="float"/>
              <param name="Z" type="float"/>
            </accessor>
          </technique_common>
        </source>
        <source id="Cube-mesh-map-0">
          <float_array id="Cube-mesh-map-0-array" count="600">1.002564 6.3454e-4 0.8510921 0.3445157 0.7931242 0.250296 0.625 0.75 0.375 1 0.375 0.75 0.625 0 0.375 0.25 0.375 0 0.9974358 0.9993655 0.9974358 6.34599e-4 0.8513494 0.3462743 0.625 0.5 0.375 0.75 0.375 0.5 0.625 0.25 0.375 0.5 0.375 0.25 1.002564 0.9993655 0.519622 0.8533269 0.5212041 0.8357653 0.09409743 0.8527781 0.09746587 0.8319993 0.002564191 0.9993655 0.09363126 0.8285936 0.09056484 0.8554393 -0.002564191 0.9993655 0.510719 0.8811417 0.4947708 0.8999296 0.9974358 0.9993655 1.002564 0.9993655 0.6977002 0.4012119 0.8510921 0.3445157 0.6977002 0.4012119 0.7469853 0.3611198 0.8510921 0.3445157 0.8510921 0.3445157 0.7936539 0.3080511 0.7931242 0.250296 0.7073335 0.266902 0.6036666 0.2485411 0.7931242 0.250296 0.6036666 0.2485411 1.002564 6.3454e-4 0.7931242 0.250296 1.002564 6.3454e-4 1.002564 0.9993655 0.8510921 0.3445157 0.625 0.75 0.625 1 0.375 1 0.625 0 0.625 0.25 0.375 0.25 0.9974358 6.34599e-4 0.7919074 0.2498739 0.8513494 0.3462743 0.7919074 0.2498739 0.7876142 0.3069812 0.8513494 0.3462743 0.8513494 0.3462743 0.7453499 0.3585008 0.6973035 0.4010685 0.8513494 0.3462743 0.6973035 0.4010685 0.9974358 0.9993655 0.625 0.5 0.625 0.75 0.375 0.75 0.625 0.25 0.625 0.5 0.375 0.5 0.6036666 0.2485411 0.6068556 0.3001025 0.5389792 0.3434852 0.5389792 0.3434852 0.6348003 0.3552306 0.6977002 0.4012119 1.002564 0.9993655 -0.002564191 0.9993655 0.3262875 0.9562205 -0.002564191 0.9993655 0.2728345 0.9563692 0.3262875 0.9562205 0.5389792 0.3434852 0.6977002 0.4012119 0.4612669 0.774384 0.6977002 0.4012119 1.002564 0.9993655 0.5212041 0.8357653 0.4612669 0.774384 0.6977002 0.4012119 0.4864233 0.7900597 -0.002564191 6.3454e-4 1.002564 6.3454e-4 0.6036666 0.2485411 -0.002564191 6.3454e-4 0.6036666 0.2485411 0.5389792 0.3434852 0.3390389 0.7440328 0.2892352 0.7431919 0.5389792 0.3434852 0.2892352 0.7431919 -0.002564191 6.3454e-4 0.5389792 0.3434852 0.3737224 0.7476377 0.3390389 0.7440328 0.5389792 0.3434852 1.002564 0.9993655 0.3262875 0.9562205 0.3681877 0.9524102 1.002564 0.9993655 0.3681877 0.9524102 0.4128145 0.9436612 0.4162333 0.7559528 0.3737224 0.7476377 0.5389792 0.3434852 0.4612669 0.774384 0.4162333 0.7559528 0.5389792 0.3434852 1.002564 0.9993655 0.4128145 0.9436612 0.4590575 0.9250203 1.002564 0.9993655 0.4590575 0.9250203 0.4872198 0.9096359 0.4864233 0.7900597 0.6977002 0.4012119 0.5124527 0.814173 0.5124527 0.814173 0.6977002 0.4012119 0.5212041 0.8357653 1.002564 0.9993655 0.4872198 0.9096359 0.503655 0.894334 1.002564 0.9993655 0.503655 0.894334 0.517064 0.8718065 1.002564 0.9993655 0.517064 0.8718065 0.519622 0.8533269 0.002564191 0.9993655 0.2890467 0.9542647 0.2448582 0.950747 0.002564191 0.9993655 0.2448582 0.950747 0.2066815 0.9435028 0.2490919 0.7474505 0.3015958 0.7427279 0.002564191 6.34599e-4 0.2021853 0.7561542 0.2490919 0.7474505 0.002564191 6.34599e-4 0.002564191 0.9993655 0.2066815 0.9435028 0.1707293 0.9299463 0.002564191 0.9993655 0.1707293 0.9299463 0.1379092 0.9145958 0.160403 0.7723869 0.2021853 0.7561542 0.002564191 6.34599e-4 0.1302742 0.7910232 0.160403 0.7723869 0.002564191 6.34599e-4 0.002564191 0.9993655 0.1379092 0.9145958 0.1152351 0.8965343 0.002564191 0.9993655 0.1152351 0.8965343 0.1003203 0.875099 0.1068482 0.8085722 0.1302742 0.7910232 0.002564191 6.34599e-4 0.09746587 0.8319993 0.1068482 0.8085722 0.002564191 0.9993655 0.1068482 0.8085722 0.002564191 6.34599e-4 0.002564191 0.9993655 0.002564191 0.9993655 0.1003203 0.875099 0.09409743 0.8527781 -0.002564191 6.3454e-4 0.2892352 0.7431919 0.2524094 0.7451426 -0.002564191 6.3454e-4 0.2524094 0.7451426 0.207055 0.7530544 0.2313357 0.951168 0.2728345 0.9563692 -0.002564191 0.9993655 0.1949446 0.9413285 0.2313357 0.951168 -0.002564191 0.9993655 -0.002564191 6.3454e-4 0.207055 0.7530544 0.1635849 0.7673504 -0.002564191 6.3454e-4 0.1635849 0.7673504 0.1255713 0.7893697 0.1656427 0.9296652 0.1949446 0.9413285 -0.002564191 0.9993655 0.1339495 0.9140402 0.1656427 0.9296652 -0.002564191 0.9993655 -0.002564191 6.3454e-4 0.1255713 0.7893697 0.10532 0.8072469 -0.002564191 6.3454e-4 0.10532 0.8072469 0.09363126 0.8285936 0.1087399 0.8930571 0.1339495 0.9140402 -0.002564191 0.9993655 0.09759235 0.8731908 0.1087399 0.8930571 -0.002564191 0.9993655 -0.002564191 0.9993655 -0.002564191 6.3454e-4 0.09363126 0.8285936 0.09056484 0.8554393 0.09759235 0.8731908 -0.002564191 0.9993655 0.6973035 0.4010685 0.6368835 0.3559478 0.5434389 0.3421763 0.5434389 0.3421763 0.6103641 0.3028179 0.6037328 0.2511793 0.6037328 0.2511793 0.7001165 0.269825 0.7919074 0.2498739 0.7919074 0.2498739 0.9974358 6.34599e-4 0.6037328 0.2511793 0.9974358 6.34599e-4 0.002564191 6.34599e-4 0.6037328 0.2511793 0.002564191 6.34599e-4 0.3015958 0.7427279 0.5434389 0.3421763 0.3015958 0.7427279 0.3547959 0.7462509 0.5434389 0.3421763 0.3547959 0.7462509 0.4003064 0.7536859 0.5434389 0.3421763 0.9974358 0.9993655 0.6973035 0.4010685 0.5105412 0.8170328 0.6973035 0.4010685 0.5434389 0.3421763 0.4368557 0.7640559 0.4643537 0.779286 0.6973035 0.4010685 0.4368557 0.7640559 0.5434389 0.3421763 0.6037328 0.2511793 0.002564191 6.34599e-4 0.4003064 0.7536859 0.4368557 0.7640559 0.5434389 0.3421763 0.6973035 0.4010685 0.4643537 0.779286 0.4940523 0.7963795 0.2890467 0.9542647 0.002564191 0.9993655 0.3263299 0.9539018 0.002564191 0.9993655 0.9974358 0.9993655 0.3263299 0.9539018 0.6973035 0.4010685 0.4940523 0.7963795 0.5105412 0.8170328 0.3639243 0.9498239 0.3263299 0.9539018 0.9974358 0.9993655 0.4044546 0.9416093 0.3639243 0.9498239 0.9974358 0.9993655 0.9974358 0.9993655 0.5105412 0.8170328 0.5174552 0.8386242 0.4426698 0.9309895 0.4044546 0.9416093 0.9974358 0.9993655 0.4693133 0.9165224 0.4426698 0.9309895 0.9974358 0.9993655 0.9974358 0.9993655 0.5174552 0.8386242 0.5186484 0.8592876 0.9974358 0.9993655 0.5186484 0.8592876 0.510719 0.8811417 0.4947708 0.8999296 0.4693133 0.9165224 0.9974358 0.9993655</float_array>
          <technique_common>
            <accessor source="#Cube-mesh-map-0-array" count="300" stride="2">
              <param name="S" type="float"/>
              <param name="T" type="float"/>
            </accessor>
          </technique_common>
        </source>
        <vertices id="Cube-mesh-vertices">
          <input semantic="POSITION" source="#Cube-mesh-positions"/>
        </vertices>
        <triangles material="Material-material" count="100">
          <input semantic="VERTEX" source="#Cube-mesh-vertices" offset="0"/>
          <input semantic="NORMAL" source="#Cube-mesh-normals" offset="1"/>
          <input semantic="TEXCOORD" source="#Cube-mesh-map-0" offset="2" set="0"/>
          <p>0 0 0 10 0 1 12 0 2 2 1 3 7 1 4 3 1 5 6 2 6 5 2 7 7 2 8 5 3 9 1 3 10 86 3 11 0 4 12 3 4 13 1 4 14 4 5 15 1 5 16 5 5 17 4 0 18 18 0 19 19 0 20 56 3 21 57 3 22 7 3 23 32 0 24 33 0 25 6 0 26 72 3 27 73 3 28 5 3 29 4 0 30 8 0 31 10 0 32 8 0 33 9 0 34 10 0 35 10 0 36 11 0 37 12 0 38 13 0 39 14 0 40 12 0 41 14 0 42 0 0 43 12 0 44 0 0 45 4 0 46 10 0 47 2 1 48 6 1 49 7 1 50 6 2 51 4 2 52 5 2 53 1 3 54 84 3 55 86 3 56 84 3 57 85 3 58 86 3 59 86 3 60 87 3 61 78 3 62 86 3 63 78 3 64 5 3 65 0 4 66 2 4 67 3 4 68 4 5 69 0 5 70 1 5 71 14 0 72 15 0 73 16 0 74 16 6 75 17 6 76 8 6 77 4 7 78 6 7 79 41 7 80 6 0 81 40 0 82 41 0 83 16 0 84 8 0 85 22 0 86 8 0 87 4 0 88 19 0 89 22 0 90 8 0 91 21 0 92 2 8 93 0 8 94 14 8 95 2 9 96 14 9 97 16 9 98 25 10 99 26 10 100 16 10 101 26 0 102 2 0 103 16 0 104 24 0 105 25 0 106 16 0 107 4 11 108 41 11 109 42 11 110 4 0 111 42 0 112 43 0 113 23 0 114 24 0 115 16 0 116 22 0 117 23 0 118 16 0 119 4 0 120 43 0 121 44 0 122 4 12 123 44 12 124 45 12 125 21 0 126 8 0 127 20 0 128 20 0 129 8 0 130 19 0 131 4 13 132 45 13 133 46 13 134 4 0 135 46 0 136 47 0 137 4 0 138 47 0 139 18 0 140 7 3 141 49 3 142 50 3 143 7 3 144 50 3 145 51 3 146 62 3 147 63 3 148 3 3 149 61 3 150 62 3 151 3 3 152 7 3 153 51 3 154 52 3 155 7 3 156 52 3 157 53 3 158 60 3 159 61 3 160 3 3 161 59 3 162 60 3 163 3 3 164 7 3 165 53 3 166 54 3 167 7 3 168 54 3 169 55 3 170 58 3 171 59 3 172 3 3 173 57 3 174 58 3 175 7 3 176 58 3 177 3 3 178 7 3 179 7 3 180 55 3 181 56 3 182 2 14 183 26 14 184 27 14 185 2 15 186 27 15 187 28 15 188 39 0 189 40 0 190 6 0 191 38 0 192 39 0 193 6 0 194 2 0 195 28 0 196 29 0 197 2 0 198 29 0 199 30 0 200 37 0 201 38 0 202 6 0 203 36 0 204 37 0 205 6 0 206 2 0 207 30 0 208 31 0 209 2 0 210 31 0 211 32 0 212 35 0 213 36 0 214 6 0 215 34 0 216 35 0 217 6 0 218 6 0 219 2 0 220 32 0 221 33 0 222 34 0 223 6 0 224 78 3 225 79 3 226 80 3 227 80 3 228 81 3 229 82 3 230 82 3 231 83 3 232 84 3 233 84 3 234 1 3 235 82 3 236 1 3 237 3 3 238 82 3 239 3 16 240 63 16 241 80 16 242 63 3 243 64 3 244 80 3 245 64 3 246 65 3 247 80 3 248 5 3 249 78 3 250 69 3 251 78 3 252 80 3 253 66 3 254 67 3 255 78 3 256 66 3 257 80 17 258 82 17 259 3 17 260 65 3 261 66 3 262 80 3 263 78 3 264 67 3 265 68 3 266 49 3 267 7 3 268 48 3 269 7 3 270 5 3 271 48 3 272 78 3 273 68 3 274 69 3 275 77 3 276 48 3 277 5 3 278 76 3 279 77 3 280 5 3 281 5 3 282 69 3 283 70 3 284 75 18 285 76 18 286 5 18 287 74 3 288 75 3 289 5 3 290 5 3 291 70 3 292 71 3 293 5 3 294 71 3 295 72 3 296 73 3 297 74 3 298 5 3 299</p>
        </triangles>
      </mesh>
    </geometry>
  </library_geometries>
  <library_visual_scenes>
    <visual_scene id="Scene" name="Scene">
      <node id="Camera" name="Camera" type="NODE">
        <matrix sid="transform">0.6859207 -0.3240135 0.6515582 7.358891 0.7276763 0.3054208 -0.6141704 -6.925791 0 0.8953956 0.4452714 4.958309 0 0 0 1</matrix>
        <instance_camera url="#Camera-camera"/>
      </node>
      <node id="Light" name="Light" type="NODE">
        <matrix sid="transform">-0.2908646 -0.7711008 0.5663932 4.076245 0.9551712 -0.1998834 0.2183912 1.005454 -0.05518906 0.6045247 0.7946723 5.903862 0 0 0 1</matrix>
        <instance_light url="#Light-light"/>
      </node>
      <node id="Cube" name="Cube" type="NODE">
        <matrix sid="transform">0.59 0 0 0 0 0.295 0 0 0 0 0.005 0 0 0 0 1</matrix>
        <instance_geometry url="#Cube-mesh" name="Cube">
          <bind_material>
            <technique_common>
              <instance_material symbol="Material-material" target="#Material-material">
                <bind_vertex_input semantic="UVMap" input_semantic="TEXCOORD" input_set="0"/>
              </instance_material>
            </technique_common>
          </bind_material>
        </instance_geometry>
      </node>
    </visual_scene>
  </library_visual_scenes>
  <scene>
    <instance_visual_scene url="#Scene"/>
  </scene>
</COLLADA>