<?xml version="1.0" encoding="utf-8"?>
<COLLADA xmlns="http://www.collada.org/2005/11/COLLADASchema" version="1.4.1" xmlns:xsi="http://www.w3.org/2001/XMLSchema-instance">
  <asset>
    <contributor>
      <author>Blender User</author>
      <authoring_tool>Blender 4.4.3 commit date:2025-04-29, commit time:14:09, hash:802179c51ccc</authoring_tool>
    </contributor>
    <created>2025-05-09T11:55:24</created>
    <modified>2025-05-09T11:55:24</modified>
    <unit name="meter" meter="1"/>
    <up_axis>Z_UP</up_axis>
  </asset>
  <library_effects>
    <effect id="Material-effect">
      <profile_COMMON>
        <newparam sid="Task04_Tagging_02_png-surface">
          <surface type="2D">
            <init_from>Task04_Tagging_02_png</init_from>
          </surface>
        </newparam>
        <newparam sid="Task04_Tagging_02_png-sampler">
          <sampler2D>
            <source>Task04_Tagging_02_png-surface</source>
          </sampler2D>
        </newparam>
        <technique sid="common">
          <lambert>
            <emission>
              <color sid="emission">0 0 0 1</color>
            </emission>
            <diffuse>
              <texture texture="Task04_Tagging_02_png-sampler" texcoord="UVMap"/>
            </diffuse>
            <index_of_refraction>
              <float sid="ior">1.45</float>
            </index_of_refraction>
          </lambert>
        </technique>
      </profile_COMMON>
    </effect>
  </library_effects>
  <library_images>
    <image id="Task04_Tagging_02_png" name="Task04_Tagging_02_png">
      <init_from>Task04_Tagging_02.png</init_from>
    </image>
  </library_images>
  <library_materials>
    <material id="Material-material" name="Material">
      <instance_effect url="#Material-effect"/>
    </material>
  </library_materials>
  <library_geometries>
    <geometry id="Cube_001-mesh" name="Cube.001">
      <mesh>
        <source id="Cube_001-mesh-positions">
          <float_array id="Cube_001-mesh-positions-array" count="414">-1 -1 -1 -1 -1 1 -1 1 -1 -1 1 1 1 -1 -1 1 -1 1 1 1 -1 1 1 1 -0.1001309 1 -0.08748495 -0.07524496 1 -0.02740496 -0.09064662 1 -0.05621939 -0.02926176 1 0.01857823 0.03081816 1 0.04346418 -4.47303e-4 1 0.03397989 -0.0545178 1 -0.002148866 -0.1033334 1 -0.12 -0.1001309 1 -0.152515 -0.06477779 1 -0.2253494 -0.0545178 1 -0.2378511 -0.07524496 1 -0.212595 -0.02926176 1 -0.2585783 -0.09064662 1 -0.1837806 -4.47303e-4 1 -0.2739799 0.03081816 1 -0.2834642 0.09584832 1 0.04346418 0.06333327 1 -0.2866667 0.06333327 1 0.04666662 0.1271138 1 -0.2739799 0.1811844 1 -0.2378511 0.1811844 1 -0.002148866 0.1559283 1 -0.2585783 0.1559283 1 0.01857823 0.2173132 1 -0.1837806 0.2173132 1 -0.05621939 0.2299999 1 -0.12 0.2267975 1 -0.152515 0.2267975 1 -0.08748495 0.2019115 1 -0.02740496 0.2019115 1 -0.212595 0.1271138 1 0.03397989 0.09584832 1 -0.2834642 -4.47303e-4 -1 0.03397989 0.03081816 -1 0.04346418 0.06333327 -1 0.04666662 0.09584832 -1 0.04346418 0.1559283 -1 0.01857823 0.1271138 -1 0.03397989 0.2173132 -1 -0.1837806 0.2019115 -1 -0.02740496 0.2299999 -1 -0.12 0.2267975 -1 -0.152515 0.2267975 -1 -0.08748495 0.2173132 -1 -0.05621939 0.1811844 -1 -0.002148866 -0.1033334 -1 -0.12 -0.09064662 -1 -0.1837806 -0.1001309 -1 -0.152515 -0.1001309 -1 -0.08748495 -0.06498503 -1 -0.2250968 -0.0545178 -1 -0.2378511 -0.0545178 -1 -0.002148866 -0.07524496 -1 -0.212595 -0.07524496 -1 -0.02740496 -0.09064662 -1 -0.05621939 0.06333327 -1 -0.2866667 0.03081816 -1 -0.2834642 -4.47303e-4 -1 -0.2739799 0.1271138 -1 -0.2739799 0.1811844 -1 -0.2378511 0.2019115 -1 -0.212595 0.09584832 -1 -0.2834642 0.1559283 -1 -0.2585783 -0.02926176 -1 -0.2585783 -0.02926176 -1 0.01857823 0.2633333 1 0.7199999 0.2665357 1 0.6874849 0.2665357 1 0.752515 0.27602 1 0.6562194 0.2914217 1 0.812595 0.2914217 1 0.6274049 0.27602 1 0.7837805 0.3121488 1 0.6021488 0.3374049 1 0.8585782 0.3974849 1 0.5565357 0.3662194 1 0.56602 0.3974849 1 0.8834641 0.3374049 1 0.5814216 0.3662194 1 0.8739798 0.3121488 1 0.8378511 0.462515 1 0.5565357 0.462515 1 0.8834641 0.522595 1 0.5814216 0.522595 1 0.8585782 0.4937805 1 0.56602 0.4937805 1 0.8739798 0.5685783 1 0.6274049 0.5685783 1 0.812595 0.5966666 1 0.7199999 0.5934641 1 0.752515 0.5934641 1 0.6874849 0.5839799 1 0.7837805 0.5839799 1 0.6562194 0.5478511 1 0.8378511 0.5478511 1 0.6021488 0.43 1 0.8866666 0.43 1 0.5533332 0.2633333 -1 0.7199999 0.2665357 -1 0.6874849 0.2665357 -1 0.752515 0.2914217 -1 0.6274049 0.27602 -1 0.7837805 0.27602 -1 0.6562194 0.2914217 -1 0.812595 0.3374049 -1 0.5814216 0.3121488 -1 0.8378511 0.3974849 -1 0.8834641 0.3974849 -1 0.5565357 0.3662194 -1 0.8739798 0.3662194 -1 0.56602 0.3374049 -1 0.8585782 0.3121488 -1 0.6021488 0.462515 -1 0.5565357 0.462515 -1 0.8834641 0.522595 -1 0.5814216 0.522595 -1 0.8585782 0.4937805 -1 0.56602 0.4937805 -1 0.8739798 0.5685783 -1 0.6274049 0.5685783 -1 0.812595 0.5966666 -1 0.7199999 0.5934641 -1 0.752515 0.5934641 -1 0.6874849 0.5839799 -1 0.7837805 0.5839799 -1 0.6562194 0.5478511 -1 0.8378511 0.5478511 -1 0.6021488 0.43 -1 0.8866666 0.43 -1 0.5533332</float_array>
          <technique_common>
            <accessor source="#Cube_001-mesh-positions-array" count="138" stride="3">
              <param name="X" type="float"/>
              <param name="Y" type="float"/>
              <param name="Z" type="float"/>
            </accessor>
          </technique_common>
        </source>
        <source id="Cube_001-mesh-normals">
          <float_array id="Cube_001-mesh-normals-array" count="840">-1 0 0 0 1 0 0 1 0 0 1 0 1 0 0 0 -1 0 0 -1 0 0 -1 0 0 0 -1 0 0 1 -0.09801709 0 -0.9951847 -0.2902846 0 -0.9569403 -0.4713969 0 -0.8819211 -0.6343932 0 -0.7730106 -0.7730106 0 -0.6343931 -0.8819211 0 -0.4713969 -0.9569403 0 -0.2902846 -0.9951847 0 -0.09801709 -0.9951847 0 0.09801715 -0.9569404 0 0.2902846 -0.8819211 0 0.4713969 -0.7730107 0 0.634393 -0.634393 0 0.7730107 -0.4713969 0 0.8819211 -0.2902846 0 0.9569403 -0.09801757 0 0.9951846 0.09801757 0 0.9951846 0.2902846 0 0.9569403 0.4713969 0 0.8819211 0.6343931 0 0.7730106 0.7730104 0 0.6343935 0.8819211 0 0.4713969 0.9569404 0 0.2902846 0.9951847 0 0.09801715 0.9951847 0 -0.09801709 0.9569403 0 -0.2902846 0.8819211 0 -0.4713969 0.7730105 0 -0.6343933 0.6343933 0 -0.7730105 0.4713969 0 -0.8819211 0.2902846 0 -0.9569403 0.09801709 0 -0.9951847 -0.09801846 0 -0.9951846 -0.2902846 0 -0.9569404 -0.4713956 0 -0.881922 -0.6343935 0 -0.7730102 -0.7730102 0 -0.6343935 -0.8819221 0 -0.4713951 -0.9569402 0 -0.2902848 -0.9951846 0 -0.09801846 -0.9951846 0 0.09801846 -0.9569402 0 0.2902848 -0.8819221 0 0.4713951 -0.7730102 0 0.6343935 -0.6343935 0 0.7730102 -0.4713956 0 0.881922 -0.2902846 0 0.9569404 -0.09801846 0 0.9951846 0.09801846 0 0.9951846 0.2902846 0 0.9569404 0.4713956 0 0.881922 0.6343935 0 0.7730102 0.7730107 0 0.634393 0.8819214 0 0.4713966 0.9569402 0 0.2902848 0.9951846 0 0.09801757 0.9951846 0 -0.09801757 0.9569402 0 -0.2902848 0.8819214 0 -0.4713966 0.7730107 0 -0.634393 0.6343935 0 -0.7730102 0.4713956 0 -0.881922 0.2902846 0 -0.9569404 0.09801846 0 -0.9951846 -1 0 0 0 1 0 0 1 0 0 1 0 0 1 0 0 1 0 0 1 0 0 1 0 0 1 0 0 1 0 0 1 0 0 1 0 0 1 0 0 1 0 0 1 0 0 1 0 0 1 0 0 1 0 0 1 0 0 1 0 0 1 0 0 1 0 0 1 0 0 1 0 0 1 0 0 1 0 0 1 0 0 1 0 0 1 0 0 1 0 0 1 0 0 1 0 0 1 0 0 1 0 0 1 0 0 1 0 0 1 0 0 1 0 0 1 0 0 1 0 0 1 0 0 1 0 0 1 0 0 1 0 0 1 0 0 1 0 0 1 0 0 1 0 0 1 0 0 1 0 0 1 0 0 1 0 0 1 0 0 1 0 0 1 0 0 1 0 0 1 0 0 1 0 0 1 0 0 1 0 0 1 0 0 1 0 0 1 0 0 1 0 0 1 0 0 1 0 0 1 0 0 1 0 0 1 0 1 0 0 0 -1 0 0 -1 0 0 -1 0 0 -1 0 0 -1 0 0 -1 0 0 -1 0 0 -1 0 0 -1 0 0 -1 0 0 -1 0 0 -1 0 0 -1 0 0 -1 0 0 -1 0 0 -1 0 0 -1 0 0 -1 0 0 -1 0 0 -1 0 0 -1 0 0 -1 0 0 -1 0 0 -1 0 0 -1 0 0 -1 0 0 -1 0 0 -1 0 0 -1 0 0 -1 0 0 -1 0 0 -1 0 0 -1 0 0 -1 0 0 -1 0 0 -1 0 0 -1 0 0 -1 0 0 -1 0 0 -1 0 0 -1 0 0 -1 0 0 -1 0 0 -1 0 0 -1 0 0 -1 0 0 -1 0 0 -1 0 0 -1 0 0 -1 0 0 -1 0 0 -1 0 0 -1 0 0 -1 0 0 -1 0 0 -1 0 0 -1 0 0 -1 0 0 -1 0 0 -1 0 0 -1 0 0 -1 0 0 -1 0 0 -1 0 0 -1 0 0 -1 0 0 -1 0 0 -1 0 0 0 -1 0 0 1 -0.09801709 0 -0.9951847 -0.2902846 0 -0.9569403 -0.4713969 0 -0.8819211 -0.6343932 0 -0.7730106 -0.7730106 0 -0.6343931 -0.8819211 0 -0.4713969 -0.9569403 0 -0.2902846 -0.9951847 0 -0.09801709 -0.9951847 0 0.09801715 -0.9569404 0 0.2902846 -0.8819211 0 0.4713969 -0.7730107 0 0.634393 -0.634393 0 0.7730107 -0.4713969 0 0.8819211 -0.2902846 0 0.9569403 -0.09801757 0 0.9951846 0.09801757 0 0.9951846 0.2902846 0 0.9569403 0.4713969 0 0.8819211 0.6343931 0 0.7730106 0.7730109 0 0.6343929 0.7730104 0 0.6343935 0.7730109 0 0.6343929 0.8819211 0 0.4713969 0.9569404 0 0.2902846 0.9951847 0 0.09801715 0.9951847 0 -0.09801709 0.9569403 0 -0.2902846 0.8819211 0 -0.4713969 0.7730105 0 -0.6343933 0.6343933 0 -0.7730105 0.4713969 0 -0.8819211 0.2902846 0 -0.9569403 0.09801709 0 -0.9951847 -0.09801846 0 -0.9951846 -0.2902846 0 -0.9569404 -0.4713956 0 -0.881922 -0.6343935 0 -0.7730102 -0.7730102 0 -0.6343935 -0.8819221 0 -0.4713951 -0.9569402 0 -0.2902848 -0.9951846 0 -0.09801846 -0.9951846 0 0.09801846 -0.9569402 0 0.2902848 -0.8819221 0 0.4713951 -0.7730102 0 0.6343935 -0.6343935 0 0.7730102 -0.4713956 0 0.881922 -0.2902846 0 0.9569404 -0.09801846 0 0.9951846 0.09801846 0 0.9951846 0.2902846 0 0.9569404 0.4713956 0 0.881922 0.6343935 0 0.7730102 0.7730107 0 0.634393 0.8819214 0 0.4713966 0.9569402 0 0.2902848 0.9951846 0 0.09801757 0.9951846 0 -0.09801757 0.9569402 0 -0.2902848 0.8819214 0 -0.4713966 0.7730107 0 -0.634393 0.6343935 0 -0.7730102 0.4713956 0 -0.881922 0.2902846 0 -0.9569404 0.09801846 0 -0.9951846</float_array>
          <technique_common>
            <accessor source="#Cube_001-mesh-normals-array" count="280" stride="3">
              <param name="X" type="float"/>
              <param name="Y" type="float"/>
              <param name="Z" type="float"/>
            </accessor>
          </technique_common>
        </source>
        <source id="Cube_001-mesh-map-0">
          <float_array id="Cube_001-mesh-map-0-array" count="1680">0.625 0 0.375 0.25 0.375 0 5.97575e-4 1.000464 0.6688762 0.9293121 0.6562491 0.9189532 0.499787 0.5169951 0.6687892 0.790692 0.5154139 0.5217289 -3.0266e-5 1.63943e-4 0.5153113 0.3582156 0.5315585 0.3566038 0.625 0.5 0.375 0.75 0.375 0.5 0.001434743 -0.003726899 0.5318058 0.3533932 0.5155715 0.354972 0.9985652 0.9968995 0.7958187 0.8404824 0.7911046 0.824854 0.5634357 0.513648 0.6824532 0.7796425 0.6680582 0.7873188 0.375 0.5 0.125 0.75 0.125 0.5 0.875 0.5 0.625 0.75 0.625 0.5 0.96875 0.7475001 1 0.7525 1 0.7475 0.9375 0.7475 0.96875 0.7525 0.96875 0.7475001 0.90625 0.7475 0.9375 0.7525 0.9375 0.7475 0.875 0.7475 0.90625 0.7525 0.90625 0.7475 0.875 0.7475 0.84375 0.7525 0.875 0.7525 0.84375 0.7475 0.8125 0.7525001 0.84375 0.7525 0.8125 0.7475 0.78125 0.7525001 0.8125 0.7525001 0.78125 0.7475 0.75 0.7525001 0.78125 0.7525001 0.75 0.7475 0.71875 0.7525001 0.75 0.7525001 0.71875 0.7475 0.6875 0.7525 0.71875 0.7525001 0.6875 0.7475 0.65625 0.7525 0.6875 0.7525 0.65625 0.7475 0.625 0.7525 0.65625 0.7525 0.625 0.7475 0.59375 0.7525 0.625 0.7525 0.59375 0.7475 0.5625 0.7525 0.59375 0.7525 0.5625 0.7475001 0.53125 0.7524999 0.5625 0.7525 0.53125 0.7475 0.5 0.7525 0.53125 0.7524999 0.5 0.7475 0.46875 0.7525 0.5 0.7525 0.46875 0.7475 0.4375 0.7524999 0.46875 0.7525 0.4375 0.7475 0.40625 0.7525 0.4375 0.7524999 0.40625 0.7475 0.375 0.7525 0.40625 0.7525 0.34375 0.7475 0.34375 0.7525 0.3592187 0.7525 0.3125 0.7475 0.34375 0.7525 0.34375 0.7475 0.28125 0.7475 0.3125 0.7525001 0.3125 0.7475 0.25 0.7475 0.28125 0.7525 0.28125 0.7475 0.21875 0.7475 0.25 0.7525 0.25 0.7475 0.1875 0.7475 0.21875 0.7525001 0.21875 0.7475 0.15625 0.7475 0.1875 0.7525 0.1875 0.7475 0.125 0.7475 0.15625 0.7525 0.15625 0.7475 0.09375 0.7475 0.125 0.7525 0.125 0.7475 0.0625 0.7475001 0.09375 0.7525 0.09375 0.7475 0.03125 0.7475 0.0625 0.7525 0.0625 0.7475001 0 0.7475 0.03125 0.7525 0.03125 0.7475 0.96875 0.7475001 1 0.7525 1 0.7475 0.9375 0.7475 0.96875 0.7525 0.96875 0.7475001 0.90625 0.7475 0.9375 0.7525 0.9375 0.7475 0.875 0.7475 0.90625 0.7525 0.90625 0.7475 0.875 0.7475 0.84375 0.7525 0.875 0.7525001 0.84375 0.7475 0.8125 0.7525 0.84375 0.7525 0.8125 0.7475 0.78125 0.7525001 0.8125 0.7525 0.78125 0.7475001 0.75 0.7525001 0.78125 0.7525001 0.75 0.7475001 0.71875 0.7525001 0.75 0.7525001 0.71875 0.7475 0.6875 0.7525 0.71875 0.7525001 0.6875 0.7475 0.65625 0.7525 0.6875 0.7525 0.65625 0.7475 0.625 0.7525 0.65625 0.7525 0.625 0.7475 0.59375 0.7525 0.625 0.7525 0.59375 0.7475 0.5625 0.7525 0.59375 0.7525 0.5625 0.7475 0.53125 0.7525 0.5625 0.7525 0.53125 0.7475 0.5 0.7525 0.53125 0.7525 0.5 0.7475 0.46875 0.7525 0.5 0.7525 0.46875 0.7475 0.4375 0.7525 0.46875 0.7525 0.4375 0.7475 0.40625 0.7525 0.4375 0.7525 0.40625 0.7475 0.375 0.7525 0.40625 0.7525 0.34375 0.7475 0.375 0.7525 0.375 0.7475 0.3125 0.7475 0.34375 0.7525 0.34375 0.7475 0.28125 0.7475 0.3125 0.7525001 0.3125 0.7475 0.25 0.7475 0.28125 0.7525001 0.28125 0.7475 0.21875 0.7475 0.25 0.7525001 0.25 0.7475 0.1875 0.7475 0.21875 0.7525001 0.21875 0.7475 0.15625 0.7475 0.1875 0.7525 0.1875 0.7475 0.125 0.7475 0.15625 0.7525 0.15625 0.7475 0.09375 0.7475 0.125 0.7525 0.125 0.7475 0.0625 0.7475 0.09375 0.7525 0.09375 0.7475 0.03125 0.7475 0.0625 0.7525 0.0625 0.7475 0 0.7475 0.03125 0.7524999 0.03125 0.7475 0.625 0 0.625 0.25 0.375 0.25 0.6561748 0.8010666 0.6687892 0.790692 0.4727558 0.4989424 0.6561748 0.8010666 0.4727558 0.4989424 0.645825 0.8137049 0.4727558 0.4989424 0.4623901 0.486317 5.97575e-4 1.000464 0.645825 0.8137049 0.4727558 0.4989424 0.6381376 0.8281216 0.6381376 0.8281216 0.4727558 0.4989424 0.6334081 0.8437621 0.6334081 0.8437621 0.4727558 0.4989424 5.97575e-4 1.000464 0.4623901 0.486317 0.4546847 0.4719104 5.97575e-4 1.000464 0.6318176 0.8600252 0.6334081 0.8437621 5.97575e-4 1.000464 0.6334283 0.8762866 0.6318176 0.8600252 5.97575e-4 1.000464 0.6381776 0.8919211 0.6334283 0.8762866 5.97575e-4 1.000464 1.00003 0.999836 0.7920702 0.8918246 0.7843829 0.9062409 0.462332 0.3936942 0.4675586 0.3873118 -3.0266e-5 1.63943e-4 0.4546446 0.4081106 0.462332 0.3936942 -3.0266e-5 1.63943e-4 1.00003 0.999836 0.7843829 0.9062409 0.7740329 0.9188793 1.00003 0.999836 0.7740329 0.9188793 0.7614188 0.929254 0.4546446 0.4081106 -3.0266e-5 1.63943e-4 0.4499149 0.423751 -3.0266e-5 1.63943e-4 5.97575e-4 1.000464 0.4499354 0.4562758 0.4499149 0.423751 -3.0266e-5 1.63943e-4 0.4483249 0.4400145 0.4483249 0.4400145 -3.0266e-5 1.63943e-4 0.4499354 0.4562758 1.00003 0.999836 0.7614188 0.929254 0.7470245 0.936966 1.00003 0.999836 0.7470245 0.936966 0.7314035 0.9417194 1.00003 0.999836 0.7314035 0.9417194 0.7151562 0.9433313 1.00003 0.999836 0.7151562 0.9433313 0.698907 0.9417399 0.4546847 0.4719104 0.4499354 0.4562758 5.97575e-4 1.000464 5.97575e-4 1.000464 1.00003 0.999836 0.698907 0.9417399 5.97575e-4 1.000464 0.698907 0.9417399 0.6832799 0.937006 0.6458833 0.9063282 0.6381776 0.8919211 5.97575e-4 1.000464 0.6562491 0.9189532 0.6458833 0.9063282 5.97575e-4 1.000464 5.97575e-4 1.000464 0.6832799 0.937006 0.6688762 0.9293121 0.7968 0.876184 0.7920702 0.8918246 1.00003 0.999836 0.9994021 -4.64141e-4 0.590466 0.3809819 0.6008316 0.3936071 0.9994021 -4.64141e-4 0.6008316 0.3936071 0.6085371 0.4080139 0.7968 0.876184 1.00003 0.999836 0.7983903 0.8599207 1.00003 0.999836 0.9994021 -4.64141e-4 0.7843247 0.813618 0.7983903 0.8599207 1.00003 0.999836 0.7967795 0.8436594 0.7967795 0.8436594 1.00003 0.999836 0.79203 0.8280248 0.9994021 -4.64141e-4 0.6085371 0.4080139 0.6132864 0.4236484 0.9994021 -4.64141e-4 0.6132864 0.4236484 0.6148969 0.4399098 0.79203 0.8280248 1.00003 0.999836 0.7843247 0.813618 0.9994021 -4.64141e-4 0.6148969 0.4399098 0.7739588 0.8009926 0.6148969 0.4399098 0.6133068 0.4561732 0.7613316 0.7906338 0.7739588 0.8009926 0.6148969 0.4399098 0.7613316 0.7906338 0.6133068 0.4561732 0.6085772 0.4718136 0.7469277 0.7829401 0.7739588 0.8009926 0.7843247 0.813618 0.9994021 -4.64141e-4 0.6085772 0.4718136 0.6008898 0.48623 0.7313008 0.7782058 0.7613316 0.7906338 0.6133068 0.4561732 0.7469277 0.7829401 0.7469277 0.7829401 0.6085772 0.4718136 0.7313008 0.7782058 0.6008898 0.48623 0.5905399 0.4988683 0.7150514 0.7766146 0.7313008 0.7782058 0.6008898 0.48623 0.7150514 0.7766146 0.5905399 0.4988683 0.5779256 0.509243 0.6988042 0.7782262 0.7150514 0.7766146 0.5905399 0.4988683 0.6988042 0.7782262 0.5779256 0.509243 0.5635314 0.5169551 0.6831835 0.7829802 0.6988042 0.7782262 0.5779256 0.509243 0.6831835 0.7829802 0.5635314 0.5169551 0.5479105 0.5217086 0.6687892 0.790692 0.6831835 0.7829802 0.5635314 0.5169551 0.6687892 0.790692 0.5479105 0.5217086 0.5316632 0.5233204 0.6687892 0.790692 0.4727558 0.4989424 0.6687892 0.790692 0.4853831 0.5093011 0.4853831 0.5093011 0.6687892 0.790692 0.499787 0.5169951 0.5316632 0.5233204 0.5154139 0.5217289 0.6687892 0.790692 0.5778385 0.370623 0.590466 0.3809819 0.9994021 -4.64141e-4 -3.0266e-5 1.63943e-4 0.4675586 0.3873118 0.4726817 0.3810558 -3.0266e-5 1.63943e-4 0.4726817 0.3810558 0.4852962 0.3706813 0.5778385 0.370623 0.9994021 -4.64141e-4 0.5634347 0.362929 0.9994021 -4.64141e-4 -3.0266e-5 1.63943e-4 0.5315585 0.3566038 0.5634347 0.362929 0.9994021 -4.64141e-4 0.5478078 0.3581952 0.5478078 0.3581952 0.9994021 -4.64141e-4 0.5315585 0.3566038 -3.0266e-5 1.63943e-4 0.4852962 0.3706813 0.4996904 0.3629691 -3.0266e-5 1.63943e-4 0.4996904 0.3629691 0.5153113 0.3582156 0.625 0.5 0.625 0.75 0.375 0.75 0.4729398 0.3777068 0.4677059 0.3840726 0.001434743 -0.003726899 0.9998799 -0.002412319 0.5906077 0.3778617 0.5780128 0.3674886 0.9998799 -0.002412319 0.5780128 0.3674886 0.5636382 0.3597741 0.4855618 0.3673669 0.4729398 0.3777068 0.001434743 -0.003726899 0.4999568 0.3596903 0.4855618 0.3673669 0.001434743 -0.003726899 0.001434743 -0.003726899 0.9998799 -0.002412319 0.5318058 0.3533932 0.9998799 -0.002412319 0.5636382 0.3597741 0.548036 0.3550148 0.9998799 -0.002412319 0.548036 0.3550148 0.5318058 0.3533932 0.5155715 0.354972 0.4999568 0.3596903 0.001434743 -0.003726899 0.6980676 0.7749239 0.6824532 0.7796425 0.5904528 0.4956317 0.6980676 0.7749239 0.5904528 0.4956317 0.7143019 0.7733451 0.5904528 0.4956317 0.6008169 0.4830259 0.7143019 0.7733451 0.7143019 0.7733451 0.6008169 0.4830259 0.7305321 0.7749665 0.6008169 0.4830259 0.6085246 0.4686387 0.7305321 0.7749665 0.7305321 0.7749665 0.6085246 0.4686387 0.7461345 0.7797263 0.6085246 0.4686387 0.6132799 0.453023 0.7461345 0.7797263 0.7461345 0.7797263 0.6132799 0.453023 0.760509 0.7874406 0.6132799 0.453023 0.6149001 0.4367788 0.760509 0.7874406 0.760509 0.7874406 0.6149001 0.4367788 0.7731036 0.7978134 0.6149001 0.4367788 0.6133227 0.4205303 0.9998799 -0.002412319 0.7731036 0.7978134 0.6149001 0.4367788 0.9998799 -0.002412319 0.6133227 0.4205303 0.6086085 0.4049021 0.9998799 -0.002412319 0.7834347 0.8104464 0.7731036 0.7978134 0.9998799 -0.002412319 0.6009386 0.3904947 0.5906077 0.3778617 0.9998799 -0.002412319 0.7911046 0.824854 0.7834347 0.8104464 0.9985652 0.9968995 0.6086085 0.4049021 0.6009386 0.3904947 0.9998799 -0.002412319 0.9985652 0.9968995 0.7910206 0.8885906 0.7957762 0.8729751 0.9985652 0.9968995 0.7957762 0.8729751 0.7973963 0.856731 0.9998799 -0.002412319 0.9985652 0.9968995 0.7834347 0.8104464 0.9985652 0.9968995 0.7973963 0.856731 0.7958187 0.8404824 0.7833127 0.9029779 0.7910206 0.8885906 0.9985652 0.9968995 0.001434743 -0.003726899 0.4677059 0.3840726 0.4625757 0.3903125 0.001434743 -0.003726899 0.4625757 0.3903125 0.454868 0.4046997 0.7729488 0.9155834 0.7833127 0.9029779 0.9985652 0.9968995 0.7603269 0.9259235 0.7729488 0.9155834 0.9985652 0.9968995 1.20111e-4 0.9955849 0.001434743 -0.003726899 0.4500699 0.4528081 0.001434743 -0.003726899 0.454868 0.4046997 0.4501126 0.4203155 0.001434743 -0.003726899 0.4501126 0.4203155 0.4484925 0.4365596 0.7459318 0.9336001 0.7603269 0.9259235 0.9985652 0.9968995 0.7303172 0.9383185 0.7459318 0.9336001 0.9985652 0.9968995 0.001434743 -0.003726899 0.4484925 0.4365596 0.4500699 0.4528081 0.7140828 0.9398971 0.7303172 0.9383185 0.9985652 0.9968995 0.6978527 0.9382756 0.7140828 0.9398971 0.9985652 0.9968995 1.20111e-4 0.9955849 0.4500699 0.4528081 0.4547841 0.4684364 1.20111e-4 0.9955849 0.4547841 0.4684364 0.462454 0.4828438 0.6978527 0.9382756 0.9985652 0.9968995 1.20111e-4 0.9955849 0.6822504 0.9335162 0.6978527 0.9382756 1.20111e-4 0.9955849 1.20111e-4 0.9955849 0.462454 0.4828438 0.4727849 0.4954767 1.20111e-4 0.9955849 0.4727849 0.4954767 0.4853796 0.5058498 0.6678757 0.9258016 0.6822504 0.9335162 1.20111e-4 0.9955849 0.6552808 0.9154287 0.6678757 0.9258016 1.20111e-4 0.9955849 1.20111e-4 0.9955849 0.4853796 0.5058498 0.6326086 0.8402675 0.4853796 0.5058498 0.4997543 0.5135642 0.6326086 0.8402675 0.4997543 0.5135642 0.5153566 0.5183237 0.637364 0.8246516 0.64495 0.9027957 0.6552808 0.9154287 1.20111e-4 0.9955849 0.6372802 0.8883881 0.64495 0.9027957 1.20111e-4 0.9955849 0.4997543 0.5135642 0.637364 0.8246516 0.6326086 0.8402675 0.5153566 0.5183237 0.5315868 0.5199452 0.6450718 0.8102643 0.5153566 0.5183237 0.6450718 0.8102643 0.637364 0.8246516 0.5315868 0.5199452 0.5478211 0.5183665 0.6554359 0.7976585 0.6325659 0.8727598 0.6372802 0.8883881 1.20111e-4 0.9955849 0.6309885 0.8565115 0.6325659 0.8727598 1.20111e-4 0.9955849 0.5315868 0.5199452 0.6554359 0.7976585 0.6450718 0.8102643 0.5478211 0.5183665 0.5634357 0.513648 0.6680582 0.7873188 0.5778307 0.5059716 0.5904528 0.4956317 0.6824532 0.7796425 0.5478211 0.5183665 0.6680582 0.7873188 0.6554359 0.7976585 0.5634357 0.513648 0.5778307 0.5059716 0.6824532 0.7796425 0.6326086 0.8402675 0.6309885 0.8565115 1.20111e-4 0.9955849 0.375 0.5 0.375 0.75 0.125 0.75 0.875 0.5 0.875 0.75 0.625 0.75 0.96875 0.7475001 0.96875 0.7525 1 0.7525 0.9375 0.7475 0.9375 0.7525 0.96875 0.7525 0.90625 0.7475 0.90625 0.7525 0.9375 0.7525 0.875 0.7475 0.875 0.7525 0.90625 0.7525 0.875 0.7475 0.84375 0.7475 0.84375 0.7525 0.84375 0.7475 0.8125 0.7475 0.8125 0.7525001 0.8125 0.7475 0.78125 0.7475 0.78125 0.7525001 0.78125 0.7475 0.75 0.7475 0.75 0.7525001 0.75 0.7475 0.71875 0.7475 0.71875 0.7525001 0.71875 0.7475 0.6875 0.7475 0.6875 0.7525 0.6875 0.7475 0.65625 0.7475 0.65625 0.7525 0.65625 0.7475 0.625 0.7475 0.625 0.7525 0.625 0.7475 0.59375 0.7475 0.59375 0.7525 0.59375 0.7475 0.5625 0.7475001 0.5625 0.7525 0.5625 0.7475001 0.53125 0.7475 0.53125 0.7524999 0.53125 0.7475 0.5 0.7475 0.5 0.7525 0.5 0.7475 0.46875 0.7475 0.46875 0.7525 0.46875 0.7475 0.4375 0.7475 0.4375 0.7524999 0.4375 0.7475 0.40625 0.7475 0.40625 0.7525 0.40625 0.7475 0.375 0.7475 0.375 0.7525 0.3592187 0.7525 0.375 0.7525 0.3595312 0.7475 0.375 0.7525 0.375 0.7475 0.3595312 0.7475 0.3595312 0.7475 0.34375 0.7475 0.3592187 0.7525 0.3125 0.7475 0.3125 0.7525001 0.34375 0.7525 0.28125 0.7475 0.28125 0.7525 0.3125 0.7525001 0.25 0.7475 0.25 0.7525 0.28125 0.7525 0.21875 0.7475 0.21875 0.7525001 0.25 0.7525 0.1875 0.7475 0.1875 0.7525 0.21875 0.7525001 0.15625 0.7475 0.15625 0.7525 0.1875 0.7525 0.125 0.7475 0.125 0.7525 0.15625 0.7525 0.09375 0.7475 0.09375 0.7525 0.125 0.7525 0.0625 0.7475001 0.0625 0.7525 0.09375 0.7525 0.03125 0.7475 0.03125 0.7525 0.0625 0.7525 0 0.7475 0 0.7525001 0.03125 0.7525 0.96875 0.7475001 0.96875 0.7525 1 0.7525 0.9375 0.7475 0.9375 0.7525 0.96875 0.7525 0.90625 0.7475 0.90625 0.7525 0.9375 0.7525 0.875 0.7475 0.875 0.7525001 0.90625 0.7525 0.875 0.7475 0.84375 0.7475 0.84375 0.7525 0.84375 0.7475 0.8125 0.7475 0.8125 0.7525 0.8125 0.7475 0.78125 0.7475001 0.78125 0.7525001 0.78125 0.7475001 0.75 0.7475001 0.75 0.7525001 0.75 0.7475001 0.71875 0.7475 0.71875 0.7525001 0.71875 0.7475 0.6875 0.7475 0.6875 0.7525 0.6875 0.7475 0.65625 0.7475 0.65625 0.7525 0.65625 0.7475 0.625 0.7475 0.625 0.7525 0.625 0.7475 0.59375 0.7475 0.59375 0.7525 0.59375 0.7475 0.5625 0.7475 0.5625 0.7525 0.5625 0.7475 0.53125 0.7475 0.53125 0.7525 0.53125 0.7475 0.5 0.7475 0.5 0.7525 0.5 0.7475 0.46875 0.7475 0.46875 0.7525 0.46875 0.7475 0.4375 0.7475 0.4375 0.7525 0.4375 0.7475 0.40625 0.7475 0.40625 0.7525 0.40625 0.7475 0.375 0.7475 0.375 0.7525 0.34375 0.7475 0.34375 0.7525 0.375 0.7525 0.3125 0.7475 0.3125 0.7525001 0.34375 0.7525 0.28125 0.7475 0.28125 0.7525001 0.3125 0.7525001 0.25 0.7475 0.25 0.7525001 0.28125 0.7525001 0.21875 0.7475 0.21875 0.7525001 0.25 0.7525001 0.1875 0.7475 0.1875 0.7525 0.21875 0.7525001 0.15625 0.7475 0.15625 0.7525 0.1875 0.7525 0.125 0.7475 0.125 0.7525 0.15625 0.7525 0.09375 0.7475 0.09375 0.7525 0.125 0.7525 0.0625 0.7475 0.0625 0.7525 0.09375 0.7525 0.03125 0.7475 0.03125 0.7524999 0.0625 0.7525 0 0.7475 0 0.7525 0.03125 0.7524999</float_array>
          <technique_common>
            <accessor source="#Cube_001-mesh-map-0-array" count="840" stride="2">
              <param name="S" type="float"/>
              <param name="T" type="float"/>
            </accessor>
          </technique_common>
        </source>
        <vertices id="Cube_001-mesh-vertices">
          <input semantic="POSITION" source="#Cube_001-mesh-positions"/>
        </vertices>
        <triangles material="Material-material" count="280">
          <input semantic="VERTEX" source="#Cube_001-mesh-vertices" offset="0"/>
          <input semantic="NORMAL" source="#Cube_001-mesh-normals" offset="1"/>
          <input semantic="TEXCOORD" source="#Cube_001-mesh-map-0" offset="2" set="0"/>
          <p>1 0 0 2 0 1 0 0 2 3 1 3 82 1 4 88 1 5 13 2 6 86 2 7 12 2 8 2 3 9 23 3 10 25 3 11 7 4 12 4 4 13 6 4 14 0 5 15 64 5 16 65 5 17 5 6 18 131 6 19 133 6 20 46 7 21 118 7 22 113 7 23 6 8 24 0 8 25 2 8 26 3 9 27 5 9 28 7 9 29 24 10 30 43 10 31 26 10 32 39 11 33 44 11 34 24 11 35 31 12 36 46 12 37 39 12 38 29 13 39 45 13 40 31 13 41 29 14 42 48 14 43 53 14 44 37 15 45 52 15 46 48 15 47 33 16 48 51 16 49 52 16 50 36 17 51 49 17 52 51 17 53 34 18 54 50 18 55 49 18 56 35 19 57 47 19 58 50 19 59 32 20 60 69 20 61 47 20 62 38 21 63 68 21 64 69 21 65 28 22 66 71 22 67 68 22 68 30 23 69 67 23 70 71 23 71 27 24 72 70 24 73 67 24 74 40 25 75 64 25 76 70 25 77 25 26 78 65 26 79 64 26 80 23 27 81 66 27 82 65 27 83 22 28 84 72 28 85 66 28 86 20 29 87 59 29 88 72 29 89 19 30 90 61 30 91 58 30 92 21 31 93 61 31 94 19 31 95 16 32 96 55 32 97 21 32 98 15 33 99 56 33 100 16 33 101 8 34 102 54 34 103 15 34 104 10 35 105 57 35 106 8 35 107 9 36 108 63 36 109 10 36 110 14 37 111 62 37 112 9 37 113 11 38 114 60 38 115 14 38 116 13 39 117 73 39 118 11 39 119 12 40 120 41 40 121 13 40 122 26 41 123 42 41 124 12 41 125 90 42 126 136 42 127 104 42 128 94 43 129 122 43 130 90 43 131 92 44 132 126 44 133 94 44 134 102 45 135 124 45 136 92 45 137 102 46 138 128 46 139 134 46 140 96 47 141 132 47 142 128 47 143 100 48 144 130 48 145 132 48 146 98 49 147 129 49 148 130 49 149 97 50 150 131 50 151 129 50 152 99 51 153 133 51 154 131 51 155 101 52 156 127 52 157 133 52 158 95 53 159 135 53 160 127 53 161 103 54 162 123 54 163 135 54 164 91 55 165 125 55 166 123 55 167 93 56 168 121 56 169 125 56 170 89 57 171 137 57 172 121 57 173 105 58 174 116 58 175 137 58 176 83 59 177 118 59 178 116 59 179 84 60 180 113 60 181 118 60 182 86 61 183 120 61 184 113 61 185 79 62 186 120 62 187 81 62 188 77 63 189 109 63 190 79 63 191 75 64 192 111 64 193 77 64 194 74 65 195 107 65 196 75 65 197 76 66 198 106 66 199 74 66 200 80 67 201 108 67 202 76 67 203 78 68 204 110 68 205 80 68 206 88 69 207 112 69 208 78 69 209 82 70 210 114 70 211 88 70 212 87 71 213 119 71 214 82 71 215 85 72 216 117 72 217 87 72 218 104 73 219 115 73 220 85 73 221 1 74 222 3 74 223 2 74 224 81 75 225 86 75 226 14 75 227 81 76 228 14 76 229 79 76 230 14 77 231 9 77 232 3 77 233 79 78 234 14 78 235 77 78 236 77 79 237 14 79 238 75 79 239 75 80 240 14 80 241 3 80 242 9 81 243 10 81 244 3 81 245 74 82 246 75 82 247 3 82 248 76 83 249 74 83 250 3 83 251 80 84 252 76 84 253 3 84 254 7 85 255 100 85 256 96 85 257 19 86 258 17 86 259 2 86 260 21 87 261 19 87 262 2 87 263 7 88 264 96 88 265 102 88 266 7 89 267 102 89 268 92 89 269 21 90 270 2 90 271 16 90 272 2 91 273 3 91 274 8 91 275 16 92 276 2 92 277 15 92 278 15 93 279 2 93 280 8 93 281 7 94 282 92 94 283 94 94 284 7 95 285 94 95 286 90 95 287 7 96 288 90 96 289 104 96 290 7 97 291 104 97 292 85 97 293 10 98 294 8 98 295 3 98 296 3 99 297 7 99 298 85 99 299 3 100 300 85 100 301 87 100 302 78 101 303 80 101 304 3 101 305 88 102 306 78 102 307 3 102 308 3 103 309 87 103 310 82 103 311 98 104 312 100 104 313 7 104 314 6 105 315 28 105 316 38 105 317 6 106 318 38 106 319 32 106 320 98 107 321 7 107 322 97 107 323 7 108 324 6 108 325 95 108 326 97 109 327 7 109 328 99 109 329 99 110 330 7 110 331 101 110 332 6 111 333 32 111 334 35 111 335 6 112 336 35 112 337 34 112 338 101 113 339 7 113 340 95 113 341 6 114 342 34 114 343 103 114 344 34 115 345 36 115 346 91 115 347 103 116 348 34 116 349 91 116 350 36 117 351 33 117 352 93 117 353 103 118 354 95 118 355 6 118 356 33 119 357 37 119 358 89 119 359 91 120 360 36 120 361 93 120 362 93 121 363 33 121 364 89 121 365 37 122 366 29 122 367 105 122 368 89 123 369 37 123 370 105 123 371 29 124 372 31 124 373 83 124 374 105 125 375 29 125 376 83 125 377 31 126 378 39 126 379 84 126 380 83 127 381 31 127 382 84 127 383 39 128 384 24 128 385 86 128 386 84 129 387 39 129 388 86 129 389 24 130 390 26 130 391 86 130 392 14 131 393 86 131 394 11 131 395 11 132 396 86 132 397 13 132 398 26 133 399 12 133 400 86 133 401 30 134 402 28 134 403 6 134 404 2 135 405 17 135 406 18 135 407 2 136 408 18 136 409 20 136 410 30 137 411 6 137 412 27 137 413 6 138 414 2 138 415 25 138 416 27 139 417 6 139 418 40 139 419 40 140 420 6 140 421 25 140 422 2 141 423 20 141 424 22 141 425 2 142 426 22 142 427 23 142 428 7 143 429 5 143 430 4 143 431 59 144 432 58 144 433 0 144 434 4 145 435 68 145 436 71 145 437 4 146 438 71 146 439 67 146 440 72 147 441 59 147 442 0 147 443 66 148 444 72 148 445 0 148 446 0 149 447 4 149 448 64 149 449 4 150 450 67 150 451 70 150 452 4 151 453 70 151 454 64 151 455 65 152 456 66 152 457 0 152 458 116 153 459 118 153 460 53 153 461 116 154 462 53 154 463 137 154 464 53 155 465 48 155 466 137 155 467 137 156 468 48 156 469 121 156 470 48 157 471 52 157 472 121 157 473 121 158 474 52 158 475 125 158 476 52 159 477 51 159 478 125 159 479 125 160 480 51 160 481 123 160 482 51 161 483 49 161 484 123 161 485 123 162 486 49 162 487 135 162 488 49 163 489 50 163 490 4 163 491 135 164 492 49 164 493 4 164 494 50 165 495 47 165 496 4 165 497 127 166 498 135 166 499 4 166 500 69 167 501 68 167 502 4 167 503 133 168 504 127 168 505 5 168 506 47 169 507 69 169 508 4 169 509 5 170 510 132 170 511 130 170 512 5 171 513 130 171 514 129 171 515 4 172 516 5 172 517 127 172 518 5 173 519 129 173 520 131 173 521 128 174 522 132 174 523 5 174 524 0 175 525 58 175 526 61 175 527 0 176 528 61 176 529 55 176 530 134 177 531 128 177 532 5 177 533 124 178 534 134 178 535 5 178 536 1 179 537 0 179 538 57 179 539 0 180 540 55 180 541 56 180 542 0 181 543 56 181 544 54 181 545 126 182 546 124 182 547 5 182 548 122 183 549 126 183 550 5 183 551 0 184 552 54 184 553 57 184 554 136 185 555 122 185 556 5 185 557 115 186 558 136 186 559 5 186 560 1 187 561 57 187 562 63 187 563 1 188 564 63 188 565 62 188 566 115 189 567 5 189 568 1 189 569 117 190 570 115 190 571 1 190 572 1 191 573 62 191 574 60 191 575 1 192 576 60 192 577 73 192 578 119 193 579 117 193 580 1 193 581 114 194 582 119 194 583 1 194 584 1 195 585 73 195 586 107 195 587 73 196 588 41 196 589 107 196 590 41 197 591 42 197 592 111 197 593 112 198 594 114 198 595 1 198 596 110 199 597 112 199 598 1 199 599 41 200 600 111 200 601 107 200 602 42 201 603 43 201 604 109 201 605 42 202 606 109 202 607 111 202 608 43 203 609 44 203 610 120 203 611 108 204 612 110 204 613 1 204 614 106 205 615 108 205 616 1 205 617 43 206 618 120 206 619 109 206 620 44 207 621 46 207 622 113 207 623 45 208 624 53 208 625 118 208 626 44 209 627 113 209 628 120 209 629 46 210 630 45 210 631 118 210 632 107 211 633 106 211 634 1 211 635 6 212 636 4 212 637 0 212 638 3 213 639 1 213 640 5 213 641 24 214 642 44 214 643 43 214 644 39 215 645 46 215 646 44 215 647 31 216 648 45 216 649 46 216 650 29 217 651 53 217 652 45 217 653 29 218 654 37 218 655 48 218 656 37 219 657 33 219 658 52 219 659 33 220 660 36 220 661 51 220 662 36 221 663 34 221 664 49 221 665 34 222 666 35 222 667 50 222 668 35 223 669 32 223 670 47 223 671 32 224 672 38 224 673 69 224 674 38 225 675 28 225 676 68 225 677 28 226 678 30 226 679 71 226 680 30 227 681 27 227 682 67 227 683 27 228 684 40 228 685 70 228 686 40 229 687 25 229 688 64 229 689 25 230 690 23 230 691 65 230 692 23 231 693 22 231 694 66 231 695 22 232 696 20 232 697 72 232 698 20 233 699 18 233 700 59 233 701 58 234 702 59 234 703 17 234 704 59 235 705 18 235 706 17 235 707 17 236 708 19 236 709 58 236 710 21 237 711 55 237 712 61 237 713 16 238 714 56 238 715 55 238 716 15 239 717 54 239 718 56 239 719 8 240 720 57 240 721 54 240 722 10 241 723 63 241 724 57 241 725 9 242 726 62 242 727 63 242 728 14 243 729 60 243 730 62 243 731 11 244 732 73 244 733 60 244 734 13 245 735 41 245 736 73 245 737 12 246 738 42 246 739 41 246 740 26 247 741 43 247 742 42 247 743 90 248 744 122 248 745 136 248 746 94 249 747 126 249 748 122 249 749 92 250 750 124 250 751 126 250 752 102 251 753 134 251 754 124 251 755 102 252 756 96 252 757 128 252 758 96 253 759 100 253 760 132 253 761 100 254 762 98 254 763 130 254 764 98 255 765 97 255 766 129 255 767 97 256 768 99 256 769 131 256 770 99 257 771 101 257 772 133 257 773 101 258 774 95 258 775 127 258 776 95 259 777 103 259 778 135 259 779 103 260 780 91 260 781 123 260 782 91 261 783 93 261 784 125 261 785 93 262 786 89 262 787 121 262 788 89 263 789 105 263 790 137 263 791 105 264 792 83 264 793 116 264 794 83 265 795 84 265 796 118 265 797 84 266 798 86 266 799 113 266 800 86 267 801 81 267 802 120 267 803 79 268 804 109 268 805 120 268 806 77 269 807 111 269 808 109 269 809 75 270 810 107 270 811 111 270 812 74 271 813 106 271 814 107 271 815 76 272 816 108 272 817 106 272 818 80 273 819 110 273 820 108 273 821 78 274 822 112 274 823 110 274 824 88 275 825 114 275 826 112 275 827 82 276 828 119 276 829 114 276 830 87 277 831 117 277 832 119 277 833 85 278 834 115 278 835 117 278 836 104 279 837 136 279 838 115 279 839</p>
        </triangles>
      </mesh>
    </geometry>
  </library_geometries>
  <library_visual_scenes>
    <visual_scene id="Scene" name="Scene">
      <node id="Cube" name="Cube" type="NODE">
        <matrix sid="transform">0.3 0 0 0.3 0 0.005 0 0 0 0 0.3 0.3 0 0 0 1</matrix>
        <instance_geometry url="#Cube_001-mesh" name="Cube">
          <bind_material>
            <technique_common>
              <instance_material symbol="Material-material" target="#Material-material">
                <bind_vertex_input semantic="UVMap" input_semantic="TEXCOORD" input_set="0"/>
              </instance_material>
            </technique_common>
          </bind_material>
        </instance_geometry>
      </node>
    </visual_scene>
  </library_visual_scenes>
  <scene>
    <instance_visual_scene url="#Scene"/>
  </scene>
</COLLADA>