# Blender v3.0.1 OBJ File: 'gate.blend'
# www.blender.org
mtllib gate.mtl
o Circle
v -1.493650 0.000000 0.000000
v -1.493772 0.000000 -0.001229
v -1.494133 0.000000 -0.002411
v -1.494720 0.000000 -0.003500
v -1.495510 0.000000 -0.004455
v -1.496472 0.000000 -0.005238
v -1.497570 0.000000 -0.005820
v -1.498761 0.000000 -0.006179
v -1.500000 0.000000 -0.006300
v -1.501239 0.000000 -0.006179
v -1.502430 0.000000 -0.005820
v -1.503528 0.000000 -0.005238
v -1.504490 0.000000 -0.004455
v -1.505280 0.000000 -0.003500
v -1.505867 0.000000 -0.002411
v -1.506228 0.000000 -0.001229
v -1.506350 0.000000 0.000000
v -1.506228 0.000000 0.001229
v -1.505867 0.000000 0.002411
v -1.505280 0.000000 0.003500
v -1.504490 0.000000 0.004455
v -1.503528 0.000000 0.005238
v -1.502430 0.000000 0.005820
v -1.501239 0.000000 0.006179
v -1.500000 0.000000 0.006300
v -1.498761 0.000000 0.006179
v -1.497570 0.000000 0.005820
v -1.496472 0.000000 0.005238
v -1.495510 0.000000 0.004455
v -1.494720 0.000000 0.003500
v -1.494133 0.000000 0.002411
v -1.493772 0.000000 0.001229
v -1.493650 1.500000 0.000000
v -1.493772 1.500000 -0.001229
v -1.494133 1.500000 -0.002411
v -1.494720 1.500000 -0.003500
v -1.495510 1.500000 -0.004455
v -1.496472 1.500000 -0.005238
v -1.497570 1.500000 -0.005820
v -1.498761 1.500000 -0.006179
v -1.500000 1.500000 -0.006300
v -1.501239 1.500000 -0.006179
v -1.502430 1.500000 -0.005820
v -1.503528 1.500000 -0.005238
v -1.504490 1.500000 -0.004455
v -1.505280 1.500000 -0.003500
v -1.505867 1.500000 -0.002411
v -1.506228 1.500000 -0.001229
v -1.506350 1.500000 0.000000
v -1.506228 1.500000 0.001229
v -1.505867 1.500000 0.002411
v -1.505280 1.500000 0.003500
v -1.504490 1.500000 0.004455
v -1.503528 1.500000 0.005238
v -1.502430 1.500000 0.005820
v -1.501239 1.500000 0.006179
v -1.500000 1.500000 0.006300
v -1.498761 1.500000 0.006179
v -1.497570 1.500000 0.005820
v -1.496472 1.500000 0.005238
v -1.495510 1.500000 0.004455
v -1.494720 1.500000 0.003500
v -1.494133 1.500000 0.002411
v -1.493772 1.500000 0.001229
vt 0.000000 0.000000
vt 0.000000 0.000000
vt 0.000000 0.000000
vt 0.000000 0.000000
vt 0.000000 0.000000
vt 0.000000 0.000000
vt 0.000000 0.000000
vt 0.000000 0.000000
vt 0.000000 0.000000
vt 0.000000 0.000000
vt 0.000000 0.000000
vt 0.000000 0.000000
vt 0.000000 0.000000
vt 0.000000 0.000000
vt 0.000000 0.000000
vt 0.000000 0.000000
vt 0.000000 0.000000
vt 0.000000 0.000000
vt 0.000000 0.000000
vt 0.000000 0.000000
vt 0.000000 0.000000
vt 0.000000 0.000000
vt 0.000000 0.000000
vt 0.000000 0.000000
vt 0.000000 0.000000
vt 0.000000 0.000000
vt 0.000000 0.000000
vt 0.000000 0.000000
vt 0.000000 0.000000
vt 0.000000 0.000000
vt 0.000000 0.000000
vt 0.000000 0.000000
vt 0.000000 0.000000
vt 0.000000 0.000000
vt 0.000000 0.000000
vt 0.000000 0.000000
vt 0.000000 0.000000
vt 0.000000 0.000000
vt 0.000000 0.000000
vt 0.000000 0.000000
vt 0.000000 0.000000
vt 0.000000 0.000000
vt 0.000000 0.000000
vt 0.000000 0.000000
vt 0.000000 0.000000
vt 0.000000 0.000000
vt 0.000000 0.000000
vt 0.000000 0.000000
vt 0.000000 0.000000
vt 0.000000 0.000000
vt 0.000000 0.000000
vt 0.000000 0.000000
vt 0.000000 0.000000
vt 0.000000 0.000000
vt 0.000000 0.000000
vt 0.000000 0.000000
vt 0.000000 0.000000
vt 0.000000 0.000000
vt 0.000000 0.000000
vt 0.000000 0.000000
vt 0.000000 0.000000
vt 0.000000 0.000000
vt 0.000000 0.000000
vt 0.000000 0.000000
vn 0.6314 0.0000 0.7755
vn -0.2882 0.0000 -0.9576
vn 0.7706 0.0000 0.6374
vn -0.4685 0.0000 -0.8835
vn 0.8803 0.0000 0.4743
vn -0.9951 0.0000 0.0988
vn -0.6314 0.0000 -0.7755
vn 0.9563 0.0000 0.2924
vn -0.9563 0.0000 0.2924
vn -0.7706 0.0000 -0.6374
vn 0.9951 0.0000 0.0988
vn -0.8803 0.0000 0.4743
vn -0.8803 0.0000 -0.4743
vn 0.9951 0.0000 -0.0988
vn -0.7706 0.0000 0.6374
vn -0.9563 0.0000 -0.2924
vn 0.9563 0.0000 -0.2924
vn -0.6314 0.0000 0.7755
vn -0.9951 0.0000 -0.0988
vn 0.8803 0.0000 -0.4743
vn -0.4685 0.0000 0.8835
vn 0.7706 0.0000 -0.6374
vn -0.2882 0.0000 0.9576
vn 0.6314 0.0000 -0.7755
vn -0.0973 0.0000 0.9953
vn 0.4685 0.0000 -0.8835
vn 0.0973 0.0000 0.9953
vn 0.2882 0.0000 -0.9576
vn 0.2882 0.0000 0.9576
vn 0.0973 0.0000 -0.9953
vn 0.4685 0.0000 0.8835
vn -0.0973 0.0000 -0.9953
g Circle_Circle_None
usemtl None
s off
f 13/1/1 12/2/1 44/3/1 45/4/1
f 27/5/2 26/6/2 58/7/2 59/8/2
f 14/9/3 13/1/3 45/4/3 46/10/3
f 28/11/4 27/5/4 59/8/4 60/12/4
f 15/13/5 14/9/5 46/10/5 47/14/5
f 2/15/6 1/16/6 33/17/6 34/18/6
f 29/19/7 28/11/7 60/12/7 61/20/7
f 16/21/8 15/13/8 47/14/8 48/22/8
f 3/23/9 2/15/9 34/18/9 35/24/9
f 30/25/10 29/19/10 61/20/10 62/26/10
f 17/27/11 16/21/11 48/22/11 49/28/11
f 4/29/12 3/23/12 35/24/12 36/30/12
f 31/31/13 30/25/13 62/26/13 63/32/13
f 18/33/14 17/27/14 49/28/14 50/34/14
f 5/35/15 4/29/15 36/30/15 37/36/15
f 32/37/16 31/31/16 63/32/16 64/38/16
f 19/39/17 18/33/17 50/34/17 51/40/17
f 6/41/18 5/35/18 37/36/18 38/42/18
f 1/16/19 32/37/19 64/38/19 33/17/19
f 20/43/20 19/39/20 51/40/20 52/44/20
f 7/45/21 6/41/21 38/42/21 39/46/21
f 21/47/22 20/43/22 52/44/22 53/48/22
f 8/49/23 7/45/23 39/46/23 40/50/23
f 22/51/24 21/47/24 53/48/24 54/52/24
f 9/53/25 8/49/25 40/50/25 41/54/25
f 23/55/26 22/51/26 54/52/26 55/56/26
f 10/57/27 9/53/27 41/54/27 42/58/27
f 24/59/28 23/55/28 55/56/28 56/60/28
f 11/61/29 10/57/29 42/58/29 43/62/29
f 25/63/30 24/59/30 56/60/30 57/64/30
f 12/2/31 11/61/31 43/62/31 44/3/31
f 26/6/32 25/63/32 57/64/32 58/7/32
o Circle.001
v 1.506350 0.000000 0.000000
v 1.506228 0.000000 -0.001229
v 1.505867 0.000000 -0.002411
v 1.505280 0.000000 -0.003500
v 1.504490 0.000000 -0.004455
v 1.503528 0.000000 -0.005238
v 1.502430 0.000000 -0.005820
v 1.501239 0.000000 -0.006179
v 1.500000 0.000000 -0.006300
v 1.498761 0.000000 -0.006179
v 1.497570 0.000000 -0.005820
v 1.496472 0.000000 -0.005238
v 1.495510 0.000000 -0.004455
v 1.494720 0.000000 -0.003500
v 1.494133 0.000000 -0.002411
v 1.493772 0.000000 -0.001229
v 1.493650 0.000000 0.000000
v 1.493772 0.000000 0.001229
v 1.494133 0.000000 0.002411
v 1.494720 0.000000 0.003500
v 1.495510 0.000000 0.004455
v 1.496472 0.000000 0.005238
v 1.497570 0.000000 0.005820
v 1.498761 0.000000 0.006179
v 1.500000 0.000000 0.006300
v 1.501239 0.000000 0.006179
v 1.502430 0.000000 0.005820
v 1.503528 0.000000 0.005238
v 1.504490 0.000000 0.004455
v 1.505280 0.000000 0.003500
v 1.505867 0.000000 0.002411
v 1.506228 0.000000 0.001229
v 1.506350 1.500000 0.000000
v 1.506228 1.500000 -0.001229
v 1.505867 1.500000 -0.002411
v 1.505280 1.500000 -0.003500
v 1.504490 1.500000 -0.004455
v 1.503528 1.500000 -0.005238
v 1.502430 1.500000 -0.005820
v 1.501239 1.500000 -0.006179
v 1.500000 1.500000 -0.006300
v 1.498761 1.500000 -0.006179
v 1.497570 1.500000 -0.005820
v 1.496472 1.500000 -0.005238
v 1.495510 1.500000 -0.004455
v 1.494720 1.500000 -0.003500
v 1.494133 1.500000 -0.002411
v 1.493772 1.500000 -0.001229
v 1.493650 1.500000 0.000000
v 1.493772 1.500000 0.001229
v 1.494133 1.500000 0.002411
v 1.494720 1.500000 0.003500
v 1.495510 1.500000 0.004455
v 1.496472 1.500000 0.005238
v 1.497570 1.500000 0.005820
v 1.498761 1.500000 0.006179
v 1.500000 1.500000 0.006300
v 1.501239 1.500000 0.006179
v 1.502430 1.500000 0.005820
v 1.503528 1.500000 0.005238
v 1.504490 1.500000 0.004455
v 1.505280 1.500000 0.003500
v 1.505867 1.500000 0.002411
v 1.506228 1.500000 0.001229
vt 0.000000 0.000000
vt 0.000000 0.000000
vt 0.000000 0.000000
vt 0.000000 0.000000
vt 0.000000 0.000000
vt 0.000000 0.000000
vt 0.000000 0.000000
vt 0.000000 0.000000
vt 0.000000 0.000000
vt 0.000000 0.000000
vt 0.000000 0.000000
vt 0.000000 0.000000
vt 0.000000 0.000000
vt 0.000000 0.000000
vt 0.000000 0.000000
vt 0.000000 0.000000
vt 0.000000 0.000000
vt 0.000000 0.000000
vt 0.000000 0.000000
vt 0.000000 0.000000
vt 0.000000 0.000000
vt 0.000000 0.000000
vt 0.000000 0.000000
vt 0.000000 0.000000
vt 0.000000 0.000000
vt 0.000000 0.000000
vt 0.000000 0.000000
vt 0.000000 0.000000
vt 0.000000 0.000000
vt 0.000000 0.000000
vt 0.000000 0.000000
vt 0.000000 0.000000
vt 0.000000 0.000000
vt 0.000000 0.000000
vt 0.000000 0.000000
vt 0.000000 0.000000
vt 0.000000 0.000000
vt 0.000000 0.000000
vt 0.000000 0.000000
vt 0.000000 0.000000
vt 0.000000 0.000000
vt 0.000000 0.000000
vt 0.000000 0.000000
vt 0.000000 0.000000
vt 0.000000 0.000000
vt 0.000000 0.000000
vt 0.000000 0.000000
vt 0.000000 0.000000
vt 0.000000 0.000000
vt 0.000000 0.000000
vt 0.000000 0.000000
vt 0.000000 0.000000
vt 0.000000 0.000000
vt 0.000000 0.000000
vt 0.000000 0.000000
vt 0.000000 0.000000
vt 0.000000 0.000000
vt 0.000000 0.000000
vt 0.000000 0.000000
vt 0.000000 0.000000
vt 0.000000 0.000000
vt 0.000000 0.000000
vt 0.000000 0.000000
vt 0.000000 0.000000
vn 0.6314 0.0000 0.7755
vn -0.2882 0.0000 -0.9576
vn 0.7706 0.0000 0.6374
vn -0.4685 0.0000 -0.8835
vn 0.8803 0.0000 0.4743
vn -0.9951 0.0000 0.0988
vn -0.6314 0.0000 -0.7755
vn 0.9563 0.0000 0.2924
vn -0.9563 0.0000 0.2924
vn -0.7706 0.0000 -0.6374
vn 0.9951 0.0000 0.0988
vn -0.8803 0.0000 0.4743
vn -0.8803 0.0000 -0.4743
vn 0.9951 0.0000 -0.0988
vn -0.7706 0.0000 0.6374
vn -0.9563 0.0000 -0.2924
vn 0.9563 0.0000 -0.2924
vn -0.6314 0.0000 0.7755
vn -0.9951 0.0000 -0.0988
vn 0.8803 0.0000 -0.4743
vn -0.4685 0.0000 0.8835
vn 0.7706 0.0000 -0.6374
vn -0.2882 0.0000 0.9576
vn 0.6314 0.0000 -0.7755
vn -0.0973 0.0000 0.9953
vn 0.4685 0.0000 -0.8835
vn 0.0973 0.0000 0.9953
vn 0.2882 0.0000 -0.9576
vn 0.2882 0.0000 0.9576
vn 0.0973 0.0000 -0.9953
vn 0.4685 0.0000 0.8835
vn -0.0973 0.0000 -0.9953
g Circle.001_Circle.001_None
usemtl None
s off
f 77/65/33 76/66/33 108/67/33 109/68/33
f 91/69/34 90/70/34 122/71/34 123/72/34
f 78/73/35 77/65/35 109/68/35 110/74/35
f 92/75/36 91/69/36 123/72/36 124/76/36
f 79/77/37 78/73/37 110/74/37 111/78/37
f 66/79/38 65/80/38 97/81/38 98/82/38
f 93/83/39 92/75/39 124/76/39 125/84/39
f 80/85/40 79/77/40 111/78/40 112/86/40
f 67/87/41 66/79/41 98/82/41 99/88/41
f 94/89/42 93/83/42 125/84/42 126/90/42
f 81/91/43 80/85/43 112/86/43 113/92/43
f 68/93/44 67/87/44 99/88/44 100/94/44
f 95/95/45 94/89/45 126/90/45 127/96/45
f 82/97/46 81/91/46 113/92/46 114/98/46
f 69/99/47 68/93/47 100/94/47 101/100/47
f 96/101/48 95/95/48 127/96/48 128/102/48
f 83/103/49 82/97/49 114/98/49 115/104/49
f 70/105/50 69/99/50 101/100/50 102/106/50
f 65/80/51 96/101/51 128/102/51 97/81/51
f 84/107/52 83/103/52 115/104/52 116/108/52
f 71/109/53 70/105/53 102/106/53 103/110/53
f 85/111/54 84/107/54 116/108/54 117/112/54
f 72/113/55 71/109/55 103/110/55 104/114/55
f 86/115/56 85/111/56 117/112/56 118/116/56
f 73/117/57 72/113/57 104/114/57 105/118/57
f 87/119/58 86/115/58 118/116/58 119/120/58
f 74/121/59 73/117/59 105/118/59 106/122/59
f 88/123/60 87/119/60 119/120/60 120/124/60
f 75/125/61 74/121/61 106/122/61 107/126/61
f 89/127/62 88/123/62 120/124/62 121/128/62
f 76/66/63 75/125/63 107/126/63 108/67/63
f 90/70/64 89/127/64 121/128/64 122/71/64
o Plane
v -1.525400 0.820400 -0.025400
v -1.525400 0.820400 0.025400
v -1.474600 0.820400 -0.025400
v -1.474600 0.820400 0.025400
v -1.525400 0.820400 -0.025400
v -1.525400 0.820400 0.025400
v -1.474600 0.820400 -0.025400
v -1.474600 0.820400 0.025400
v -1.525400 1.430000 -0.025400
v -1.525400 1.430000 0.025400
v -1.474600 1.430000 -0.025400
v -1.474600 1.430000 0.025400
vt 0.000000 0.000000
vt 0.000000 1.000000
vt 1.000000 1.000000
vt 1.000000 0.000000
vt 1.000000 0.000000
vt 1.000000 1.000000
vt 1.000000 1.000000
vt 1.000000 0.000000
vt 0.000000 0.000000
vt 0.000000 1.000000
vt 0.000000 0.000000
vt 0.000000 1.000000
vn 0.0000 -1.0000 0.0000
vn 0.0000 0.0000 1.0000
vn 0.0000 1.0000 0.0000
vn 0.0000 0.0000 -1.0000
vn 1.0000 0.0000 0.0000
vn -1.0000 0.0000 0.0000
g Plane_Plane_black
usemtl black
s off
f 129/129/65 131/130/65 132/131/65 130/132/65
f 134/133/66 136/134/66 140/135/66 138/136/66
f 130/132/66 132/131/66 136/134/66 134/133/66
f 131/130/66 129/129/66 133/137/66 135/138/66
f 132/131/66 131/130/66 135/138/66 136/134/66
f 129/129/66 130/132/66 134/133/66 133/137/66
f 137/139/67 138/136/67 140/135/67 139/140/67
f 135/138/68 133/137/68 137/139/68 139/140/68
f 136/134/69 135/138/69 139/140/69 140/135/69
f 133/137/70 134/133/70 138/136/70 137/139/70
o Plane.001
v -1.525400 0.210800 -0.025400
v -1.525400 0.210800 0.025400
v -1.474600 0.210800 -0.025400
v -1.474600 0.210800 0.025400
v -1.525400 0.210800 -0.025400
v -1.525400 0.210800 0.025400
v -1.474600 0.210800 -0.025400
v -1.474600 0.210800 0.025400
v -1.525400 0.820400 -0.025400
v -1.525400 0.820400 0.025400
v -1.474600 0.820400 -0.025400
v -1.474600 0.820400 0.025400
vt 0.000000 0.000000
vt 0.000000 1.000000
vt 1.000000 1.000000
vt 1.000000 0.000000
vt 1.000000 0.000000
vt 1.000000 1.000000
vt 1.000000 1.000000
vt 1.000000 0.000000
vt 0.000000 0.000000
vt 0.000000 1.000000
vt 0.000000 0.000000
vt 0.000000 1.000000
vn 0.0000 -1.0000 0.0000
vn 0.0000 0.0000 1.0000
vn 0.0000 1.0000 0.0000
vn 0.0000 0.0000 -1.0000
vn 1.0000 0.0000 0.0000
vn -1.0000 0.0000 0.0000
g Plane.001_Plane.001_Red
usemtl Red
s off
f 141/141/71 143/142/71 144/143/71 142/144/71
f 146/145/72 148/146/72 152/147/72 150/148/72
f 142/144/72 144/143/72 148/146/72 146/145/72
f 143/142/72 141/141/72 145/149/72 147/150/72
f 144/143/72 143/142/72 147/150/72 148/146/72
f 141/141/72 142/144/72 146/145/72 145/149/72
f 149/151/73 150/148/73 152/147/73 151/152/73
f 147/150/74 145/149/74 149/151/74 151/152/74
f 148/146/75 147/150/75 151/152/75 152/147/75
f 145/149/76 146/145/76 150/148/76 149/151/76
o Plane.004
v 1.474600 0.820400 -0.025400
v 1.474600 0.820400 0.025400
v 1.525400 0.820400 -0.025400
v 1.525400 0.820400 0.025400
v 1.474600 0.820400 -0.025400
v 1.474600 0.820400 0.025400
v 1.525400 0.820400 -0.025400
v 1.525400 0.820400 0.025400
v 1.474600 1.430000 -0.025400
v 1.474600 1.430000 0.025400
v 1.525400 1.430000 -0.025400
v 1.525400 1.430000 0.025400
vt 0.000000 0.000000
vt 0.000000 1.000000
vt 1.000000 1.000000
vt 1.000000 0.000000
vt 1.000000 0.000000
vt 1.000000 1.000000
vt 1.000000 1.000000
vt 1.000000 0.000000
vt 0.000000 0.000000
vt 0.000000 1.000000
vt 0.000000 0.000000
vt 0.000000 1.000000
vn 0.0000 -1.0000 0.0000
vn 0.0000 0.0000 1.0000
vn 0.0000 1.0000 0.0000
vn 0.0000 0.0000 -1.0000
vn 1.0000 0.0000 0.0000
vn -1.0000 0.0000 0.0000
g Plane.004_Plane.004_Red
usemtl Red
s off
f 153/153/77 155/154/77 156/155/77 154/156/77
f 158/157/78 160/158/78 164/159/78 162/160/78
f 154/156/78 156/155/78 160/158/78 158/157/78
f 155/154/78 153/153/78 157/161/78 159/162/78
f 156/155/78 155/154/78 159/162/78 160/158/78
f 153/153/78 154/156/78 158/157/78 157/161/78
f 161/163/79 162/160/79 164/159/79 163/164/79
f 159/162/80 157/161/80 161/163/80 163/164/80
f 160/158/81 159/162/81 163/164/81 164/159/81
f 157/161/82 158/157/82 162/160/82 161/163/82
o Circle.002
v 1.500000 1.506350 0.000000
v 1.500000 1.506228 -0.001229
v 1.500000 1.505867 -0.002411
v 1.500000 1.505280 -0.003500
v 1.500000 1.504490 -0.004455
v 1.500000 1.503528 -0.005238
v 1.500000 1.502430 -0.005820
v 1.500000 1.501239 -0.006179
v 1.500000 1.500000 -0.006300
v 1.500000 1.498761 -0.006179
v 1.500000 1.497570 -0.005820
v 1.500000 1.496472 -0.005238
v 1.500000 1.495510 -0.004455
v 1.500000 1.494720 -0.003500
v 1.500000 1.494133 -0.002411
v 1.500000 1.493772 -0.001229
v 1.500000 1.493650 0.000000
v 1.500000 1.493772 0.001229
v 1.500000 1.494133 0.002411
v 1.500000 1.494720 0.003500
v 1.500000 1.495510 0.004455
v 1.500000 1.496472 0.005238
v 1.500000 1.497570 0.005820
v 1.500000 1.498761 0.006179
v 1.500000 1.500000 0.006300
v 1.500000 1.501239 0.006179
v 1.500000 1.502430 0.005820
v 1.500000 1.503528 0.005238
v 1.500000 1.504490 0.004455
v 1.500000 1.505280 0.003500
v 1.500000 1.505867 0.002411
v 1.500000 1.506228 0.001229
v -1.500000 1.506350 0.000000
v -1.500000 1.506228 -0.001229
v -1.500000 1.505867 -0.002411
v -1.500000 1.505280 -0.003500
v -1.500000 1.504490 -0.004455
v -1.500000 1.503528 -0.005238
v -1.500000 1.502430 -0.005820
v -1.500000 1.501239 -0.006179
v -1.500000 1.500000 -0.006300
v -1.500000 1.498761 -0.006179
v -1.500000 1.497570 -0.005820
v -1.500000 1.496472 -0.005238
v -1.500000 1.495510 -0.004455
v -1.500000 1.494720 -0.003500
v -1.500000 1.494133 -0.002411
v -1.500000 1.493772 -0.001229
v -1.500000 1.493650 0.000000
v -1.500000 1.493772 0.001229
v -1.500000 1.494133 0.002411
v -1.500000 1.494720 0.003500
v -1.500000 1.495510 0.004455
v -1.500000 1.496472 0.005238
v -1.500000 1.497570 0.005820
v -1.500000 1.498761 0.006179
v -1.500000 1.500000 0.006300
v -1.500000 1.501239 0.006179
v -1.500000 1.502430 0.005820
v -1.500000 1.503528 0.005238
v -1.500000 1.504490 0.004455
v -1.500000 1.505280 0.003500
v -1.500000 1.505867 0.002411
v -1.500000 1.506228 0.001229
vt 0.000000 0.000000
vt 0.000000 0.000000
vt 0.000000 0.000000
vt 0.000000 0.000000
vt 0.000000 0.000000
vt 0.000000 0.000000
vt 0.000000 0.000000
vt 0.000000 0.000000
vt 0.000000 0.000000
vt 0.000000 0.000000
vt 0.000000 0.000000
vt 0.000000 0.000000
vt 0.000000 0.000000
vt 0.000000 0.000000
vt 0.000000 0.000000
vt 0.000000 0.000000
vt 0.000000 0.000000
vt 0.000000 0.000000
vt 0.000000 0.000000
vt 0.000000 0.000000
vt 0.000000 0.000000
vt 0.000000 0.000000
vt 0.000000 0.000000
vt 0.000000 0.000000
vt 0.000000 0.000000
vt 0.000000 0.000000
vt 0.000000 0.000000
vt 0.000000 0.000000
vt 0.000000 0.000000
vt 0.000000 0.000000
vt 0.000000 0.000000
vt 0.000000 0.000000
vt 0.000000 0.000000
vt 0.000000 0.000000
vt 0.000000 0.000000
vt 0.000000 0.000000
vt 0.000000 0.000000
vt 0.000000 0.000000
vt 0.000000 0.000000
vt 0.000000 0.000000
vt 0.000000 0.000000
vt 0.000000 0.000000
vt 0.000000 0.000000
vt 0.000000 0.000000
vt 0.000000 0.000000
vt 0.000000 0.000000
vt 0.000000 0.000000
vt 0.000000 0.000000
vt 0.000000 0.000000
vt 0.000000 0.000000
vt 0.000000 0.000000
vt 0.000000 0.000000
vt 0.000000 0.000000
vt 0.000000 0.000000
vt 0.000000 0.000000
vt 0.000000 0.000000
vt 0.000000 0.000000
vt 0.000000 0.000000
vt 0.000000 0.000000
vt 0.000000 0.000000
vt 0.000000 0.000000
vt 0.000000 0.000000
vt 0.000000 0.000000
vt 0.000000 0.000000
vn -0.0000 0.6314 0.7755
vn 0.0000 -0.2882 -0.9576
vn -0.0000 0.7706 0.6374
vn 0.0000 -0.4684 -0.8835
vn -0.0000 0.8804 0.4743
vn 0.0000 -0.9951 0.0988
vn 0.0000 -0.6314 -0.7755
vn -0.0000 0.9563 0.2923
vn 0.0000 -0.9563 0.2925
vn 0.0000 -0.7706 -0.6374
vn -0.0000 0.9951 0.0988
vn 0.0000 -0.8804 0.4742
vn 0.0000 -0.8804 -0.4742
vn -0.0000 0.9951 -0.0988
vn 0.0000 -0.7706 0.6374
vn 0.0000 -0.9563 -0.2925
vn -0.0000 0.9563 -0.2923
vn 0.0000 -0.6314 0.7755
vn 0.0000 -0.9951 -0.0988
vn -0.0000 0.8804 -0.4743
vn 0.0000 -0.4684 0.8835
vn -0.0000 0.7706 -0.6374
vn 0.0000 -0.2882 0.9576
vn -0.0000 0.6314 -0.7755
vn 0.0000 -0.0973 0.9953
vn -0.0000 0.4686 -0.8834
vn -0.0000 0.0973 0.9953
vn -0.0000 0.2881 -0.9576
vn -0.0000 0.2881 0.9576
vn -0.0000 0.0973 -0.9953
vn -0.0000 0.4686 0.8834
vn 0.0000 -0.0973 -0.9953
g Circle.002_Circle.002_None
usemtl None
s off
f 177/165/83 176/166/83 208/167/83 209/168/83
f 191/169/84 190/170/84 222/171/84 223/172/84
f 178/173/85 177/165/85 209/168/85 210/174/85
f 192/175/86 191/169/86 223/172/86 224/176/86
f 179/177/87 178/173/87 210/174/87 211/178/87
f 166/179/88 165/180/88 197/181/88 198/182/88
f 193/183/89 192/175/89 224/176/89 225/184/89
f 180/185/90 179/177/90 211/178/90 212/186/90
f 167/187/91 166/179/91 198/182/91 199/188/91
f 194/189/92 193/183/92 225/184/92 226/190/92
f 181/191/93 180/185/93 212/186/93 213/192/93
f 168/193/94 167/187/94 199/188/94 200/194/94
f 195/195/95 194/189/95 226/190/95 227/196/95
f 182/197/96 181/191/96 213/192/96 214/198/96
f 169/199/97 168/193/97 200/194/97 201/200/97
f 196/201/98 195/195/98 227/196/98 228/202/98
f 183/203/99 182/197/99 214/198/99 215/204/99
f 170/205/100 169/199/100 201/200/100 202/206/100
f 165/180/101 196/201/101 228/202/101 197/181/101
f 184/207/102 183/203/102 215/204/102 216/208/102
f 171/209/103 170/205/103 202/206/103 203/210/103
f 185/211/104 184/207/104 216/208/104 217/212/104
f 172/213/105 171/209/105 203/210/105 204/214/105
f 186/215/106 185/211/106 217/212/106 218/216/106
f 173/217/107 172/213/107 204/214/107 205/218/107
f 187/219/108 186/215/108 218/216/108 219/220/108
f 174/221/109 173/217/109 205/218/109 206/222/109
f 188/223/110 187/219/110 219/220/110 220/224/110
f 175/225/111 174/221/111 206/222/111 207/226/111
f 189/227/112 188/223/112 220/224/112 221/228/112
f 176/166/113 175/225/113 207/226/113 208/167/113
f 190/170/114 189/227/114 221/228/114 222/171/114
o Circle.003
v 0.825000 1.520000 0.000000
v 0.825000 1.519616 -0.003902
v 0.825000 1.518478 -0.007654
v 0.825000 1.516629 -0.011111
v 0.825000 1.514142 -0.014142
v 0.825000 1.511111 -0.016629
v 0.825000 1.507654 -0.018478
v 0.825000 1.503902 -0.019616
v 0.825000 1.500000 -0.020000
v 0.825000 1.496098 -0.019616
v 0.825000 1.492346 -0.018478
v 0.825000 1.488889 -0.016629
v 0.825000 1.485858 -0.014142
v 0.825000 1.483371 -0.011111
v 0.825000 1.481522 -0.007654
v 0.825000 1.480384 -0.003902
v 0.825000 1.480000 0.000000
v 0.825000 1.480384 0.003902
v 0.825000 1.481522 0.007654
v 0.825000 1.483371 0.011111
v 0.825000 1.485858 0.014142
v 0.825000 1.488889 0.016629
v 0.825000 1.492346 0.018478
v 0.825000 1.496098 0.019616
v 0.825000 1.500000 0.020000
v 0.825000 1.503902 0.019616
v 0.825000 1.507654 0.018478
v 0.825000 1.511111 0.016629
v 0.825000 1.514142 0.014142
v 0.825000 1.516629 0.011111
v 0.825000 1.518478 0.007654
v 0.825000 1.519616 0.003902
v -0.825000 1.520000 0.000000
v -0.825000 1.519616 -0.003902
v -0.825000 1.518478 -0.007654
v -0.825000 1.516629 -0.011111
v -0.825000 1.514142 -0.014142
v -0.825000 1.511111 -0.016629
v -0.825000 1.507654 -0.018478
v -0.825000 1.503902 -0.019616
v -0.825000 1.500000 -0.020000
v -0.825000 1.496098 -0.019616
v -0.825000 1.492346 -0.018478
v -0.825000 1.488889 -0.016629
v -0.825000 1.485858 -0.014142
v -0.825000 1.483371 -0.011111
v -0.825000 1.481522 -0.007654
v -0.825000 1.480384 -0.003902
v -0.825000 1.480000 0.000000
v -0.825000 1.480384 0.003902
v -0.825000 1.481522 0.007654
v -0.825000 1.483371 0.011111
v -0.825000 1.485858 0.014142
v -0.825000 1.488889 0.016629
v -0.825000 1.492346 0.018478
v -0.825000 1.496098 0.019616
v -0.825000 1.500000 0.020000
v -0.825000 1.503902 0.019616
v -0.825000 1.507654 0.018478
v -0.825000 1.511111 0.016629
v -0.825000 1.514142 0.014142
v -0.825000 1.516629 0.011111
v -0.825000 1.518478 0.007654
v -0.825000 1.519616 0.003902
vt 0.000000 0.000000
vt 0.000000 0.000000
vt 0.000000 0.000000
vt 0.000000 0.000000
vt 0.000000 0.000000
vt 0.000000 0.000000
vt 0.000000 0.000000
vt 0.000000 0.000000
vt 0.000000 0.000000
vt 0.000000 0.000000
vt 0.000000 0.000000
vt 0.000000 0.000000
vt 0.000000 0.000000
vt 0.000000 0.000000
vt 0.000000 0.000000
vt 0.000000 0.000000
vt 0.000000 0.000000
vt 0.000000 0.000000
vt 0.000000 0.000000
vt 0.000000 0.000000
vt 0.000000 0.000000
vt 0.000000 0.000000
vt 0.000000 0.000000
vt 0.000000 0.000000
vt 0.000000 0.000000
vt 0.000000 0.000000
vt 0.000000 0.000000
vt 0.000000 0.000000
vt 0.000000 0.000000
vt 0.000000 0.000000
vt 0.000000 0.000000
vt 0.000000 0.000000
vt 0.000000 0.000000
vt 0.000000 0.000000
vt 0.000000 0.000000
vt 0.000000 0.000000
vt 0.000000 0.000000
vt 0.000000 0.000000
vt 0.000000 0.000000
vt 0.000000 0.000000
vt 0.000000 0.000000
vt 0.000000 0.000000
vt 0.000000 0.000000
vt 0.000000 0.000000
vt 0.000000 0.000000
vt 0.000000 0.000000
vt 0.000000 0.000000
vt 0.000000 0.000000
vt 0.000000 0.000000
vt 0.000000 0.000000
vt 0.000000 0.000000
vt 0.000000 0.000000
vt 0.000000 0.000000
vt 0.000000 0.000000
vt 0.000000 0.000000
vt 0.000000 0.000000
vt 0.000000 0.000000
vt 0.000000 0.000000
vt 0.000000 0.000000
vt 0.000000 0.000000
vt 0.000000 0.000000
vt 0.000000 0.000000
vt 0.000000 0.000000
vt 0.000000 0.000000
vn -0.0000 0.6344 0.7730
vn 0.0000 -0.2903 -0.9569
vn -0.0000 0.7730 0.6344
vn 0.0000 -0.4714 -0.8819
vn -0.0000 0.8819 0.4714
vn 0.0000 -0.9952 0.0980
vn 0.0000 -0.6344 -0.7730
vn -0.0000 0.9569 0.2903
vn 0.0000 -0.9569 0.2903
vn 0.0000 -0.7730 -0.6344
vn -0.0000 0.9952 0.0980
vn 0.0000 -0.8819 0.4714
vn 0.0000 -0.8819 -0.4714
vn -0.0000 0.9952 -0.0980
vn 0.0000 -0.7730 0.6344
vn 0.0000 -0.9569 -0.2903
vn -0.0000 0.9569 -0.2903
vn 0.0000 -0.6344 0.7730
vn 0.0000 -0.9952 -0.0980
vn -0.0000 0.8819 -0.4714
vn 0.0000 -0.4714 0.8819
vn -0.0000 0.7730 -0.6344
vn 0.0000 -0.2903 0.9569
vn -0.0000 0.6344 -0.7730
vn 0.0000 -0.0980 0.9952
vn -0.0000 0.4714 -0.8819
vn -0.0000 0.0980 0.9952
vn 0.0000 0.2903 -0.9569
vn 0.0000 0.2903 0.9569
vn -0.0000 0.0980 -0.9952
vn -0.0000 0.4714 0.8819
vn 0.0000 -0.0980 -0.9952
g Circle.003_Circle.003_None
usemtl None
s off
f 241/229/115 240/230/115 272/231/115 273/232/115
f 255/233/116 254/234/116 286/235/116 287/236/116
f 242/237/117 241/229/117 273/232/117 274/238/117
f 256/239/118 255/233/118 287/236/118 288/240/118
f 243/241/119 242/237/119 274/238/119 275/242/119
f 230/243/120 229/244/120 261/245/120 262/246/120
f 257/247/121 256/239/121 288/240/121 289/248/121
f 244/249/122 243/241/122 275/242/122 276/250/122
f 231/251/123 230/243/123 262/246/123 263/252/123
f 258/253/124 257/247/124 289/248/124 290/254/124
f 245/255/125 244/249/125 276/250/125 277/256/125
f 232/257/126 231/251/126 263/252/126 264/258/126
f 259/259/127 258/253/127 290/254/127 291/260/127
f 246/261/128 245/255/128 277/256/128 278/262/128
f 233/263/129 232/257/129 264/258/129 265/264/129
f 260/265/130 259/259/130 291/260/130 292/266/130
f 247/267/131 246/261/131 278/262/131 279/268/131
f 234/269/132 233/263/132 265/264/132 266/270/132
f 229/244/133 260/265/133 292/266/133 261/245/133
f 248/271/134 247/267/134 279/268/134 280/272/134
f 235/273/135 234/269/135 266/270/135 267/274/135
f 249/275/136 248/271/136 280/272/136 281/276/136
f 236/277/137 235/273/137 267/274/137 268/278/137
f 250/279/138 249/275/138 281/276/138 282/280/138
f 237/281/139 236/277/139 268/278/139 269/282/139
f 251/283/140 250/279/140 282/280/140 283/284/140
f 238/285/141 237/281/141 269/282/141 270/286/141
f 252/287/142 251/283/142 283/284/142 284/288/142
f 239/289/143 238/285/143 270/286/143 271/290/143
f 253/291/144 252/287/144 284/288/144 285/292/144
f 240/230/145 239/289/145 271/290/145 272/231/145
f 254/234/146 253/291/146 285/292/146 286/235/146
o Plane.005
v -0.025400 0.900000 -0.005000
v -0.025400 0.900000 0.005000
v 0.025400 0.900000 -0.005000
v 0.025400 0.900000 0.005000
v -0.025400 0.900000 -0.005000
v -0.025400 0.900000 0.005000
v 0.025400 0.900000 -0.005000
v 0.025400 0.900000 0.005000
v -0.025400 1.509600 -0.005000
v -0.025400 1.509600 0.005000
v 0.025400 1.509600 -0.005000
v 0.025400 1.509600 0.005000
vt 0.000000 0.000000
vt 0.000000 1.000000
vt 1.000000 1.000000
vt 1.000000 0.000000
vt 1.000000 0.000000
vt 1.000000 1.000000
vt 1.000000 1.000000
vt 1.000000 0.000000
vt 0.000000 0.000000
vt 0.000000 1.000000
vt 0.000000 0.000000
vt 0.000000 1.000000
vn 0.0000 -1.0000 0.0000
vn 0.0000 0.0000 1.0000
vn 0.0000 1.0000 0.0000
vn 0.0000 0.0000 -1.0000
vn 1.0000 0.0000 0.0000
vn -1.0000 0.0000 0.0000
g Plane.005_Plane.005_Red
usemtl Red
s off
f 293/293/147 295/294/147 296/295/147 294/296/147
f 298/297/148 300/298/148 304/299/148 302/300/148
f 294/296/148 296/295/148 300/298/148 298/297/148
f 295/294/148 293/293/148 297/301/148 299/302/148
f 296/295/148 295/294/148 299/302/148 300/298/148
f 293/293/148 294/296/148 298/297/148 297/301/148
f 301/303/149 302/300/149 304/299/149 303/304/149
f 299/302/150 297/301/150 301/303/150 303/304/150
f 300/298/151 299/302/151 303/304/151 304/299/151
f 297/301/152 298/297/152 302/300/152 301/303/152
o Plane.006
v -0.826200 1.500000 0.000000
v -0.826200 1.195200 -0.000000
v -0.673800 1.500000 0.000000
v -0.673800 1.195200 -0.000000
v -0.826200 1.500000 0.002000
v -0.826200 1.195200 0.002000
v -0.673800 1.500000 0.002000
v -0.673800 1.195200 0.002000
vt 0.000000 0.000000
vt 0.000000 1.000000
vt 1.000000 1.000000
vt 1.000000 0.000000
vt 0.000000 0.000000
vt 1.000000 0.000000
vt 1.000000 1.000000
vt 0.000000 1.000000
vn 0.0000 0.0000 -1.0000
vn 0.0000 -0.0000 1.0000
vn 0.0000 -1.0000 0.0000
vn 0.0000 1.0000 0.0000
vn 1.0000 -0.0000 0.0000
vn -1.0000 0.0000 0.0000
g Plane.006_Plane.006_None
usemtl None
s off
f 305/305/153 307/306/153 308/307/153 306/308/153
f 309/309/154 310/310/154 312/311/154 311/312/154
f 306/308/155 308/307/155 312/311/155 310/310/155
f 307/306/156 305/305/156 309/309/156 311/312/156
f 308/307/157 307/306/157 311/312/157 312/311/157
f 305/305/158 306/308/158 310/310/158 309/309/158
o Plane.007
v 0.673800 1.500000 0.000000
v 0.673800 1.195200 -0.000000
v 0.826200 1.500000 0.000000
v 0.826200 1.195200 -0.000000
v 0.673800 1.500000 0.000000
v 0.673800 1.195200 -0.000000
v 0.826200 1.500000 0.000000
v 0.826200 1.195200 -0.000000
v 0.673800 1.500000 0.002000
v 0.673800 1.195200 0.002000
v 0.826200 1.500000 0.002000
v 0.826200 1.195200 0.002000
vt 0.000000 0.000000
vt 0.000000 1.000000
vt 1.000000 1.000000
vt 1.000000 0.000000
vt 1.000000 1.000000
vt 0.000000 1.000000
vt 0.000000 1.000000
vt 1.000000 1.000000
vt 1.000000 0.000000
vt 0.000000 0.000000
vt 0.000000 0.000000
vt 1.000000 0.000000
vn 0.0000 0.0000 -1.0000
vn 1.0000 0.0000 0.0000
vn 0.0000 0.0000 1.0000
vn -1.0000 -0.0000 0.0000
vn 0.0000 -1.0000 0.0000
vn 0.0000 1.0000 0.0000
g Plane.007_Plane.007_None
usemtl None
s off
f 313/313/159 315/314/159 316/315/159 314/316/159
f 320/317/160 319/318/160 323/319/160 324/320/160
f 316/315/161 315/314/161 319/318/161 320/317/161
f 313/313/161 314/316/161 318/321/161 317/322/161
f 314/316/161 316/315/161 320/317/161 318/321/161
f 315/314/161 313/313/161 317/322/161 319/318/161
f 321/323/161 322/324/161 324/320/161 323/319/161
f 317/322/162 318/321/162 322/324/162 321/323/162
f 318/321/163 320/317/163 324/320/163 322/324/163
f 319/318/164 317/322/164 321/323/164 323/319/164
o Plane.002_Plane.008
v 1.474600 0.210800 -0.025400
v 1.474600 0.210800 0.025400
v 1.525400 0.210800 -0.025400
v 1.525400 0.210800 0.025400
v 1.474600 0.210800 -0.025400
v 1.474600 0.210800 0.025400
v 1.525400 0.210800 -0.025400
v 1.525400 0.210800 0.025400
v 1.474600 0.820400 -0.025400
v 1.474600 0.820400 0.025400
v 1.525400 0.820400 -0.025400
v 1.525400 0.820400 0.025400
vt 0.000000 0.000000
vt 0.000000 1.000000
vt 1.000000 1.000000
vt 1.000000 0.000000
vt 1.000000 0.000000
vt 1.000000 1.000000
vt 1.000000 1.000000
vt 1.000000 0.000000
vt 0.000000 0.000000
vt 0.000000 1.000000
vt 0.000000 0.000000
vt 0.000000 1.000000
vn 0.0000 -1.0000 0.0000
vn 0.0000 0.0000 1.0000
vn 0.0000 1.0000 0.0000
vn 0.0000 0.0000 -1.0000
vn 1.0000 0.0000 0.0000
vn -1.0000 0.0000 0.0000
g Plane.002_Plane.008_black
usemtl black
s off
f 325/325/165 327/326/165 328/327/165 326/328/165
f 330/329/166 332/330/166 336/331/166 334/332/166
f 326/328/166 328/327/166 332/330/166 330/329/166
f 327/326/166 325/325/166 329/333/166 331/334/166
f 328/327/166 327/326/166 331/334/166 332/330/166
f 325/325/166 326/328/166 330/329/166 329/333/166
f 333/335/167 334/332/167 336/331/167 335/336/167
f 331/334/168 329/333/168 333/335/168 335/336/168
f 332/330/169 331/334/169 335/336/169 336/331/169
f 329/333/170 330/329/170 334/332/170 333/335/170
