<?xml version="1.0" encoding="utf-8"?>
<COLLADA xmlns="http://www.collada.org/2005/11/COLLADASchema" version="1.4.1" xmlns:xsi="http://www.w3.org/2001/XMLSchema-instance">
  <asset>
    <contributor>
      <author>Blender User</author>
      <authoring_tool>Blender 3.0.1</authoring_tool>
    </contributor>
    <created>2023-05-14T17:06:42</created>
    <modified>2023-05-14T17:06:42</modified>
    <unit name="meter" meter="1"/>
    <up_axis>Z_UP</up_axis>
  </asset>
  <library_effects>
    <effect id="Material_003-effect">
      <profile_COMMON>
        <newparam sid="_023_torpedo1_png-surface">
          <surface type="2D">
            <init_from>_023_torpedo1_png</init_from>
          </surface>
        </newparam>
        <newparam sid="_023_torpedo1_png-sampler">
          <sampler2D>
            <source>_023_torpedo1_png-surface</source>
          </sampler2D>
        </newparam>
        <technique sid="common">
          <lambert>
            <emission>
              <color sid="emission">0 0 0 1</color>
            </emission>
            <diffuse>
              <texture texture="_023_torpedo1_png-sampler" texcoord="Cube_002-mesh-map-0"/>
            </diffuse>
            <index_of_refraction>
              <float sid="ior">1.45</float>
            </index_of_refraction>
          </lambert>
        </technique>
      </profile_COMMON>
    </effect>
  </library_effects>
  <library_images>
    <image id="_023_torpedo1_png" name="_023_torpedo1_png">
      <init_from>2023_torpedo1.png</init_from>
    </image>
  </library_images>
  <library_materials>
    <material id="Material_003-material" name="Material.003">
      <instance_effect url="#Material_003-effect"/>
    </material>
  </library_materials>
  <library_geometries>
    <geometry id="Cube_003-mesh" name="Cube.003">
      <mesh>
        <source id="Cube_003-mesh-positions">
          <float_array id="Cube_003-mesh-positions-array" count="408">-1 -1 -1 -1 -1 1 -1 1 -1 -1 1 1 1 -1 -1 1 -1 1 1 1 -1 1 1 1 -0.1151818 -0.4280119 1.000061 -0.1151818 -0.4280119 -1 -0.1036609 -0.4064578 1.000061 -0.1036609 -0.4064578 -1 0.04770988 -0.36054 1.000061 0.04770988 -0.36054 -1 0.02432227 -0.3534454 1.000061 0.02432227 -0.3534454 -1 -0.1222764 -0.4513995 1.000061 -0.1222764 -0.4513995 -1 0.08815634 -0.3875654 1.000061 0.08815634 -0.3875654 -1 0.06926399 -0.5793827 1.000061 0.06926399 -0.5793827 -1 0.04770988 -0.5909036 1.000061 0.04770988 -0.5909036 -1 0.1036609 -0.4064578 1.000061 0.1036609 -0.4064578 -1 0.02432227 -0.5979982 1.000061 0.02432227 -0.5979982 -1 -0.04770988 -0.5909036 1.000061 -0.04770988 -0.5909036 -1 -0.1246719 -0.4757218 1.000061 -0.1246719 -0.4757218 -1 -0.04770988 -0.36054 1.000061 -0.04770988 -0.36054 -1 -0.06926399 -0.5793827 1.000061 -0.06926399 -0.5793827 -1 0.1222764 -0.5000441 1.000061 0.1222764 -0.5000441 -1 0.08815634 -0.5638782 1.000061 0.08815634 -0.5638782 -1 0.1151818 -0.5234317 1.000061 0.1151818 -0.5234317 -1 0.1246719 -0.4757218 1.000061 0.1246719 -0.4757218 -1 -0.08815634 -0.3875654 1.000061 -0.08815634 -0.3875654 -1 -0.06926399 -0.3720609 1.000061 -0.06926399 -0.3720609 -1 0 -0.6003937 1.000061 0 -0.6003937 -1 0 -0.3510499 1.000061 0 -0.3510499 -1 0.1222764 -0.4513995 1.000061 0.1222764 -0.4513995 -1 0.06926399 -0.3720609 1.000061 0.06926399 -0.3720609 -1 0.1151818 -0.4280119 1.000061 0.1151818 -0.4280119 -1 -0.1151818 -0.5234317 1.000061 -0.1151818 -0.5234317 -1 -0.1036609 -0.5449858 1.000061 -0.1036609 -0.5449858 -1 -0.1222764 -0.5000441 1.000061 -0.1222764 -0.5000441 -1 -0.08815634 -0.5638782 1.000061 -0.08815634 -0.5638782 -1 -0.02432227 -0.5979982 1.000061 -0.02432227 -0.5979982 -1 0.1036609 -0.5449858 1.000061 0.1036609 -0.5449858 -1 -0.02432227 -0.3534454 1.000061 -0.02432227 -0.3534454 -1 -0.1126416 0.5779207 1 -0.1126416 0.5779207 -1 -0.1030156 0.5959297 1 -0.1030156 0.5959297 -1 0.0234586 0.6342953 1 0.0234586 0.6342953 -1 0.003917694 0.640223 1 0.003917694 0.640223 -1 -0.1185693 0.5583797 1 -0.1185693 0.5583797 -1 0.05725276 0.6117148 1 0.05725276 0.6117148 -1 0.0414676 0.4514464 1.000061 0.0414676 0.4514464 -1 0.0234586 0.4418203 1.000061 0.0234586 0.4418203 -1 0.07020717 0.5959298 1 0.07020717 0.5959298 -1 0.003917694 0.4358927 1.000061 0.003917694 0.4358927 -1 -0.05626702 0.4418203 1.000061 -0.05626702 0.4418203 -1 -0.1205708 0.5380578 1 -0.1205708 0.5380578 -1 -0.05626702 0.6342953 1 -0.05626702 0.6342953 -1 -0.07427608 0.4514464 1.000061 -0.07427608 0.4514464 -1 0.08576089 0.5177359 1 0.08576089 0.5177359 -1 0.05725276 0.4644008 1.000061 0.05725276 0.4644008 -1 0.07983326 0.4981949 1.000061 0.07983326 0.4981949 -1 0.08776247 0.5380578 1 0.08776247 0.5380578 -1 -0.09006112 0.6117148 1 -0.09006112 0.6117148 -1 -0.07427608 0.6246693 1 -0.07427608 0.6246693 -1 -0.01640421 0.4338911 1.000061 -0.01640421 0.4338911 -1 -0.01640415 0.6422245 1 -0.01640415 0.6422245 -1 0.08576089 0.5583797 1 0.08576089 0.5583797 -1 0.0414676 0.6246693 1 0.0414676 0.6246693 -1 0.0798332 0.5779207 1 0.0798332 0.5779207 -1 -0.1126416 0.4981949 1.000061 -0.1126416 0.4981949 -1 -0.1030156 0.4801859 1.000061 -0.1030156 0.4801859 -1 -0.1185693 0.5177359 1 -0.1185693 0.5177359 -1 -0.09006112 0.4644008 1.000061 -0.09006112 0.4644008 -1 -0.03672599 0.4358927 1.000061 -0.03672599 0.4358927 -1 0.07020723 0.4801859 1.000061 0.07020723 0.4801859 -1 -0.03672599 0.640223 1 -0.03672599 0.640223 -1</float_array>
          <technique_common>
            <accessor source="#Cube_003-mesh-positions-array" count="136" stride="3">
              <param name="X" type="float"/>
              <param name="Y" type="float"/>
              <param name="Z" type="float"/>
            </accessor>
          </technique_common>
        </source>
        <source id="Cube_003-mesh-normals">
          <float_array id="Cube_003-mesh-normals-array" count="489">-1 0 0 0 1 0 1 0 0 0 -1 0 0 0 -1 -6.90478e-5 0 1 -0.9951849 0.09801548 0 -0.7730101 0.6343939 0 -0.8819215 0.4713962 0 0.9951849 -0.09801548 0 -0.9569396 -0.2902869 0 -0.9951849 -0.09801548 0 -0.7730114 -0.6343923 0 0.09801614 -0.9951848 0 0.09801614 0.9951848 0 0.8819212 -0.4713968 0 -0.09801614 0.9951848 0 0.2902861 -0.9569399 0 -0.6343922 -0.7730113 0 0.4713951 0.8819223 0 -0.471396 -0.8819217 0 -0.634393 0.7730108 0 0.6343922 -0.7730113 0 0.95694 -0.2902858 0 -0.4713953 0.8819221 0 0.634393 0.7730108 0 0.8819215 0.4713962 0 -0.09801614 -0.9951848 0 -0.8819212 -0.4713968 0 0.9951849 0.09801548 0 -0.95694 0.2902858 0 0.2902872 0.9569396 0 0.4713963 -0.8819215 0 -0.2902861 -0.95694 0 -0.2902872 0.9569396 0 0.9569396 0.2902869 0 0.773011 -0.6343926 0 -9.83981e-6 -1.22535e-4 1 0.7730104 0.6343935 0 -0.9951846 0.09801959 0 -0.7730113 0.6343924 0 -0.8819212 0.471397 0 0.9951849 -0.09801524 0 -0.9569407 -0.2902836 0 -0.9951847 -0.09801888 0 -0.7730101 -0.6343938 0 0.09801381 -0.9951851 0 0.09801989 0.9951846 0 0.881921 -0.4713975 0 -0.09801959 0.9951845 0 0.2902871 -0.9569397 0 -0.6343942 -0.7730097 0 0.4713995 0.8819199 0 -0.4713951 -0.8819222 0 -0.6343902 0.7730131 0 0.6343958 -0.7730084 0 0.9569405 -0.2902843 0 -0.4714006 0.8819192 0 0.6343916 0.7730118 0 0.8819218 0.4713958 0 -0.09801405 -0.995185 0 -0.8819217 -0.4713962 0 0.9951848 0.09801596 0 -0.9569414 0.2902814 0 0.2902804 0.9569417 0 0.471394 -0.8819227 0 -0.2902873 -0.9569396 0 -0.2902805 0.9569416 0 0.9569404 0.2902847 0 0.7730106 -0.6343931 0 0 0 1 0.7730109 0.6343929 0 6.89804e-5 0 1 -0.001958131 0.003718376 0.9999912 6.54536e-5 7.29808e-6 1 8.59901e-5 2.60295e-5 1 6.53656e-5 1.72234e-6 1 3.20898e-5 1.97947e-5 1 -8.72767e-6 0 1 -6.41143e-6 0 1 7.66848e-6 0 1 6.42682e-6 0 1 -7.62785e-6 0 1 -6.85397e-6 0 1 8.0643e-6 0 1 9.00009e-6 0 1 -6.10242e-6 0 1 -3.35579e-5 1.97947e-5 1 -6.91441e-5 -6.86675e-7 1 0.002045512 0.003744959 0.9999909 -6.78707e-5 7.29807e-6 1 -8.59901e-5 2.60295e-5 1 -0.9951849 0.09801548 0 -0.7730103 0.6343935 0 0.9951849 -0.09801548 0 -0.95694 -0.2902858 0 -0.9951849 -0.09801548 0 -0.773011 -0.6343927 0 0.2902861 -0.95694 0 0.4713953 0.8819221 0 -0.4713962 -0.8819215 0 0.9569396 -0.2902869 0 -2.64371e-6 0 -1 -0.471395 0.8819223 0 0.9951849 0.09801548 0 -0.9569396 0.2902869 0 0.2902872 0.9569396 0 0.471396 -0.8819217 0 -0.2902861 -0.9569399 0 -0.2902872 0.9569396 0 0.95694 0.2902858 0 0.7730113 -0.6343923 0 7.08845e-5 -6.48503e-6 1 5.91097e-5 -1.79864e-5 1 -6.87365e-5 -6.48503e-6 1 -5.94192e-5 -1.79864e-5 1 5.36909e-5 -2.86287e-5 1 4.89174e-5 -3.94487e-5 1 -5.33874e-5 -2.86287e-5 1 -4.96939e-5 -3.94488e-5 1 4.19525e-5 -5.15305e-5 1 3.49208e-5 -6.64799e-5 1 -4.26185e-5 -5.15306e-5 1 -3.61444e-5 -6.64798e-5 1 0 -1.52738e-4 1 2.74994e-5 -8.74461e-5 1 9.37856e-6 -1.22535e-4 1 -2.92109e-5 -8.74461e-5 1 0.77301 0.6343939 0 -0.9951847 0.09801888 0 -0.7730108 0.6343929 0 -0.8819209 0.4713975 0 0.9951848 -0.09801596 0 -0.9569405 -0.2902843 0 -0.9951846 -0.09801959 0 -0.7730103 -0.6343936 0 0.09801381 -0.9951851 0 0.09801989 0.9951846 0 -0.09801959 0.9951845 0 0.290287 -0.9569396 0 -0.6343944 -0.7730095 0 0.4713999 0.8819197 0 -0.471395 -0.8819223 0 -0.6343898 0.7730133 0 -2.97516e-6 0 -1 3.97191e-6 0 -1 -1.6779e-6 0 -1 -7.63355e-6 0 -1 3.41971e-6 0 -1 -3.20572e-6 0 -1 3.21341e-6 0 -1 -3.42698e-6 0 -1 -3.81209e-6 0 -1 -0.4714008 0.8819192 0 0.6343913 0.7730122 0 0.8819215 0.4713964 0 0.9951849 0.09801524 0 -0.9569412 0.290282 0 0.2902805 0.9569417 0 0.4713938 -0.8819228 0 -0.2902806 0.9569417 0 0.9569402 0.2902853 0 0.7730108 0.6343929 0</float_array>
          <technique_common>
            <accessor source="#Cube_003-mesh-normals-array" count="163" stride="3">
              <param name="X" type="float"/>
              <param name="Y" type="float"/>
              <param name="Z" type="float"/>
            </accessor>
          </technique_common>
        </source>
        <source id="Cube_003-mesh-map-0">
          <float_array id="Cube_003-mesh-map-0-array" count="1656">1 0 0 0 0 0 1 0 1 0 0 0 0 0 1 1 1 0 0 1 0 1 1 1 1 0 0.5082021 0.1788877 0.5183631 0.1798885 1 0 1 1 0.5575909 0.714006 0.71875 0.7505 0.75 0.7495 0.71875 0.7495 0.625 0.7505 0.65625 0.7495 0.625 0.7495 0.65625 0.7505 0.6875 0.7495 0.65625 0.7495 0.21875 0.7505 0.25 0.7495 0.21875 0.7495 0.78125 0.7505 0.8125 0.7495 0.78125 0.7495 0.75 0.7505 0.78125 0.7495 0.75 0.7495 0.84375 0.7505 0.8750001 0.7495 0.84375 0.7495 0 0.7505001 0.03125 0.7495 0 0.7495 0.46875 0.7505 0.5 0.7495 0.46875 0.7495 0.15625 0.7505 0.1875 0.7495 0.15625 0.7495 0.5 0.7505 0.53125 0.7495 0.5 0.7495 0.03125 0.7505 0.0625 0.7495 0.03125 0.7495 0.8750001 0.7505 0.90625 0.7495 0.8750001 0.7495 0.40625 0.7505 0.4375 0.7495 0.40625 0.7495 0.90625 0.7505 0.9375 0.7495 0.90625 0.7495 0.59375 0.7505 0.625 0.7495 0.59375 0.7495 0.09375 0.7505 0.125 0.7495 0.09375 0.7495 0.1875 0.7505 0.21875 0.7495 0.1875 0.7495 0.5 0.8001969 0.4878389 0.7989991 0 1 0.5625 0.7505 0.59375 0.7495 0.5625 0.7495 0.375 0.7505 0.40625 0.7495 0.375 0.7495 0.3125 0.7505 0.34375 0.7495 0.3125 0.7495 0.96875 0.7505 1 0.7495 0.96875 0.7495 0.8125 0.7505 0.84375 0.7495 0.8125 0.7495 0.25 0.7505 0.28125 0.7495 0.25 0.7495 0.6875 0.7505 0.71875 0.7495 0.6875 0.7495 0.4375 0.7505 0.46875 0.7495 0.4375 0.7495 0.0625 0.7505 0.09375 0.7495 0.0625 0.7495 0.9375 0.7505 0.96875 0.7495 0.9375 0.7495 0.53125 0.7505 0.5625 0.7495 0.53125 0.7495 0.28125 0.7505 0.3125 0.7495 0.28125 0.7495 0.125 0.7505 0.15625 0.7495 0.125 0.7495 0.5 0.8001969 0.5121611 0.7989991 1 1 0.34375 0.7505 0.375 0.7495 0.34375 0.7495 0.71875 0.7505 0.75 0.7494999 0.71875 0.7494999 0.625 0.7505 0.65625 0.7495 0.625 0.7495 0.65625 0.7505 0.6875 0.7495 0.65625 0.7495 0.21875 0.7505 0.25 0.7494999 0.21875 0.7494999 0.78125 0.7505 0.8125 0.7494999 0.78125 0.7494999 0.75 0.7505 0.78125 0.7494999 0.75 0.7494999 0.84375 0.7505 0.8750001 0.7494999 0.84375 0.7494999 0 0.7505 0.03125 0.7494999 0 0.7495 0.46875 0.7505 0.5 0.7495 0.46875 0.7495 0.15625 0.7505 0.1875 0.7494999 0.15625 0.7494999 0.5 0.7505 0.53125 0.7495 0.5 0.7495 0.03125 0.7505 0.0625 0.7494999 0.03125 0.7494999 0.8750001 0.7505 0.90625 0.7494999 0.8750001 0.7494999 0.40625 0.7505 0.4375 0.7495 0.40625 0.7495 0.90625 0.7505 0.9375 0.7494999 0.90625 0.7494999 0.59375 0.7505 0.625 0.7495 0.59375 0.7495 0.09375 0.7505 0.125 0.7494999 0.09375 0.7494999 0.1875 0.7505 0.21875 0.7494999 0.1875 0.7494999 0.5592846 0.241132 0.5563209 0.2509025 1 0 0.5625 0.7505 0.59375 0.7495 0.5625 0.7495 0.375 0.7505 0.40625 0.7495 0.375 0.7495 0.3125 0.7505 0.34375 0.7495 0.3125 0.7495 0.96875 0.7505 1 0.7495 0.96875 0.7494999 0.8125 0.7505 0.84375 0.7494999 0.8125 0.7494999 0.25 0.7505 0.28125 0.7494999 0.25 0.7494999 0.6875 0.7495 0.71875 0.7505 0.71875 0.7494999 0.4375 0.7505 0.46875 0.7495 0.4375 0.7495 0.0625 0.7505 0.09375 0.7494999 0.0625 0.7494999 0.9375 0.7505 0.96875 0.7494999 0.9375 0.7494999 0.53125 0.7505 0.5625 0.7495 0.53125 0.7495 0.28125 0.7505 0.3125 0.7495 0.28125 0.7494999 0.125 0.7505 0.15625 0.7494999 0.125 0.7494999 0.5082021 0.1788877 0.4980412 0.1798885 0 0 0.34375 0.7505 0.375 0.7495 0.34375 0.7495 1 0 1 0 0 0 1 0 0 0 1 0 0 0 0 1 1 1 0 1 1 1 0 1 0 0 0.4561188 0.230971 0.4571195 0.2208101 0 0 0.4571195 0.2208101 0.4600834 0.2110396 0.5592846 0.2208101 0.5602854 0.230971 1 0 0.5563209 0.2110397 0.5592846 0.2208101 1 0 0 0 0.4600834 0.2110396 0.4648964 0.2020351 0 0 0.4648964 0.2020351 0.4713736 0.1941426 0.5515077 0.2020351 0.5563209 0.2110397 1 0 0.5450305 0.1941425 0.5515077 0.2020351 1 0 0 0 0.4713736 0.1941426 0.4792662 0.1876654 0 0 0.4792662 0.1876654 0.4882707 0.1828523 0.5371381 0.1876654 0.5450305 0.1941425 1 0 0.5281335 0.1828523 0.5371381 0.1876654 1 0 1 0 0 0 0.5082021 0.1788877 0 0 0.4882707 0.1828523 0.4980411 0.1798885 0 0 0.4980411 0.1798885 0.5082021 0.1788877 0.5183631 0.1798885 0.5281335 0.1828523 1 0 0 1 0 0 0.4424091 0.714006 0 0 0.4561187 0.230971 0.4571195 0.241132 0 0 0.4571195 0.241132 0.4600833 0.2509025 0.4388618 0.7256998 0.437664 0.7378609 0 1 0.4424091 0.714006 0.4388618 0.7256998 0 1 0 0 0.4600833 0.2509025 0.4481695 0.7032289 0 0 0.4481695 0.7032289 0.4424091 0.714006 0.4600833 0.2509025 0.4648964 0.259907 0.4481695 0.7032289 0.4559218 0.6937828 0.4481695 0.7032289 0.4648964 0.259907 0.4559218 0.6937828 0.4648964 0.259907 0.4713734 0.2677996 0.4713734 0.2677996 0.4792661 0.2742768 0.465368 0.6860305 0.4559218 0.6937828 0.4713734 0.2677996 0.465368 0.6860305 0.465368 0.6860305 0.4792661 0.2742768 0.4761451 0.68027 0.4792661 0.2742768 0.4882706 0.2790898 0.4761451 0.68027 0.4761451 0.68027 0.4882706 0.2790898 0.4878389 0.6767227 0.4882706 0.2790898 0.4980411 0.2820537 0.4878389 0.6767227 0.4878389 0.6767227 0.4980411 0.2820537 0.5 0.675525 0.4980411 0.2820537 0.5082021 0.2830544 0.5 0.675525 0.5 0.675525 0.5082021 0.2830544 0.5121611 0.6767227 0.5082021 0.2830544 0.5183631 0.2820537 0.5121611 0.6767227 0.5121611 0.6767227 0.5183631 0.2820537 0.523855 0.68027 0.5183631 0.2820537 0.5281335 0.2790898 0.523855 0.68027 0.523855 0.68027 0.5281335 0.2790898 0.534632 0.6860305 0.5281335 0.2790898 0.5371381 0.2742768 0.534632 0.6860305 0.534632 0.6860305 0.5371381 0.2742768 0.5440782 0.6937828 0.5371381 0.2742768 0.5450306 0.2677996 0.5440782 0.6937828 0.5440782 0.6937828 0.5450306 0.2677996 0.5518305 0.703229 0.5450306 0.2677996 0.5515079 0.2599071 0.5518305 0.703229 0.5518305 0.703229 0.5515079 0.2599071 0.5563208 0.2509025 0.5575909 0.714006 0.5518305 0.703229 1 0 0.5518305 0.703229 0.5563208 0.2509025 1 0 0.5592848 0.241132 0.5602855 0.230971 1 0 0.5563208 0.2509025 0.5592848 0.241132 1 0 1 1 0.562336 0.7378609 0.5611382 0.7256998 0.5611382 0.7256998 0.5575909 0.714006 1 1 0.71875 0.7505 0.75 0.7505 0.75 0.7495 0.625 0.7505 0.65625 0.7505 0.65625 0.7495 0.65625 0.7505 0.6875 0.7505 0.6875 0.7495 0.21875 0.7505 0.25 0.7505 0.25 0.7495 0.78125 0.7505 0.8125 0.7505 0.8125 0.7495 0.75 0.7505 0.78125 0.7505 0.78125 0.7495 0.84375 0.7505 0.8750001 0.7505 0.8750001 0.7495 0 0.7505001 0.03125 0.7505 0.03125 0.7495 0.46875 0.7505 0.5 0.7505 0.5 0.7495 0.15625 0.7505 0.1875 0.7505 0.1875 0.7495 0.5 0.7505 0.53125 0.7505 0.53125 0.7495 0.03125 0.7505 0.0625 0.7505 0.0625 0.7495 0.8750001 0.7505 0.90625 0.7505 0.90625 0.7495 0.40625 0.7505 0.4375 0.7505 0.4375 0.7495 0.90625 0.7505 0.9375 0.7505 0.9375 0.7495 0.59375 0.7505 0.625 0.7505 0.625 0.7495 0.09375 0.7505 0.125 0.7505 0.125 0.7495 0.1875 0.7505 0.21875 0.7505 0.21875 0.7495 1 1 0.562336 0.7378609 0.5611382 0.7500221 1 1 0.5611382 0.7500221 0.557591 0.7617159 0.4388618 0.7500221 0.437664 0.7378609 0 1 0.442409 0.7617158 0.4388618 0.7500221 0 1 1 1 0.557591 0.7617159 0.5518305 0.772493 1 1 0.5518305 0.772493 0.5440782 0.7819391 0.4481695 0.7724929 0.442409 0.7617158 0 1 0.4559218 0.7819391 0.4481695 0.7724929 0 1 1 1 0.5440782 0.7819391 0.534632 0.7896913 1 1 0.534632 0.7896913 0.5238549 0.7954518 0.465368 0.7896913 0.4559218 0.7819391 0 1 0.476145 0.7954518 0.465368 0.7896913 0 1 0 1 1 1 0.5 0.8001969 1 1 0.5238549 0.7954518 0.5121611 0.7989991 1 1 0.5121611 0.7989991 0.5 0.8001969 0.4878389 0.7989991 0.476145 0.7954518 0 1 0.5625 0.7505 0.59375 0.7505 0.59375 0.7495 0.375 0.7505 0.40625 0.7505 0.40625 0.7495 0.3125 0.7505 0.34375 0.7505 0.34375 0.7495 0.96875 0.7505 1 0.7505001 1 0.7495 0.8125 0.7505 0.84375 0.7505 0.84375 0.7495 0.25 0.7505 0.28125 0.7505 0.28125 0.7495 0.6875 0.7505 0.71875 0.7505 0.71875 0.7495 0.4375 0.7505 0.46875 0.7505 0.46875 0.7495 0.0625 0.7505 0.09375 0.7505 0.09375 0.7495 0.9375 0.7505 0.96875 0.7505 0.96875 0.7495 0.53125 0.7505 0.5625 0.7505 0.5625 0.7495 0.28125 0.7505 0.3125 0.7505 0.3125 0.7495 0.125 0.7505 0.15625 0.7505 0.15625 0.7495 0 1 0.437664 0.7378609 0.4388618 0.7500221 0 1 0.4388618 0.7500221 0.4424091 0.7617159 0.5611382 0.7500221 0.562336 0.7378609 1 1 0.557591 0.7617159 0.5611382 0.7500221 1 1 0 1 0.4424091 0.7617159 0.4481696 0.772493 0 1 0.4481696 0.772493 0.4559218 0.7819391 0.5518304 0.7724929 0.557591 0.7617159 1 1 0.5440782 0.7819391 0.5518304 0.7724929 1 1 0 1 0.4559218 0.7819391 0.465368 0.7896913 0 1 0.465368 0.7896913 0.4761451 0.7954519 0.534632 0.7896913 0.5440782 0.7819391 1 1 0.5238549 0.7954518 0.534632 0.7896913 1 1 1 1 0 1 0.5 0.8001969 0 1 0.4761451 0.7954519 0.4878389 0.7989991 0 1 0.4878389 0.7989991 0.5 0.8001969 0.5121611 0.7989991 0.5238549 0.7954518 1 1 0.34375 0.7505 0.375 0.7505 0.375 0.7495 0.71875 0.7505 0.75 0.7505 0.75 0.7494999 0.625 0.7505 0.65625 0.7505 0.65625 0.7495 0.65625 0.7505 0.6875 0.7505 0.6875 0.7495 0.21875 0.7505 0.25 0.7505 0.25 0.7494999 0.78125 0.7505 0.8125 0.7505 0.8125 0.7494999 0.75 0.7505 0.78125 0.7505 0.78125 0.7494999 0.84375 0.7505 0.8750001 0.7505 0.8750001 0.7494999 0 0.7505 0.03125 0.7505 0.03125 0.7494999 0.46875 0.7505 0.5 0.7505 0.5 0.7495 0.15625 0.7505 0.1875 0.7505 0.1875 0.7494999 0.5 0.7505 0.53125 0.7505 0.53125 0.7495 0.03125 0.7505 0.0625 0.7505 0.0625 0.7494999 0.8750001 0.7505 0.90625 0.7505 0.90625 0.7494999 0.40625 0.7505 0.4375 0.7505 0.4375 0.7495 0.90625 0.7505 0.9375 0.7505 0.9375 0.7494999 0.59375 0.7505 0.625 0.7505 0.625 0.7495 0.09375 0.7505 0.125 0.7505 0.125 0.7494999 0.1875 0.7505 0.21875 0.7505 0.21875 0.7494999 0.4571195 0.241132 0.4561188 0.230971 0 0 0 0 0 1 0.4424091 0.714006 0 1 0.437664 0.7378609 0.4388618 0.7256998 0 1 0.4388618 0.7256998 0.4424091 0.714006 0.4600833 0.2509025 0.4571195 0.241132 0 0 0.4648964 0.2599071 0.4600833 0.2509025 0.4481695 0.7032288 0.4600833 0.2509025 0 0 0.4481695 0.7032288 0 0 0.4424091 0.714006 0.4481695 0.7032288 0.4713734 0.2677996 0.4648964 0.2599071 0.4559218 0.6937828 0.4559218 0.6937828 0.4648964 0.2599071 0.4481695 0.7032288 0.4792661 0.2742769 0.4713734 0.2677996 0.465368 0.6860305 0.465368 0.6860305 0.4713734 0.2677996 0.4559218 0.6937828 0.4792661 0.2742769 0.465368 0.6860305 0.4761451 0.68027 0.4882707 0.2790898 0.4792661 0.2742769 0.4761451 0.68027 0.4882707 0.2790898 0.4761451 0.68027 0.4878389 0.6767227 0.4980411 0.2820537 0.4882707 0.2790898 0.4878389 0.6767227 0.4980411 0.2820537 0.4878389 0.6767227 0.5 0.675525 0.5082021 0.2830544 0.4980411 0.2820537 0.5 0.675525 0.5082021 0.2830544 0.5 0.675525 0.5121611 0.6767227 0.5183631 0.2820537 0.5082021 0.2830544 0.5121611 0.6767227 0.5183631 0.2820537 0.5121611 0.6767227 0.523855 0.68027 0.5281335 0.2790898 0.5183631 0.2820537 0.523855 0.68027 0.5281335 0.2790898 0.523855 0.68027 0.534632 0.6860305 0.5371381 0.2742768 0.5281335 0.2790898 0.534632 0.6860305 0.5371381 0.2742768 0.534632 0.6860305 0.5440781 0.6937827 0.5450305 0.2677996 0.5371381 0.2742768 0.5440781 0.6937827 0.5450305 0.2677996 0.5440781 0.6937827 0.5518305 0.703229 0.5515078 0.259907 0.5450305 0.2677996 0.5518305 0.703229 0.5515078 0.259907 0.5518305 0.703229 0.5563209 0.2509025 0.5518305 0.703229 0.5575909 0.714006 1 0 0.5563209 0.2509025 0.5518305 0.703229 1 0 0.5611382 0.7256998 0.562336 0.7378609 1 1 0.5575909 0.714006 0.5611382 0.7256998 1 1 1 0 0.5575909 0.714006 1 1 1 0 0.5602854 0.230971 0.5592846 0.241132 0.5625 0.7505 0.59375 0.7505 0.59375 0.7495 0.375 0.7505 0.40625 0.7505 0.40625 0.7495 0.3125 0.7505 0.34375 0.7505 0.34375 0.7495 0.96875 0.7505 1 0.7505 1 0.7495 0.8125 0.7505 0.84375 0.7505 0.84375 0.7494999 0.25 0.7505 0.28125 0.7505 0.28125 0.7494999 0.6875 0.7495 0.6875 0.7505 0.71875 0.7505 0.4375 0.7505 0.46875 0.7505 0.46875 0.7495 0.0625 0.7505 0.09375 0.7505 0.09375 0.7494999 0.9375 0.7505 0.96875 0.7505 0.96875 0.7494999 0.53125 0.7505 0.5625 0.7505 0.5625 0.7495 0.28125 0.7505 0.3125 0.7505 0.3125 0.7495 0.125 0.7505 0.15625 0.7505 0.15625 0.7494999 1 0 0.5602855 0.230971 0.5592845 0.2208101 1 0 0.5592845 0.2208101 0.5563208 0.2110397 0.4571195 0.2208101 0.4561187 0.230971 0 0 0.4600834 0.2110396 0.4571195 0.2208101 0 0 1 0 0.5563208 0.2110397 0.5515078 0.2020351 1 0 0.5515078 0.2020351 0.5450305 0.1941426 0.4648964 0.2020351 0.4600834 0.2110396 0 0 0.4713736 0.1941426 0.4648964 0.2020351 0 0 1 0 0.5450305 0.1941426 0.5371379 0.1876654 1 0 0.5371379 0.1876654 0.5281335 0.1828523 0.4792662 0.1876654 0.4713736 0.1941426 0 0 0.4882707 0.1828523 0.4792662 0.1876654 0 0 0 0 1 0 0.5082021 0.1788877 1 0 0.5281335 0.1828523 0.5183631 0.1798885 1 0 0.5183631 0.1798885 0.5082021 0.1788877 0.4980412 0.1798885 0.4882707 0.1828523 0 0 0.34375 0.7505 0.375 0.7505 0.375 0.7495</float_array>
          <technique_common>
            <accessor source="#Cube_003-mesh-map-0-array" count="828" stride="2">
              <param name="S" type="float"/>
              <param name="T" type="float"/>
            </accessor>
          </technique_common>
        </source>
        <vertices id="Cube_003-mesh-vertices">
          <input semantic="POSITION" source="#Cube_003-mesh-positions"/>
        </vertices>
        <triangles material="Material_003-material" count="276">
          <input semantic="VERTEX" source="#Cube_003-mesh-vertices" offset="0"/>
          <input semantic="NORMAL" source="#Cube_003-mesh-normals" offset="1"/>
          <input semantic="TEXCOORD" source="#Cube_003-mesh-map-0" offset="2" set="0"/>
          <p>1 0 0 2 0 1 0 0 2 3 1 3 6 1 4 2 1 5 7 2 6 4 2 7 6 2 8 5 3 9 0 3 10 4 3 11 2 4 12 115 4 13 135 4 14 3 5 15 1 5 16 8 5 17 36 6 18 43 6 19 37 6 20 38 7 21 69 7 22 39 7 23 68 8 24 41 8 25 69 8 26 16 9 27 31 9 28 17 9 29 52 10 30 57 10 31 53 10 32 42 11 33 53 11 34 43 11 35 24 12 36 19 12 37 25 12 38 50 13 39 71 13 40 51 13 41 66 14 42 49 14 43 67 14 44 10 15 45 9 15 46 11 15 47 48 16 48 27 16 49 49 16 50 70 17 51 33 17 52 71 17 53 18 18 54 55 18 55 19 18 56 34 19 57 29 19 58 35 19 59 54 20 60 13 20 61 55 20 62 20 21 63 39 21 64 21 21 65 46 22 66 45 22 67 47 22 68 8 23 69 17 23 70 9 23 71 49 4 72 27 4 73 4 4 74 22 24 75 21 24 76 23 24 77 64 25 78 35 25 79 65 25 80 58 26 81 61 26 82 59 26 83 14 27 84 51 27 85 15 27 86 56 28 87 25 28 88 57 28 89 30 29 90 63 29 91 31 29 92 40 30 93 37 30 94 41 30 95 28 31 96 67 31 97 29 31 98 32 32 99 47 32 100 33 32 101 12 33 102 15 33 103 13 33 104 26 34 105 23 34 106 27 34 107 62 35 108 59 35 109 63 35 110 44 36 111 11 36 112 45 36 113 48 37 114 66 37 115 1 37 116 60 38 117 65 38 118 61 38 119 100 39 120 107 39 121 101 39 122 102 40 123 133 40 124 103 40 125 132 41 126 105 41 127 133 41 128 80 42 129 95 42 130 81 42 131 116 43 132 121 43 133 117 43 134 106 44 135 117 44 136 107 44 137 88 45 138 83 45 139 89 45 140 114 46 141 135 46 142 115 46 143 130 47 144 113 47 145 131 47 146 74 48 147 73 48 148 75 48 149 112 49 150 91 49 151 113 49 152 134 50 153 97 50 154 135 50 155 82 51 156 119 51 157 83 51 158 98 52 159 93 52 160 99 52 161 118 53 162 77 53 163 119 53 164 84 54 165 103 54 166 85 54 167 110 55 168 109 55 169 111 55 170 72 56 171 81 56 172 73 56 173 127 4 174 123 4 175 2 4 176 86 57 177 85 57 178 87 57 179 128 58 180 99 58 181 129 58 182 122 59 183 125 59 184 123 59 185 78 60 186 115 60 187 79 60 188 120 61 189 89 61 190 121 61 191 94 62 192 127 62 193 95 62 194 105 63 195 100 63 196 101 63 197 92 64 198 131 64 199 93 64 200 96 65 201 111 65 202 97 65 203 76 66 204 79 66 205 77 66 206 90 67 207 87 67 208 91 67 209 126 68 210 123 68 211 127 68 212 108 69 213 75 69 214 109 69 215 114 70 216 78 70 217 7 70 218 124 71 219 129 71 220 125 71 221 1 0 222 3 0 223 2 0 224 3 1 225 7 1 226 6 1 227 7 2 228 5 2 229 4 2 230 5 3 231 1 3 232 0 3 233 6 4 234 107 4 235 117 4 236 6 4 237 117 4 238 121 4 239 81 4 240 95 4 241 2 4 242 73 4 243 81 4 244 2 4 245 6 4 246 121 4 247 89 4 248 6 4 249 89 4 250 83 4 251 75 4 252 73 4 253 2 4 254 109 4 255 75 4 256 2 4 257 6 4 258 83 4 259 119 4 260 6 4 261 119 4 262 77 4 263 111 4 264 109 4 265 2 4 266 97 4 267 111 4 268 2 4 269 2 4 270 6 4 271 115 4 272 6 4 273 77 4 274 79 4 275 6 4 276 79 4 277 115 4 278 135 4 279 97 4 280 2 4 281 5 72 282 7 72 283 56 72 284 7 70 285 106 70 286 100 70 287 7 73 288 100 73 289 104 73 290 52 74 291 42 74 292 5 74 293 56 75 294 52 75 295 5 75 296 7 76 297 104 76 298 24 76 299 7 77 300 24 77 301 56 77 302 104 70 303 132 70 304 24 70 305 18 70 306 24 70 307 132 70 308 18 78 309 132 78 310 102 78 311 102 70 312 84 70 313 54 70 314 18 70 315 102 70 316 54 70 317 54 70 318 84 70 319 12 70 320 84 70 321 86 70 322 12 70 323 12 79 324 86 79 325 14 79 326 86 80 327 90 80 328 14 80 329 14 70 330 90 70 331 50 70 332 90 70 333 112 70 334 50 70 335 50 70 336 112 70 337 70 70 338 112 70 339 130 70 340 70 70 341 70 81 342 130 81 343 32 81 344 130 82 345 92 82 346 32 82 347 32 83 348 92 83 349 46 83 350 92 84 351 98 84 352 46 84 353 46 70 354 98 70 355 44 70 356 98 70 357 128 70 358 44 70 359 44 85 360 128 85 361 10 85 362 128 70 363 124 70 364 10 70 365 10 86 366 124 86 367 122 86 368 8 87 369 10 87 370 3 87 371 10 88 372 122 88 373 3 88 374 126 70 375 94 70 376 3 70 377 122 89 378 126 89 379 3 89 380 1 90 381 30 90 382 16 90 383 16 91 384 8 91 385 1 91 386 36 92 387 42 92 388 43 92 389 38 93 390 68 93 391 69 93 392 68 8 393 40 8 394 41 8 395 16 94 396 30 94 397 31 94 398 52 95 399 56 95 400 57 95 401 42 96 402 52 96 403 53 96 404 24 97 405 18 97 406 19 97 407 50 13 408 70 13 409 71 13 410 66 14 411 48 14 412 49 14 413 10 15 414 8 15 415 9 15 416 48 16 417 26 16 418 27 16 419 70 98 420 32 98 421 33 98 422 18 18 423 54 18 424 55 18 425 34 99 426 28 99 427 29 99 428 54 100 429 12 100 430 13 100 431 20 21 432 38 21 433 39 21 434 46 22 435 44 22 436 45 22 437 8 101 438 16 101 439 17 101 440 0 102 441 31 102 442 63 102 443 0 4 444 63 4 445 59 4 446 37 4 447 43 4 448 4 4 449 41 4 450 37 4 451 4 4 452 0 4 453 59 4 454 61 4 455 0 4 456 61 4 457 65 4 458 69 4 459 41 4 460 4 4 461 39 4 462 69 4 463 4 4 464 0 4 465 65 4 466 35 4 467 0 4 468 35 4 469 29 4 470 21 4 471 39 4 472 4 4 473 23 4 474 21 4 475 4 4 476 4 4 477 0 4 478 49 4 479 0 4 480 29 4 481 67 4 482 0 4 483 67 4 484 49 4 485 27 4 486 23 4 487 4 4 488 22 103 489 20 103 490 21 103 491 64 25 492 34 25 493 35 25 494 58 26 495 60 26 496 61 26 497 14 27 498 50 27 499 51 27 500 56 28 501 24 28 502 25 28 503 30 104 504 62 104 505 63 104 506 40 105 507 36 105 508 37 105 509 28 106 510 66 106 511 67 106 512 32 107 513 46 107 514 47 107 515 12 108 516 14 108 517 15 108 518 26 109 519 22 109 520 23 109 521 62 110 522 58 110 523 59 110 524 44 111 525 10 111 526 11 111 527 5 112 528 42 112 529 36 112 530 5 113 531 36 113 532 40 113 533 62 114 534 30 114 535 1 114 536 58 115 537 62 115 538 1 115 539 5 116 540 40 116 541 68 116 542 5 117 543 68 117 544 38 117 545 60 118 546 58 118 547 1 118 548 64 119 549 60 119 550 1 119 551 5 120 552 38 120 553 20 120 554 5 121 555 20 121 556 22 121 557 34 122 558 64 122 559 1 122 560 28 123 561 34 123 562 1 123 563 1 124 564 5 124 565 48 124 566 5 125 567 22 125 568 26 125 569 5 126 570 26 126 571 48 126 572 66 127 573 28 127 574 1 127 575 60 128 576 64 128 577 65 128 578 100 129 579 106 129 580 107 129 581 102 130 582 132 130 583 133 130 584 132 131 585 104 131 586 105 131 587 80 132 588 94 132 589 95 132 590 116 133 591 120 133 592 121 133 593 106 134 594 116 134 595 117 134 596 88 135 597 82 135 598 83 135 599 114 136 600 134 136 601 135 136 602 130 137 603 112 137 604 113 137 605 74 48 606 72 48 607 73 48 608 112 138 609 90 138 610 91 138 611 134 139 612 96 139 613 97 139 614 82 140 615 118 140 616 119 140 617 98 141 618 92 141 619 93 141 620 118 142 621 76 142 622 77 142 623 84 143 624 102 143 625 103 143 626 110 55 627 108 55 628 109 55 629 72 56 630 80 56 631 81 56 632 101 4 633 107 4 634 6 4 635 6 4 636 4 4 637 57 4 638 4 144 639 43 144 640 53 144 641 4 4 642 53 4 643 57 4 644 105 145 645 101 145 646 6 145 647 133 4 648 105 4 649 25 4 650 105 4 651 6 4 652 25 4 653 6 146 654 57 146 655 25 146 656 103 4 657 133 4 658 19 4 659 19 4 660 133 4 661 25 4 662 85 4 663 103 4 664 55 4 665 55 147 666 103 147 667 19 147 668 85 148 669 55 148 670 13 148 671 87 4 672 85 4 673 13 4 674 87 149 675 13 149 676 15 149 677 91 4 678 87 4 679 15 4 680 91 4 681 15 4 682 51 4 683 113 4 684 91 4 685 51 4 686 113 4 687 51 4 688 71 4 689 131 4 690 113 4 691 71 4 692 131 150 693 71 150 694 33 150 695 93 4 696 131 4 697 33 4 698 93 151 699 33 151 700 47 151 701 99 4 702 93 4 703 47 4 704 99 152 705 47 152 706 45 152 707 129 4 708 99 4 709 45 4 710 129 4 711 45 4 712 11 4 713 125 4 714 129 4 715 11 4 716 125 4 717 11 4 718 123 4 719 11 4 720 9 4 721 2 4 722 123 4 723 11 4 724 2 4 725 17 4 726 31 4 727 0 4 728 9 4 729 17 4 730 0 4 731 2 4 732 9 4 733 0 4 734 2 4 735 95 4 736 127 4 737 86 153 738 84 153 739 85 153 740 128 154 741 98 154 742 99 154 743 122 155 744 124 155 745 125 155 746 78 60 747 114 60 748 115 60 749 120 61 750 88 61 751 89 61 752 94 156 753 126 156 754 127 156 755 105 157 756 104 157 757 100 157 758 92 158 759 130 158 760 131 158 761 96 159 762 110 159 763 111 159 764 76 66 765 78 66 766 79 66 767 90 160 768 86 160 769 87 160 770 126 161 771 122 161 772 123 161 773 108 36 774 74 36 775 75 36 776 3 70 777 94 70 778 80 70 779 3 70 780 80 70 781 72 70 782 116 70 783 106 70 784 7 70 785 120 70 786 116 70 787 7 70 788 3 70 789 72 70 790 74 70 791 3 70 792 74 70 793 108 70 794 88 70 795 120 70 796 7 70 797 82 70 798 88 70 799 7 70 800 3 70 801 108 70 802 110 70 803 3 70 804 110 70 805 96 70 806 118 70 807 82 70 808 7 70 809 76 70 810 118 70 811 7 70 812 7 70 813 3 70 814 114 70 815 3 70 816 96 70 817 134 70 818 3 70 819 134 70 820 114 70 821 78 70 822 76 70 823 7 70 824 124 162 825 128 162 826 129 162 827</p>
        </triangles>
      </mesh>
    </geometry>
  </library_geometries>
  <library_visual_scenes>
    <visual_scene id="Scene" name="Scene">
      <node id="Cube_001" name="Cube.001" type="NODE">
        <matrix sid="transform">0.6096 -1.56807e-14 -8.74229e-11 0 2.66465e-8 -2.66465e-8 0.002 0 -1.68455e-14 -0.6096 -8.74228e-11 0 0 0 0 1</matrix>
        <instance_geometry url="#Cube_003-mesh" name="Cube.001">
          <bind_material>
            <technique_common>
              <instance_material symbol="Material_003-material" target="#Material_003-material">
                <bind_vertex_input semantic="Cube_002-mesh-map-0" input_semantic="TEXCOORD" input_set="0"/>
              </instance_material>
            </technique_common>
          </bind_material>
        </instance_geometry>
      </node>
    </visual_scene>
  </library_visual_scenes>
  <scene>
    <instance_visual_scene url="#Scene"/>
  </scene>
</COLLADA>