<?xml version="1.0" encoding="utf-8"?>
<COLLADA xmlns="http://www.collada.org/2005/11/COLLADASchema" version="1.4.1" xmlns:xsi="http://www.w3.org/2001/XMLSchema-instance">
  <asset>
    <contributor>
      <author>Blender User</author>
      <authoring_tool>Blender 2.93.1 commit date:2021-06-22, commit time:05:57, hash:1b8d33b18c2f</authoring_tool>
    </contributor>
    <created>2021-07-05T11:55:04</created>
    <modified>2021-07-05T11:55:04</modified>
    <unit name="meter" meter="1"/>
    <up_axis>Z_UP</up_axis>
  </asset>
  <library_cameras>
    <camera id="Camera-camera" name="Camera">
      <optics>
        <technique_common>
          <perspective>
            <xfov sid="xfov">39.59775</xfov>
            <aspect_ratio>1.777778</aspect_ratio>
            <znear sid="znear">0.1</znear>
            <zfar sid="zfar">100</zfar>
          </perspective>
        </technique_common>
      </optics>
      <extra>
        <technique profile="blender">
          <shiftx sid="shiftx" type="float">0</shiftx>
          <shifty sid="shifty" type="float">0</shifty>
          <dof_distance sid="dof_distance" type="float">10</dof_distance>
        </technique>
      </extra>
    </camera>
  </library_cameras>
  <library_lights>
    <light id="Light-light" name="Light">
      <technique_common>
        <point>
          <color sid="color">1000 1000 1000</color>
          <constant_attenuation>1</constant_attenuation>
          <linear_attenuation>0</linear_attenuation>
          <quadratic_attenuation>0.00111109</quadratic_attenuation>
        </point>
      </technique_common>
      <extra>
        <technique profile="blender">
          <type sid="type" type="int">0</type>
          <flag sid="flag" type="int">0</flag>
          <mode sid="mode" type="int">1</mode>
          <gamma sid="blender_gamma" type="float">1</gamma>
          <red sid="red" type="float">1</red>
          <green sid="green" type="float">1</green>
          <blue sid="blue" type="float">1</blue>
          <shadow_r sid="blender_shadow_r" type="float">0</shadow_r>
          <shadow_g sid="blender_shadow_g" type="float">0</shadow_g>
          <shadow_b sid="blender_shadow_b" type="float">0</shadow_b>
          <energy sid="blender_energy" type="float">1000</energy>
          <dist sid="blender_dist" type="float">29.99998</dist>
          <spotsize sid="spotsize" type="float">75</spotsize>
          <spotblend sid="spotblend" type="float">0.15</spotblend>
          <att1 sid="att1" type="float">0</att1>
          <att2 sid="att2" type="float">1</att2>
          <falloff_type sid="falloff_type" type="int">2</falloff_type>
          <clipsta sid="clipsta" type="float">0.04999995</clipsta>
          <clipend sid="clipend" type="float">30.002</clipend>
          <bias sid="bias" type="float">1</bias>
          <soft sid="soft" type="float">3</soft>
          <bufsize sid="bufsize" type="int">2880</bufsize>
          <samp sid="samp" type="int">3</samp>
          <buffers sid="buffers" type="int">1</buffers>
          <area_shape sid="area_shape" type="int">1</area_shape>
          <area_size sid="area_size" type="float">0.1</area_size>
          <area_sizey sid="area_sizey" type="float">0.1</area_sizey>
          <area_sizez sid="area_sizez" type="float">1</area_sizez>
        </technique>
      </extra>
    </light>
  </library_lights>
  <library_effects>
    <effect id="Material-effect">
      <profile_COMMON>
        <newparam sid="cup_guy_png-surface">
          <surface type="2D">
            <init_from>cup_guy_png</init_from>
          </surface>
        </newparam>
        <newparam sid="cup_guy_png-sampler">
          <sampler2D>
            <source>cup_guy_png-surface</source>
          </sampler2D>
        </newparam>
        <technique sid="common">
          <lambert>
            <emission>
              <color sid="emission">0 0 0 1</color>
            </emission>
            <diffuse>
              <texture texture="cup_guy_png-sampler" texcoord="UVMap"/>
            </diffuse>
            <index_of_refraction>
              <float sid="ior">1.45</float>
            </index_of_refraction>
          </lambert>
        </technique>
      </profile_COMMON>
    </effect>
  </library_effects>
  <library_images>
    <image id="cup_guy_png" name="cup_guy_png">
      <init_from>../../media/materials/textures/torpedo_bootlegger.png</init_from>
    </image>
  </library_images>
  <library_materials>
    <material id="Material-material" name="Material">
      <instance_effect url="#Material-effect"/>
    </material>
  </library_materials>
  <library_geometries>
    <geometry id="Cube-mesh" name="Cube">
      <mesh>
        <source id="Cube-mesh-positions">
          <float_array id="Cube-mesh-positions-array" count="279">1 1 1 1 1 -1 1 -1 1 1 -1 -1 -1 1 1 -1 1 -1 -1 -1 1 -1 -1 -1 0.664863 0.23113 1 0.9248629 0.3632099 1 0.9248371 0.6746308 1 0.6607552 0.8021433 1 -0.9251601 -0.4656597 1 -0.9231428 -0.3392314 1 -0.9173898 -0.2893273 1 -0.9035333 -0.22678 1 -0.886609 -0.1667802 1 -0.8705482 -0.1193743 1 -0.8463045 -0.07609266 1 -0.8220728 -0.03871482 1 -0.7950153 -0.008277714 1 -0.7685041 0.01065838 1 -0.7532666 0.01922512 1 -0.6657317 0.02594077 1 -0.6463174 0.01203578 1 -0.6067618 -0.02245211 1 -0.5656502 -0.07539474 1 -0.5374777 -0.14063 1 -0.5143911 -0.2071397 1 -0.4946767 -0.3124686 1 -0.4908961 -0.4540359 1 -0.5043311 -0.5592775 1 -0.5267 -0.6434457 1 -0.5593474 -0.7204737 1 -0.5913962 -0.768637 1 -0.629699 -0.8097082 1 -0.6785979 -0.8352386 1 -0.7338934 -0.8410592 1 -0.768791 -0.8245419 1 -0.8085223 -0.7885316 1 -0.8450121 -0.7386651 1 -0.8736519 -0.685132 1 -0.8999108 -0.6037276 1 -0.9157426 -0.527103 1 -0.7359887 -0.8439673 -1 -0.6759815 -0.8432105 -1 -0.6493467 -0.8321124 -1 -0.612358 -0.8039621 -1 -0.5803569 -0.7664506 -1 -0.5572497 -0.7255728 -1 -0.5329635 -0.6711578 -1 -0.5107899 -0.6029127 -1 -0.5013791 -0.5421012 -1 -0.4904075 -0.4712396 -1 -0.4898986 -0.3624371 -1 -0.4974786 -0.3067581 -1 -0.5052527 -0.2444596 -1 -0.5207709 -0.190836 -1 -0.5470003 -0.11879 -1 -0.5792239 -0.06099575 -1 -0.6077755 -0.02637445 -1 -0.6438196 0.001235842 -1 -0.6711369 0.01884436 -1 -0.7412177 0.01860219 -1 -0.7790363 -0.003341794 -1 -0.8104276 -0.03285783 -1 -0.8467177 -0.08575159 -1 -0.8733314 -0.1430209 -1 -0.8978025 -0.2182739 -1 -0.9115831 -0.2909381 -1 -0.9179466 -0.3537309 -1 -0.9192825 -0.4675575 -1 -0.9113718 -0.5389906 -1 -0.89058 -0.6260458 -1 -0.8697672 -0.6894308 -1 -0.8411023 -0.7476499 -1 -0.8188005 -0.7793443 -1 -0.7916273 -0.8100964 -1 -0.7631621 -0.8281082 -1 0.6705272 0.2466344 -1 0.6709781 0.8016149 -1 0.9235776 0.6840916 -1 0.9263794 0.3712228 -1 1 1 1 1 1 -1 0.664863 0.23113 1 0.9248629 0.3632099 1 0.9248371 0.6746308 1 0.6607552 0.8021433 1 0.6705272 0.2466344 -1 0.6709781 0.8016149 -1 0.9235776 0.6840916 -1 0.9263794 0.3712228 -1</float_array>
          <technique_common>
            <accessor source="#Cube-mesh-positions-array" count="93" stride="3">
              <param name="X" type="float"/>
              <param name="Y" type="float"/>
              <param name="Z" type="float"/>
            </accessor>
          </technique_common>
        </source>
        <source id="Cube-mesh-normals">
          <float_array id="Cube-mesh-normals-array" count="66">0 0 1 0 -1 0 -1 0 0 0 0 -1 1 0 0 0 1 0 -7.10935e-6 0 1 5.16498e-6 0 1 -2.58784e-6 0 1 1.12248e-6 0 1 6.17926e-6 0 1 -6.37179e-6 0 1 1.87316e-6 0 1 9.7354e-7 0 1 1.7471e-6 0 1 -3.40563e-7 0 1 7.80868e-7 0 1 7.93279e-7 0 1 -1.63588e-7 0 1 -1.44276e-7 0 1 6.35729e-6 0 -1 -5.01831e-6 0 -1</float_array>
          <technique_common>
            <accessor source="#Cube-mesh-normals-array" count="22" stride="3">
              <param name="X" type="float"/>
              <param name="Y" type="float"/>
              <param name="Z" type="float"/>
            </accessor>
          </technique_common>
        </source>
        <source id="Cube-mesh-map-0">
          <float_array id="Cube-mesh-map-0-array" count="702">1.003886 9.56802e-4 0.9041889 0.1702547 0.8399371 0.03846633 0.625 0.75 0.375 1 0.375 0.75 0.625 0 0.375 0.25 0.375 0 0.9970855 1.000301 0.9970855 0.002826571 0.8984711 0.166922 0.625 0.5 0.375 0.75 0.375 0.5 0.625 0.25 0.375 0.5 0.375 0.25 1.003886 9.56802e-4 0.6830164 0.03845345 0.6830164 0.03845345 0.6845293 0.03954392 0.840052 0.04094123 0.840052 0.04094123 0.4291386 0.7682248 0.3956252 0.7567036 0.6164633 0.1682047 0.079135 0.83865 0.07620203 0.8662447 -0.003885984 0.9990435 0.6830164 0.03845345 0.6164633 0.1682047 0.6164633 0.1682047 0.002914547 1.000301 0.08085232 0.838701 0.002914547 0.002826571 0.625 0.5 0.375 0.5 0.375 0.5 0.8399371 0.03846633 0.6830164 0.03845345 0.6830164 0.03845345 0.5093672 0.8362848 0.5092468 0.8712366 0.9970855 1.000301 0.6225985 0.167147 0.6845293 0.03954392 0.6845293 0.03954392 0.9041889 0.1702547 0.8399371 0.03846633 0.8399371 0.03846633 0.8984711 0.166922 0.6225985 0.167147 0.6225985 0.167147 0.6845293 0.03954392 0.9970855 0.002826571 0.9970855 0.002826571 0.6164633 0.1682047 0.9041889 0.1702547 0.9041889 0.1702547 0.840052 0.04094123 0.8984711 0.166922 0.8984711 0.166922 1.003886 9.56802e-4 1.003886 0.9990435 0.9041889 0.1702547 0.8399371 0.03846633 0.6830164 0.03845345 1.003886 9.56802e-4 0.625 0.75 0.625 1 0.375 1 0.625 0 0.625 0.25 0.375 0.25 0.9970855 0.002826571 0.6845293 0.03954392 0.840052 0.04094123 0.8984711 0.166922 0.6225985 0.167147 0.9970855 1.000301 0.9970855 0.002826571 0.840052 0.04094123 0.8984711 0.166922 0.625 0.5 0.625 0.75 0.375 0.75 0.625 0.25 0.625 0.5 0.375 0.5 1.003886 9.56802e-4 1.003886 9.56802e-4 0.6830164 0.03845345 0.6845293 0.03954392 0.6845293 0.03954392 0.840052 0.04094123 0.6164633 0.1682047 0.9041889 0.1702547 0.4886867 0.8028006 0.9041889 0.1702547 1.003886 0.9990435 0.5130712 0.8322291 1.003886 0.9990435 -0.003885984 0.9990435 0.329066 0.9606884 -0.003885984 0.9990435 0.2653606 0.9616952 0.329066 0.9606884 1.003886 0.9990435 0.329066 0.9606884 0.3542121 0.9578174 1.003886 0.9990435 0.3542121 0.9578174 0.3857288 0.9509024 1.003886 0.9990435 0.3857288 0.9509024 0.4159618 0.9424564 1.003886 0.9990435 0.4159618 0.9424564 0.439849 0.9344415 1.003886 0.9990435 0.439849 0.9344415 0.4616581 0.9223428 1.003886 0.9990435 0.4616581 0.9223428 0.4804922 0.9102501 1.003886 0.9990435 0.4804922 0.9102501 0.495829 0.8967473 1.003886 0.9990435 0.495829 0.8967473 0.5053707 0.883517 1.003886 0.9990435 0.5053707 0.883517 0.5096874 0.8759129 1.003886 0.9990435 0.5096874 0.8759129 0.5130712 0.8322291 0.9041889 0.1702547 0.5130712 0.8322291 0.5060648 0.8225405 0.9041889 0.1702547 0.5060648 0.8225405 0.4886867 0.8028006 -0.003885984 9.56832e-4 1.003886 9.56802e-4 0.6830164 0.03845345 -0.003885984 9.56832e-4 0.6830164 0.03845345 0.6164633 0.1682047 0.3425514 0.7468652 0.2712177 0.7449786 0.6164633 0.1682047 0.2712177 0.7449786 -0.003885984 9.56832e-4 0.6164633 0.1682047 0.3956252 0.7567036 0.3425514 0.7468652 0.6164633 0.1682047 0.6164633 0.1682047 0.4886867 0.8028006 0.4620097 0.7822841 0.6164633 0.1682047 0.4620097 0.7822841 0.4291386 0.7682248 -0.003885984 9.56832e-4 0.2712177 0.7449786 0.2181879 0.7516832 -0.003885984 9.56832e-4 0.2181879 0.7516832 0.1757767 0.7628463 0.2344002 0.9569953 0.2653606 0.9616952 -0.003885984 0.9990435 0.1957901 0.9490947 0.2344002 0.9569953 -0.003885984 0.9990435 -0.003885984 9.56832e-4 0.1757767 0.7628463 0.1369634 0.7791388 -0.003885984 9.56832e-4 0.1369634 0.7791388 0.1126946 0.7951324 0.1547716 0.9359903 0.1957901 0.9490947 -0.003885984 0.9990435 0.127797 0.9216977 0.1547716 0.9359903 -0.003885984 0.9990435 -0.003885984 9.56832e-4 0.1126946 0.7951324 0.09199935 0.8142473 -0.003885984 9.56832e-4 0.09199935 0.8142473 0.079135 0.83865 0.10267 0.9034878 0.127797 0.9216977 -0.003885984 0.9990435 0.08452486 0.8836601 0.10267 0.9034878 -0.003885984 0.9990435 -0.003885984 0.9990435 -0.003885984 9.56832e-4 0.079135 0.83865 0.07620203 0.8662447 0.08452486 0.8836601 -0.003885984 0.9990435 0.6830164 0.03845345 0.6830164 0.03845345 0.6164633 0.1682047 0.002914547 1.000301 0.2675839 0.9600442 0.2320756 0.9560989 0.002914547 1.000301 0.2320756 0.9560989 0.1888017 0.9457291 0.2657536 0.7461482 0.3198378 0.7458944 0.002914547 0.002826571 0.2003008 0.7563137 0.2305294 0.7516202 0.002914547 0.002826571 0.2305294 0.7516202 0.2657536 0.7461482 0.002914547 0.002826571 0.002914547 1.000301 0.1888017 0.9457291 0.1572939 0.9353491 0.002914547 1.000301 0.1572939 0.9353491 0.1283541 0.9210527 0.1663772 0.7673726 0.2003008 0.7563137 0.002914547 0.002826571 0.1393283 0.7794849 0.1663772 0.7673726 0.002914547 0.002826571 0.002914547 1.000301 0.1283541 0.9210527 0.1125993 0.9099301 0.002914547 1.000301 0.1125993 0.9099301 0.09731286 0.8963778 0.1190086 0.7910094 0.1393283 0.7794849 0.002914547 0.002826571 0.1003621 0.8069695 0.1190086 0.7910094 0.002914547 0.002826571 0.002914547 1.000301 0.09731286 0.8963778 0.08835947 0.8821812 0.002914547 1.000301 0.08835947 0.8821812 0.0804761 0.8686287 0.08636903 0.8254171 0.1003621 0.8069695 0.002914547 0.002826571 0.002914547 1.000301 0.0804761 0.8686287 0.08085232 0.838701 0.08085232 0.838701 0.08636903 0.8254171 0.002914547 0.002826571 0.625 0.5 0.625 0.5 0.375 0.5 0.8399371 0.03846633 0.8399371 0.03846633 0.6830164 0.03845345 0.6845293 0.03954392 0.9970855 0.002826571 0.002914547 0.002826571 0.002914547 0.002826571 0.3198378 0.7458944 0.6225985 0.167147 0.3198378 0.7458944 0.347515 0.7496749 0.6225985 0.167147 0.347515 0.7496749 0.3784826 0.7535521 0.6225985 0.167147 0.6225985 0.167147 0.6845293 0.03954392 0.002914547 0.002826571 0.2675839 0.9600442 0.002914547 1.000301 0.3241655 0.959378 0.002914547 1.000301 0.9970855 1.000301 0.3241655 0.959378 0.9970855 1.000301 0.6225985 0.167147 0.5006143 0.8226605 0.4409512 0.7743732 0.6225985 0.167147 0.4051382 0.7612916 0.3784826 0.7535521 0.4051382 0.7612916 0.6225985 0.167147 0.3553789 0.9562041 0.3241655 0.959378 0.9970855 1.000301 0.3914991 0.9493312 0.3553789 0.9562041 0.9970855 1.000301 0.6225985 0.167147 0.4409512 0.7743732 0.46968 0.7904444 0.6225985 0.167147 0.46968 0.7904444 0.4868897 0.8046841 0.4289064 0.9371266 0.3914991 0.9493312 0.9970855 1.000301 0.4573741 0.9238534 0.4289064 0.9371266 0.9970855 1.000301 0.6225985 0.167147 0.4868897 0.8046841 0.5006143 0.8226605 0.4836669 0.9057542 0.4573741 0.9238534 0.9970855 1.000301 0.4983389 0.8900982 0.4836669 0.9057542 0.9970855 1.000301 0.9970855 1.000301 0.5006143 0.8226605 0.5093672 0.8362848 0.5092468 0.8712366 0.4983389 0.8900982 0.9970855 1.000301 0.6225985 0.167147 0.6225985 0.167147 0.6845293 0.03954392 0.9041889 0.1702547 0.9041889 0.1702547 0.8399371 0.03846633 0.8984711 0.166922 0.8984711 0.166922 0.6225985 0.167147 0.6845293 0.03954392 0.6845293 0.03954392 0.9970855 0.002826571 0.6164633 0.1682047 0.6164633 0.1682047 0.9041889 0.1702547 0.840052 0.04094123 0.840052 0.04094123 0.8984711 0.166922</float_array>
          <technique_common>
            <accessor source="#Cube-mesh-map-0-array" count="351" stride="2">
              <param name="S" type="float"/>
              <param name="T" type="float"/>
            </accessor>
          </technique_common>
        </source>
        <vertices id="Cube-mesh-vertices">
          <input semantic="POSITION" source="#Cube-mesh-positions"/>
        </vertices>
        <triangles material="Material-material" count="117">
          <input semantic="VERTEX" source="#Cube-mesh-vertices" offset="0"/>
          <input semantic="NORMAL" source="#Cube-mesh-normals" offset="1"/>
          <input semantic="TEXCOORD" source="#Cube-mesh-map-0" offset="2" set="0"/>
          <p>0 0 0 11 0 1 10 0 2 2 1 3 7 1 4 3 1 5 6 2 6 5 2 7 7 2 8 5 3 9 1 3 10 80 3 11 0 4 12 3 4 13 1 4 14 4 5 15 1 5 16 5 5 17 0 0 18 86 0 19 9 0 20 82 0 21 91 0 22 81 0 23 27 0 24 28 0 25 8 0 26 36 0 27 37 0 28 6 0 29 9 0 30 85 0 31 8 0 32 7 3 33 45 3 34 3 3 35 0 0 36 84 0 37 1 0 38 10 0 39 86 0 40 9 0 41 62 3 42 63 3 43 5 3 44 79 0 45 92 0 46 82 0 47 11 0 48 87 0 49 10 0 50 80 0 51 89 0 52 79 0 53 82 0 54 84 0 55 1 0 56 8 0 57 88 0 58 11 0 59 81 0 60 90 0 61 80 0 62 0 0 63 4 0 64 11 0 65 10 0 66 9 0 67 0 0 68 2 1 69 6 1 70 7 1 71 6 2 72 4 2 73 5 2 74 1 3 75 82 3 76 81 3 77 80 3 78 79 3 79 5 3 80 1 3 81 81 3 82 80 3 83 0 4 84 2 4 85 3 4 86 4 5 87 0 5 88 1 5 89 0 0 90 83 0 91 86 0 92 82 0 93 92 0 94 91 0 95 8 0 96 11 0 97 25 0 98 11 0 99 4 0 100 23 0 101 4 0 102 6 0 103 13 0 104 6 6 105 12 6 106 13 6 107 4 7 108 13 7 109 14 7 110 4 8 111 14 8 112 15 8 113 4 9 114 15 9 115 16 9 116 4 10 117 16 10 118 17 10 119 4 11 120 17 11 121 18 11 122 4 12 123 18 12 124 19 12 125 4 0 126 19 0 127 20 0 128 4 13 129 20 13 130 21 13 131 4 14 132 21 14 133 22 14 134 4 15 135 22 15 136 23 15 137 11 0 138 23 0 139 24 0 140 11 16 141 24 16 142 25 16 143 2 17 144 0 17 145 9 17 146 2 18 147 9 18 148 8 18 149 29 0 150 30 0 151 8 0 152 30 19 153 2 19 154 8 19 155 28 0 156 29 0 157 8 0 158 8 0 159 25 0 160 26 0 161 8 0 162 26 0 163 27 0 164 2 0 165 30 0 166 31 0 167 2 0 168 31 0 169 32 0 170 43 0 171 12 0 172 6 0 173 42 0 174 43 0 175 6 0 176 2 0 177 32 0 178 33 0 179 2 0 180 33 0 181 34 0 182 41 0 183 42 0 184 6 0 185 40 0 186 41 0 187 6 0 188 2 0 189 34 0 190 35 0 191 2 0 192 35 0 193 36 0 194 39 0 195 40 0 196 6 0 197 38 0 198 39 0 199 6 0 200 6 0 201 2 0 202 36 0 203 37 0 204 38 0 205 6 0 206 9 0 207 86 0 208 85 0 209 7 3 210 71 3 211 72 3 212 7 3 213 72 3 214 73 3 215 53 3 216 54 3 217 3 3 218 51 3 219 52 3 220 3 3 221 52 3 222 53 3 223 3 3 224 7 3 225 73 3 226 74 3 227 7 3 228 74 3 229 75 3 230 50 3 231 51 3 232 3 3 233 49 3 234 50 3 235 3 3 236 7 3 237 75 3 238 76 3 239 7 3 240 76 3 241 77 3 242 48 3 243 49 3 244 3 3 245 47 3 246 48 3 247 3 3 248 7 3 249 77 3 250 78 3 251 7 3 252 78 3 253 44 3 254 46 3 255 47 3 256 3 3 257 7 3 258 44 3 259 45 3 260 45 3 261 46 3 262 3 3 263 0 0 264 83 0 265 84 0 266 10 0 267 87 0 268 86 0 269 82 3 270 1 3 271 3 3 272 3 3 273 54 3 274 79 3 275 54 3 276 55 3 277 79 3 278 55 3 279 56 3 280 79 3 281 79 3 282 82 3 283 3 3 284 71 3 285 7 3 286 70 3 287 7 3 288 5 3 289 70 3 290 5 3 291 79 3 292 61 3 293 58 3 294 79 3 295 57 3 296 56 3 297 57 3 298 79 3 299 69 3 300 70 3 301 5 3 302 68 3 303 69 3 304 5 3 305 79 3 306 58 3 307 59 3 308 79 3 309 59 3 310 60 3 311 67 20 312 68 20 313 5 20 314 66 3 315 67 3 316 5 3 317 79 3 318 60 3 319 61 3 320 65 21 321 66 21 322 5 21 323 64 3 324 65 3 325 5 3 326 5 3 327 61 3 328 62 3 329 63 3 330 64 3 331 5 3 332 79 0 333 89 0 334 92 0 335 11 0 336 88 0 337 87 0 338 80 0 339 90 0 340 89 0 341 82 0 342 92 0 343 84 0 344 8 0 345 85 0 346 88 0 347 81 0 348 91 0 349 90 0 350</p>
        </triangles>
      </mesh>
    </geometry>
  </library_geometries>
  <library_visual_scenes>
    <visual_scene id="Scene" name="Scene">
      <node id="Camera" name="Camera" type="NODE">
        <matrix sid="transform">0.6859207 -0.3240135 0.6515582 7.358891 0.7276763 0.3054208 -0.6141704 -6.925791 0 0.8953956 0.4452714 4.958309 0 0 0 1</matrix>
        <instance_camera url="#Camera-camera"/>
      </node>
      <node id="Light" name="Light" type="NODE">
        <matrix sid="transform">-0.2908646 -0.7711008 0.5663932 4.076245 0.9551712 -0.1998834 0.2183912 1.005454 -0.05518906 0.6045247 0.7946723 5.903862 0 0 0 1</matrix>
        <instance_light url="#Light-light"/>
      </node>
      <node id="Cube" name="Cube" type="NODE">
        <matrix sid="transform">0.59 0 0 0 0 0.295 0 0 0 0 0.004975124 0 0 0 0 1</matrix>
        <instance_geometry url="#Cube-mesh" name="Cube">
          <bind_material>
            <technique_common>
              <instance_material symbol="Material-material" target="#Material-material">
                <bind_vertex_input semantic="UVMap" input_semantic="TEXCOORD" input_set="0"/>
              </instance_material>
            </technique_common>
          </bind_material>
        </instance_geometry>
      </node>
    </visual_scene>
  </library_visual_scenes>
  <scene>
    <instance_visual_scene url="#Scene"/>
  </scene>
</COLLADA>